<?xml version="1.0" encoding="utf-8"?>
<!-- Generator: Adobe Illustrator 21.0.2, SVG Export Plug-In . SVG Version: 6.00 Build 0)  -->
<svg version="1.1" id="Livello_1" xmlns="http://www.w3.org/2000/svg" xmlns:xlink="http://www.w3.org/1999/xlink" x="0px" y="0px"
	 width="172px" height="49px" viewBox="0 0 172 49" style="enable-background:new 0 0 172 49;" xml:space="preserve">
<g>
	<rect x="125.2" y="31.5" style="fill:#FFFFFF;" width="2.1" height="1.4"/>
	<path style="fill:#FFFFFF;" d="M23.4,5.4H1.2v22.2c0,0,0,0,0,0v9.8c0,4.2,3.3,7.7,7.4,8V34.3h14.8c3.7,0,6.7-3,6.7-6.7V12.1
		C30.1,8.4,27.1,5.4,23.4,5.4 M22.7,26.9H8.6v-8.4v-5.7h14.1V26.9z"/>
	<path style="fill:#FFFFFF;" d="M89.3,5.4H68.5v25.2c0,2.1,1.8,3.8,3.9,3.7c2-0.1,3.5-1.9,3.5-3.9V12.8h14.1v17.6
		c0,2,1.5,3.8,3.5,3.9c2.1,0.1,3.9-1.6,3.9-3.7V13.4C97.3,9,93.8,5.4,89.3,5.4"/>
	<path style="fill:#6C79B8;" d="M62.6,18.8H51.5c-0.6,0-1.1-0.5-1.1-1.1V6.5c0-0.6,0.5-1.1,1.1-1.1h5.7c3.6,0,6.6,2.9,6.6,6.6v5.7
		C63.7,18.3,63.2,18.8,62.6,18.8"/>
	<path style="fill:#FAB900;" d="M57.1,34.3h-5.7c-0.6,0-1.1-0.5-1.1-1.1V22.1c0-0.6,0.5-1.1,1.1-1.1h11.1c0.6,0,1.1,0.5,1.1,1.1v5.7
		C63.7,31.4,60.8,34.3,57.1,34.3"/>
	<path style="fill:#1AA6AC;" d="M35.9,18.8h11.1c0.6,0,1.1-0.5,1.1-1.1V6.5c0-0.6-0.5-1.1-1.1-1.1h-5.7c-3.6,0-6.6,2.9-6.6,6.6v5.7
		C34.8,18.3,35.3,18.8,35.9,18.8"/>
	<path style="fill:#B3CB04;" d="M41.4,34.3h5.7c0.6,0,1.1-0.5,1.1-1.1V22.1c0-0.6-0.5-1.1-1.1-1.1H35.9c-0.6,0-1.1,0.5-1.1,1.1v5.7
		C34.8,31.4,37.8,34.3,41.4,34.3"/>
	<path style="fill:#FFFFFF;" d="M110.1,11.1h-1.2l-0.1-0.5c-0.3,0.4-0.8,0.7-1.7,0.7c-1.4,0-2.7-0.9-2.7-2.9c0-1.8,1.1-3,2.9-3
		c1.3,0,2.4,0.7,2.6,2.1h-1.7c-0.1-0.5-0.5-0.7-0.9-0.7c-0.7,0-1.1,0.6-1.1,1.6c0,0.8,0.2,1.5,1.2,1.5c0.4,0,0.8-0.3,0.9-0.6h-0.8
		V8.1h2.5V11.1z"/>
	<path style="fill:#FFFFFF;" d="M116.7,8.3c0,1.9-1.3,3-2.9,3c-1.7,0-2.9-1.1-2.9-3c0-1.7,1.2-2.9,2.9-2.9
		C115.8,5.4,116.7,6.9,116.7,8.3 M112.7,8.3c0,0.7,0.2,1.6,1.1,1.6c0.8,0,1.1-0.7,1.1-1.6c0-0.8-0.3-1.6-1.1-1.5
		C113,6.8,112.7,7.6,112.7,8.3"/>
	<polygon style="fill:#FFFFFF;" points="117.2,5.6 119,5.6 120,9.3 121,5.6 122.8,5.6 120.9,11.1 119.1,11.1 	"/>
	<polygon style="fill:#FFFFFF;" points="123.6,11.1 123.6,5.6 128.1,5.6 128.1,6.9 125.4,6.9 125.4,7.7 127.7,7.7 127.7,9 125.4,9 
		125.4,9.8 128.2,9.8 128.2,11.1 	"/>
	<path style="fill:#FFFFFF;" d="M130.8,9.2v1.9H129V5.6h2.6c1.8,0,2.5,0.5,2.5,1.6c0,0.6-0.3,1.2-0.9,1.4c0.6,0.2,0.9,0.4,0.9,1.5
		c0,0.7,0,1,0.2,1v0.2h-1.8c0-0.1-0.1-0.5-0.1-1c0-0.7-0.1-1-1-1H130.8z M130.8,8h0.7c0.6,0,0.9-0.1,0.9-0.5c0-0.4-0.3-0.6-0.7-0.6
		h-0.8V8z"/>
	<polygon style="fill:#FFFFFF;" points="138.8,8.6 138.7,7.3 138.7,5.6 140.4,5.6 140.4,11.1 138.7,11.1 136.7,8.1 136.8,9.4 
		136.8,11.1 135.1,11.1 135.1,5.6 136.8,5.6 	"/>
	<path style="fill:#FFFFFF;" d="M141,11.1l2-5.5h1.8l2,5.5H145l-0.2-0.7H143l-0.2,0.7H141z M143.9,7.2l-0.6,2h1.1L143.9,7.2z"/>
	<polygon style="fill:#FFFFFF;" points="151.2,8.6 151.1,7.3 151.1,5.6 152.8,5.6 152.8,11.1 151.1,11.1 149.1,8.1 149.2,9.4 
		149.2,11.1 147.5,11.1 147.5,5.6 149.2,5.6 	"/>
	<path style="fill:#FFFFFF;" d="M157.4,7.7c-0.1-0.6-0.4-0.9-1-0.9c-0.6,0-1,0.5-1,1.6c0,0.8,0.2,1.5,1.1,1.5c0.6,0,0.9-0.4,0.9-0.9
		h1.7c-0.2,1.4-1.2,2.3-2.6,2.3c-1.8,0-2.9-1.1-2.9-2.9c0-1.8,1.2-2.9,2.8-2.9c1.7,0,2.6,0.8,2.8,2.3H157.4z"/>
	<polygon style="fill:#FFFFFF;" points="159.9,11.1 159.9,5.6 164.4,5.6 164.4,6.9 161.7,6.9 161.7,7.7 164,7.7 164,9 161.7,9 
		161.7,9.8 164.6,9.8 164.6,11.1 	"/>
	<polygon style="fill:#FFFFFF;" points="104.8,18.8 104.8,13.3 109.3,13.3 109.3,14.6 106.6,14.6 106.6,15.4 108.9,15.4 108.9,16.7 
		106.6,16.7 106.6,17.5 109.4,17.5 109.4,18.8 	"/>
	<path style="fill:#FFFFFF;" d="M116.3,15.4c-0.1-0.6-0.4-0.9-1-0.9c-0.6,0-1,0.5-1,1.6c0,0.8,0.2,1.5,1.1,1.5
		c0.6,0,0.9-0.4,0.9-0.9h1.7c-0.2,1.4-1.2,2.3-2.6,2.3c-1.8,0-2.9-1.1-2.9-2.9c0-1.8,1.2-2.9,2.8-2.9c1.7,0,2.6,0.8,2.8,2.3H116.3z"
		/>
	<path style="fill:#FFFFFF;" d="M118.4,18.8l2-5.5h1.8l2,5.5h-1.8l-0.2-0.7h-1.8l-0.2,0.7H118.4z M121.3,14.9l-0.6,2h1.1L121.3,14.9
		z"/>
	<path style="fill:#FFFFFF;" d="M124.7,18.8v-5.5h2.7c1.6,0,2.4,0.7,2.4,1.9c0,1.2-0.7,1.9-2.3,1.9h-0.9v1.7H124.7z M127.3,15.8
		c0.4,0,0.7-0.2,0.7-0.6c0-0.5-0.6-0.6-1-0.6h-0.5v1.2H127.3z"/>
	<path style="fill:#FFFFFF;" d="M129.4,18.8l2-5.5h1.8l2,5.5h-1.8l-0.2-0.7h-1.8l-0.2,0.7H129.4z M132.2,14.9l-0.6,2h1.1L132.2,14.9
		z"/>
	<path style="fill:#FFFFFF;" d="M139.3,15.4c-0.1-0.6-0.4-0.9-1-0.9c-0.6,0-1,0.5-1,1.6c0,0.8,0.2,1.5,1.1,1.5
		c0.6,0,0.9-0.4,0.9-0.9h1.7c-0.2,1.4-1.2,2.3-2.6,2.3c-1.8,0-2.9-1.1-2.9-2.9c0-1.8,1.2-2.9,2.8-2.9c1.7,0,2.6,0.8,2.8,2.3H139.3z"
		/>
	<rect x="141.8" y="13.3" style="fill:#FFFFFF;" width="1.8" height="5.5"/>
	<polygon style="fill:#FFFFFF;" points="144.5,13.3 149.6,13.3 149.6,14.7 147.9,14.7 147.9,18.8 146.1,18.8 146.1,14.7 144.5,14.7 
			"/>
	<path style="fill:#FFFFFF;" d="M149.3,18.8l2-5.5h1.8l2,5.5h-1.8l-0.2-0.7h-1.8l-0.2,0.7H149.3z M152.3,11.6l0.8,1.1H152l-1.3-1.1
		H152.3z M152.2,14.9l-0.6,2h1.1L152.2,14.9z"/>
	<rect x="104.8" y="21" style="fill:#FFFFFF;" width="1.8" height="5.5"/>
	<path style="fill:#FFFFFF;" d="M110.6,22.6c0-0.2-0.1-0.3-0.3-0.4c-0.1-0.1-0.3-0.1-0.5-0.1c-0.4,0-0.6,0.1-0.6,0.3
		c0,0.8,3.2,0.3,3.2,2.3c0,1.3-1.1,1.9-2.6,1.9c-1.5,0-2.4-0.9-2.5-1.9h1.7c0,0.2,0.1,0.3,0.3,0.4c0.2,0.1,0.3,0.1,0.5,0.1
		c0.5,0,0.8-0.1,0.8-0.4c0-0.8-3.2-0.3-3.2-2.4c0-1.2,1-1.8,2.4-1.8c1.5,0,2.2,0.8,2.4,1.8H110.6z"/>
	<polygon style="fill:#FFFFFF;" points="113,21 118.1,21 118.1,22.4 116.4,22.4 116.4,26.5 114.6,26.5 114.6,22.4 113,22.4 	"/>
	<rect x="118.9" y="21" style="fill:#FFFFFF;" width="1.8" height="5.5"/>
	<polygon style="fill:#FFFFFF;" points="121.5,21 126.6,21 126.6,22.4 125,22.4 125,26.5 123.2,26.5 123.2,22.4 121.5,22.4 	"/>
	<path style="fill:#FFFFFF;" d="M127.4,21h1.8v3.3c0,0.5,0.1,1,0.9,1c0.7,0,0.9-0.4,0.9-1V21h1.8v3.1c0,1.8-0.8,2.6-2.7,2.6
		c-1.7,0-2.7-0.7-2.7-2.6V21z"/>
	<polygon style="fill:#FFFFFF;" points="133.5,26.5 133.5,25.2 136.2,22.3 133.6,22.3 133.6,21 138.4,21 138.4,22.3 135.7,25.2 
		138.5,25.2 138.5,26.5 	"/>
	<rect x="139.4" y="21" style="fill:#FFFFFF;" width="1.8" height="5.5"/>
	<path style="fill:#FFFFFF;" d="M147.9,23.7c0,1.9-1.3,2.9-2.9,2.9c-1.7,0-2.9-1.1-2.9-3c0-1.7,1.2-2.9,2.9-2.9
		C147,20.8,147.9,22.2,147.9,23.7 M143.9,23.7c0,0.7,0.2,1.6,1.1,1.6c0.8,0,1.1-0.7,1.1-1.6c0-0.8-0.3-1.6-1.1-1.5
		C144.2,22.2,143.9,23,143.9,23.7"/>
	<polygon style="fill:#FFFFFF;" points="152.4,24 152.4,22.7 152.4,21 154.1,21 154.1,26.5 152.4,26.5 150.4,23.5 150.5,24.8 
		150.5,26.5 148.8,26.5 148.8,21 150.5,21 	"/>
	<path style="fill:#FFFFFF;" d="M154.7,26.5l2-5.5h1.8l2,5.5h-1.8l-0.2-0.7h-1.8l-0.2,0.7H154.7z M157.6,22.6l-0.6,2h1.1L157.6,22.6
		z"/>
	<polygon style="fill:#FFFFFF;" points="161.2,26.5 161.2,21 163,21 163,25.2 165.5,25.2 165.5,26.5 	"/>
	<polygon style="fill:#FFFFFF;" points="166.3,26.5 166.3,21 170.9,21 170.9,22.3 168.2,22.3 168.2,23.1 170.4,23.1 170.4,24.4 
		168.2,24.4 168.2,25.2 171,25.2 171,26.5 	"/>
	<path style="fill:#FFFFFF;" d="M104.6,34.2c0-0.6,0.2-1.1,0.6-1.5c0.9-0.9,2.3-1.3,2.3-2.2c0-0.3-0.3-0.5-0.7-0.5
		c-0.6,0-0.8,0.5-0.8,1h-1.4c0-1.6,0.9-2.2,2.3-2.2c1.1,0,2.2,0.5,2.2,1.8c0,1-0.7,1.3-1.4,1.8c-0.4,0.2-0.8,0.5-1.1,0.7h2.5v1.3
		H104.6z"/>
	<path style="fill:#FFFFFF;" d="M111.9,28.7c1.4,0,2.3,0.9,2.3,2.7c0,1.5-0.6,2.9-2.3,2.9c-1.8,0-2.4-1.3-2.4-2.9
		C109.5,29.5,110.6,28.7,111.9,28.7 M112.6,31.5c0-0.6,0-1.6-0.8-1.6c-0.7,0-0.7,1.1-0.7,1.6c0,0.9,0.1,1.6,0.8,1.6
		C112.5,33.1,112.6,32.4,112.6,31.5"/>
	<path style="fill:#FFFFFF;" d="M118.1,34.2h-1.6V31h-1.3V30c0.8,0,1.5-0.3,1.6-1.2h1.2V34.2z"/>
	<path style="fill:#FFFFFF;" d="M119.8,31.8l2.5-3h1.5v3.1h0.7v1.2h-0.7v1.1h-1.5v-1.1h-2.5V31.8z M121,31.9h1.3v-1.7L121,31.9z"/>
	<path style="fill:#FFFFFF;" d="M127.7,34.2c0-0.6,0.2-1.1,0.6-1.5c0.9-0.9,2.3-1.3,2.3-2.2c0-0.3-0.3-0.5-0.7-0.5
		c-0.6,0-0.8,0.5-0.8,1h-1.4c0-1.6,0.9-2.2,2.3-2.2c1.1,0,2.2,0.5,2.2,1.8c0,1-0.7,1.3-1.4,1.8c-0.4,0.2-0.8,0.5-1.1,0.7h2.5v1.3
		H127.7z"/>
	<path style="fill:#FFFFFF;" d="M135,28.7c1.4,0,2.3,0.9,2.3,2.7c0,1.5-0.6,2.9-2.3,2.9c-1.8,0-2.4-1.3-2.4-2.9
		C132.6,29.5,133.7,28.7,135,28.7 M135.7,31.5c0-0.6,0-1.6-0.8-1.6c-0.7,0-0.7,1.1-0.7,1.6c0,0.9,0.1,1.6,0.8,1.6
		C135.6,33.1,135.7,32.4,135.7,31.5"/>
	<path style="fill:#FFFFFF;" d="M138,34.2c0-0.6,0.2-1.1,0.7-1.5c0.9-0.9,2.3-1.3,2.3-2.2c0-0.3-0.3-0.5-0.7-0.5
		c-0.6,0-0.8,0.5-0.8,1h-1.4c0-1.6,0.9-2.2,2.3-2.2c1.1,0,2.2,0.5,2.2,1.8c0,1-0.7,1.3-1.4,1.8c-0.4,0.2-0.8,0.5-1.1,0.7h2.5v1.3
		H138z"/>
	<path style="fill:#FFFFFF;" d="M145.3,28.7c1.4,0,2.3,0.9,2.3,2.7c0,1.5-0.6,2.9-2.3,2.9c-1.8,0-2.4-1.3-2.4-2.9
		C142.9,29.5,144,28.7,145.3,28.7 M146,31.5c0-0.6,0-1.6-0.8-1.6c-0.7,0-0.7,1.1-0.7,1.6c0,0.9,0.1,1.6,0.8,1.6
		C145.8,33.1,146,32.4,146,31.5"/>
</g>
</svg>
