<?xml version="1.0" encoding="utf-8"?>
<!-- Generator: Adobe Illustrator 21.0.2, SVG Export Plug-In . SVG Version: 6.00 Build 0)  -->
<svg version="1.1" id="Livello_1" xmlns="http://www.w3.org/2000/svg" xmlns:xlink="http://www.w3.org/1999/xlink" x="0px" y="0px"
	 width="172px" height="49px" viewBox="0 0 172 49" style="enable-background:new 0 0 172 49;" xml:space="preserve">
<style type="text/css">
	.st0{fill:#FFFFFF;}
	.st1{fill:none;}
	.st2{enable-background:new    ;}
</style>
<g>
	<g>
		<g>
			<path class="st0" d="M7.8,36.2c-0.2,0.3-0.4,0.4-0.8,0.2l0.2-0.3l0.3-0.5c0.2-0.1,0.2-0.1,0.3,0C8,35.6,8,35.8,7.8,36.2
				C7.9,36.2,7.9,36.2,7.8,36.2 M8.3,36.5c0.1-0.1,0.1-0.3,0.1-0.3c0-0.3-0.1-0.6-0.4-0.7l-0.4-0.2c-0.2-0.1-0.3-0.2-0.4-0.3L7,35
				c0.2,0.1,0.1,0.3,0,0.6l-0.3,0.5l-0.5,0.7c-0.2,0.3-0.3,0.4-0.5,0.3l-0.1,0.1L6.5,38l0.1-0.1c-0.3-0.2-0.2-0.3,0-0.6l0.3-0.7
				l0.2,0.1C7.5,36.8,8,36.9,8.3,36.5"/>
		</g>
		<g>
			<path class="st0" d="M12.5,14.6c0.5-0.6,1-1.2,1.5-1.7c1.4-1.3,3.1-2.2,5-2.8l-0.2,2.8l-0.2,3c0,0-0.1,0.1-0.2,0.1L12.5,14.6
				L12.5,14.6z M12.1,14.7c0,0.2,0.1,0.3,0.4,0.4l5.9,1.3c0.1,0,0.1,0,0.2,0c0.2,0,0.4-0.3,0.4-0.5l0.2-3l0.2-2.8
				c0-0.1-0.1-0.3-0.2-0.3s-0.2-0.1-0.4,0c-2.1,0.6-3.9,1.7-5.4,3.2c-0.5,0.4-0.9,1-1.3,1.5C12.1,14.5,12.1,14.6,12.1,14.7"/>
		</g>
		<g>
			<path class="st0" d="M18.3,42.7c-0.2,0-0.3,0.1-0.4,0.3c0.3,0,0.4,0.1,0.7,0c0.5-0.4,0.8-1.1,1.4-1.3v-0.1
				c-0.2,0-0.4,0.1-0.7,0.3C19.1,42,18.8,42.8,18.3,42.7"/>
		</g>
		<g>
			<path class="st0" d="M10.7,38.3l0.1-0.3l0.2-0.5h0.1c0.2,0.1,0.2,0.3,0.1,0.6c0,0.1-0.1,0.1-0.1,0.2
				C11.1,38.4,10.9,38.4,10.7,38.3 M10.3,39.6c-0.2-0.1-0.1-0.3,0-0.5c0,0,0,0,0-0.1l0.3-0.5h0.1c0.3,0.1,0.3,0.3,0.1,0.7
				c-0.1,0-0.1,0.1-0.1,0.2C10.6,39.6,10.4,39.7,10.3,39.6 M11.4,37.2l-0.9-0.3L10.4,37c0.3,0.1,0.2,0.3,0.1,0.6h-0.1l-0.6,1.2l0,0
				c-0.2,0.3-0.2,0.5-0.5,0.3v0.1l0.7,0.4c0.3,0.1,0.8,0.3,1.1,0c0.1-0.1,0.1-0.2,0.2-0.3c0.2-0.5-0.1-0.9-0.3-1
				c0.1,0,0.4,0,0.6-0.1c0.1,0,0.1-0.1,0.2-0.3C12.1,37.7,11.7,37.3,11.4,37.2"/>
		</g>
		<g>
			<path class="st0" d="M13.4,39.5c-0.2,0-0.3-0.1-0.3-0.3V39L13,38.4h0.1c0.3,0,0.5,0.1,0.6,0.5v0.2C13.6,39.3,13.6,39.5,13.4,39.5
				 M12.7,37.2c0-0.1,0.1-0.1,0.1-0.1c0.2,0,0.4,0.1,0.5,0.4v0.2c0,0.2-0.1,0.3-0.3,0.4l-0.1-0.3L12.7,37.2z M13.3,38.2
				c0.1-0.1,0.3-0.2,0.4-0.4c0-0.1,0-0.2,0-0.3c-0.1-0.6-0.6-0.6-1-0.5l-0.9,0.2v0.2c0.3-0.1,0.3,0.1,0.4,0.4l0,0l0.3,1.3l0,0
				c0,0.3,0.1,0.5-0.2,0.6v0.1l0.9-0.2c0.3,0,0.8-0.2,0.9-0.6v-0.3C14,38.3,13.6,38.2,13.3,38.2"/>
		</g>
		<g>
			<path class="st0" d="M10.4,36.9L10.4,36.9l-0.6-0.5l-0.1,0.1c0.1,0,0.2,0.1,0.1,0.3c-0.1,0.1-0.3,0.3-0.5,0.4L8.5,38L9,36.6
				c0,0,0-0.2,0.1-0.3s0.2-0.1,0.3,0l0.1-0.1l-0.9-0.5l-0.1,0.1c0.2,0.2,0.2,0.2,0,0.6l-0.7,2.2l0.1,0.1l1.9-1.6
				C10,36.9,10.2,36.8,10.4,36.9"/>
		</g>
		<g>
			<path class="st0" d="M5.9,36.5l-0.1-0.1c-0.3,0.4-0.5,0.4-0.8,0.3c-0.3-0.2-0.1-0.4,0-0.7l0.3-0.4c0.2,0.2,0.3,0.3,0.1,0.6h0.1
				l0.6-1H6c-0.2,0.3-0.4,0.3-0.6,0.2l0.4-0.6c0-0.1,0.1-0.2,0.1-0.2s0.2,0,0.3,0.1c0.2,0.1,0.3,0.3,0.1,0.7h0.1l0.4-0.6l-1.4-0.9
				V34c0.2,0.1,0.1,0.3,0,0.6l-0.8,1.2c-0.2,0.3-0.3,0.5-0.6,0.3v0.1l1.5,0.9l0.2-0.3L5.9,36.5z"/>
		</g>
		<g>
			<path class="st0" d="M15.9,38.4c0,0.5-0.1,0.6-0.5,0.7c-0.3,0-0.4-0.2-0.5-0.6l-0.3-1.2c-0.1-0.3-0.1-0.5,0.2-0.5v-0.1l-1.1,0.2
				V37c0.3,0,0.3,0.1,0.4,0.5l0.3,1.4c0,0.3,0.1,0.5-0.2,0.5v0.2l1.8-0.3l-0.1-0.7h0V38.4z"/>
		</g>
		<g>
			<path class="st0" d="M20.1,37.4l0.1-0.3l0.1-0.6l0.3,0.6l0.1,0.3H20.1z M21.4,37.8l-0.3-0.6l-0.6-1.5h-0.1l-0.3,1.5L20,37.8
				c-0.1,0.3-0.1,0.6-0.4,0.7l0.1,0.1h0.7v-0.2c-0.1,0-0.2,0-0.3-0.2v-0.5h0.7l0.2,0.5c0,0.2-0.2,0.2-0.3,0.2v0.1h0.8h0.2v-0.1
				c-0.1,0-0.2,0-0.2-0.1C21.5,38.1,21.4,37.9,21.4,37.8"/>
		</g>
		<g>
			<path class="st0" d="M21.5,11.9L21.5,11.9l1.7,5.4h5.9l-4.9,3.2l2,5.4l-4.7-3.4L16.7,26l2-5.4l-4.9-3.1h5.9L21.5,11.9z
				 M12.2,16.8l6,3.8l-2.4,6.7l5.8-4.3l5.8,4.3l-2.5-6.7l6-3.8h-7.2l-2.1-6.7l-2.1,6.7H12.2z"/>
		</g>
		<g>
			<path class="st0" d="M19.1,37.7c0,0.4-0.1,0.9-0.5,1c-0.5,0-0.7-0.5-0.8-1.2c-0.1-0.5,0-1.3,0.4-1.3c0.3,0,0.6,0.2,0.7,0.6H19
				l-0.1-0.9h-0.1v0.3c-0.2-0.2-0.4-0.2-0.6-0.2c-0.6,0.1-1,0.7-0.9,1.6s0.6,1.3,1.3,1.3c0.2,0,0.5-0.2,0.6-0.4l0.1,0.2h0.1l-0.1-1
				h-0.2V37.7z"/>
		</g>
		<g>
			<path class="st0" d="M17.1,38.3l-0.3-1.4c0-0.3-0.1-0.5,0.2-0.6l-0.1-0.1l-1.1,0.2v0.2c0.3-0.1,0.3,0.1,0.4,0.4l0.3,1.4
				c0.1,0.3,0.1,0.5-0.2,0.6l0.1,0.1l1.1-0.2l-0.1-0.1C17.2,38.8,17.1,38.6,17.1,38.3"/>
		</g>
		<g>
			<path class="st0" d="M23.8,9.9c1.8,0.5,3.4,1.5,4.8,2.7c0.6,0.5,1.1,1.2,1.6,1.8l-5.9,1.4c0,0-0.1,0-0.2-0.1l-0.2-3.1L23.8,9.9
				L23.8,9.9v5.8c0,0.1,0,0.1,0,0.2c0.1,0.2,0.4,0.3,0.6,0.3l5.9-1.4c0.1,0,0.2-0.2,0.3-0.3c0.1-0.1,0.1-0.3,0-0.3
				c-0.4-0.5-0.9-1.1-1.3-1.6c-1.5-1.4-3.3-2.5-5.3-3.1c-0.1,0-0.2,0-0.3,0c-0.2,0-0.3,0.2-0.3,0.4l0.2,2.7l0.3,3.1L23.8,9.9z"/>
		</g>
		<g>
			<path class="st0" d="M21.5,29.3c-1.4,0-2.8-0.3-4.1-0.7l4-4.4c0,0,0,0,0.1,0s0.1,0,0.1,0l3.9,4.5C24.3,29.1,23,29.3,21.5,29.3
				 M22,24c0,0-0.1-0.1-0.2-0.1s-0.2-0.1-0.3,0c-0.2,0-0.3,0-0.4,0.2l-4,4.4c-0.2,0.4,0.1,0.6,0.2,0.6c1.3,0.4,2.7,0.6,4.2,0.7
				c1.4,0,2.7-0.2,4.1-0.6c0.1,0,0.6-0.3,0.2-0.7L22,24z"/>
		</g>
		<g>
			<path class="st0" d="M34.5,37.9l-0.1-0.5l-0.1-0.4l0.4,0.4l0.3,0.2L34.5,37.9z M36.1,37.9c-0.1,0-0.2-0.2-0.3-0.3l-0.4-0.3
				L34,36.1l-0.2,0.1l0.3,1.1l0.3,1c0.1,0.3,0.3,0.6,0,0.9l0.1,0.1l0.6-0.4l0-0.1c-0.1,0-0.2,0.1-0.3-0.1l-0.2-0.4l0.6-0.3l0.4,0.4
				c0.1,0.1,0,0.2-0.1,0.3v0.1l0.9-0.5L36.3,38C36.3,37.9,36.2,37.9,36.1,37.9"/>
		</g>
		<g>
			<path class="st0" d="M35.8,8.8c-0.1,0.2,0,0.3,0,0.5c0.1,0.1,0.1,0.3,0.3,0.2c0-0.2-0.1-0.3-0.1-0.4C35.9,9,36,8.8,35.8,8.8"/>
		</g>
		<g>
			<path class="st0" d="M25.7,36.1c0.3,0,0.2,0.2,0.1,0.6l-0.3,1.4c-0.1,0.3-0.1,0.5-0.4,0.5v0.1l1.1,0.2v-0.2
				c-0.3,0-0.2-0.2-0.2-0.5l0.3-1.4c0.1-0.3,0.1-0.5,0.4-0.4v-0.2l-1-0.2V36.1z"/>
		</g>
		<g>
			<path class="st0" d="M36.9,34.7c0-0.1,0-0.2,0.1-0.2l-0.1-0.1l-0.6,0.3v0.1c0.3-0.1,0.5,0.1,0.7,0.3l0.7,1l-2.2-1L35,35.5
				l0.1,0.1c0.1-0.1,0.2,0,0.4,0l1,1.4c0.2,0.3,0.3,0.4,0.1,0.6v0.1l0.6-0.4l-0.1-0.1c-0.2,0.2-0.4-0.1-0.6-0.3l-0.8-1.1l2.5,1.1
				l0.1-0.1l-1.2-1.7C37.1,35,36.9,34.8,36.9,34.7"/>
		</g>
		<g>
			<path class="st0" d="M33.3,29.6c0.1-0.2,0.4-0.4,0.6-0.7c0,0.2-0.1,0.5-0.3,0.6c-0.1,0.1-0.2,0.2-0.3,0.3c0,0,0,0-0.1-0.1
				C33.2,29.8,33.2,29.6,33.3,29.6 M35.6,27.7c-0.1,0.2-0.2,0.3-0.4,0.5c-0.1,0-0.1-0.2-0.1-0.5c0-0.3,0.1-0.9,0.3-1
				C35.8,27.3,35.6,27.7,35.6,27.7 M35.8,28.9c-0.1-0.3,0.1-0.6,0.2-1v-0.1v-0.1c0,0,0,0.1,0.1,0.1v0.1
				C36.4,28.2,36.1,28.7,35.8,28.9 M37,29.1c-0.2,0.3-0.6,0.5-0.6,0.9c0,0.1-0.2,0.2-0.4,0.1c-0.1,0-0.2-0.2-0.4-0.2
				c-0.1,0.4-0.6,0.3-0.9,0.5c-0.6,0.5-0.7-0.3-0.7-0.2c-0.4,0.4-0.7,1-1.1,1.3c-0.2,0.3-0.4,0.9-0.5,1c-0.1,0-0.2,0.2-0.2,0.2
				c0,0.1-0.1,0.2-0.3,0.2c-0.1,0-0.1-0.2-0.3-0.1c-0.1,0.2-0.2,0-0.4,0c-0.2,0.2-0.9,1.1-1.4,1.1c-0.1,0-0.3,0-0.4-0.1
				c-0.2-0.1-0.6,0.6-0.8,0.6c-0.1,0,0,0.1,0,0.1h0.3c0,0.2-0.3,0.4-0.5,0.5c0,0-0.3,0.1-0.5,0.2c0,0-0.7,0-1.5-0.3v-0.3l0.8-0.4
				c0.1,0.2,0.2,0.3,0.4,0.4c0.2,0.1,0.2,0,0.2-0.1c0-0.3-0.7-0.4-0.1-0.7c0.3-0.2,0.3,0,0.9-0.1c0.4-0.1,0.8-0.3,1.1-0.5
				c0,0,0.4-0.2,1.2-1.5c0,0,0.4-0.6,3.3-5.8c0,0,0.7-0.6,1.8-3.1c0.1-0.2,0.1,0.2,0.3,0.1c0.2-0.3-0.1-0.4-0.2-0.6
				c-0.1-0.3-0.2-0.7-0.1-1.1c0-0.1,0.2,0,0.3,0.2c0.1,0.3,0.1,0.5,0.2,0.9c0.5,0,0.7-2.6,0.7-3.1V19c-0.2-0.3-0.9-0.4-0.9-0.7
				c0.5-0.1-0.2-1.1-0.3-0.6c0,0.1,0.1,0.2,0,0.3c-0.8,0.1-0.6-0.6-0.8-0.9c-0.1-0.2-0.5,0-0.6-0.3c0-0.2,0-0.3-0.2-0.4
				c-0.2,0-0.5,0.1-0.5-0.3c0-0.3,0.9,0.4,0.7-0.3c-0.3-0.6-1-0.2-1.1-0.3c-0.2-0.3-0.9-1.4-0.9-1.8c0-0.2,0.4,0.3,0.4,0
				s-0.4-0.6-0.5-0.6c-0.4,0.2-0.6-0.3-0.6-0.4c0-0.1,0-0.3,0-0.5c-0.1-0.2-0.4-0.2-0.4-0.4c-0.1-0.1-0.2-0.3,0-0.4
				c1.1-0.3,0-0.7,0.2-1c0.2-0.2,0.7,0.1,1-0.3c0.2-0.2,0.3-0.1,0.4,0c0.3,0.3-0.1,1,0.4,1c0.2,0,0.3-0.3,0.6-0.1
				c0.3,0.3,0.3,0.6,0.4,1.1c0.2,0.6-0.2,0.7-0.2,0.9c0,0-0.1,0.1-0.1,0.2s0,0.3,0.1,0.4c0.2-0.1,0.4-0.2,0.5-0.4
				c0.1-0.1,0.2-0.1,0.2,0c0.1,0.1,0,0.4,0.1,0.5c0.8,0.7,0,1.3,0,1.3c-0.1-0.2,0-0.5-0.2-0.6c-0.1,0.3,0.1,0.7,0,1.1
				c0,0-0.1-0.5-1.4-2.1c0-0.3-0.1-0.7-0.1-1c0,0,0-0.1-0.1,0c-0.1,0-0.1,0.1-0.1,0.1c-0.2-0.4-0.3-1-0.6-1.4l-0.1,0.1
				c0.2,0.6,0.5,1.3,0.7,1.9h-0.1l-0.5-0.5h-0.1c0.1,0.3,0.5,0.6,0.8,1l1.1,1.5c-0.2-0.1-0.4-0.2-0.7-0.2v0.1c0.8,0.4,1.4,1.3,1.6,2
				c-0.1,0.1-0.2-0.1-0.3,0c0,0.2,0.5,0.5,0.9,0.6v-0.2c-0.3-0.6-0.8-1.3-0.7-2c0.1,0.1,0.3,0.9,0.6,0.1c0.2,0,0.1,0.5,0.2,0.6
				c0.3,0.3,0.4,0.3,0.3,0.7c-0.1,0.2-0.2,0.3-0.1,0.7c0.1,0.3,0.7,0.2,0.5,0.6c0,0.1-0.1,0.3-0.1,0.4c0.2,0.1,0.3,0.3,0.5,0.4
				c0.2-0.2-0.1-0.5-0.1-0.7c0.2-0.3,0-0.6-0.1-1c-0.2-0.1,0-0.3,0-0.5l0,0c-0.1,0.4,0.7,0.4,0.3,0.9c0.1,0.4,0.4,0.9,0.3,1.3
				c0.1,0.2,0.2,0,0.3-0.1c0.2-0.2,0.4-0.6,0.2-0.9c-0.1,0-0.2-0.2-0.3-0.2c0-0.3-0.2-0.4-0.2-0.7c0.1,0,0.2,0,0.2-0.1
				c0-0.5-0.7-0.6-0.8-1.2c0-0.3-0.4-0.5-0.5-0.9c0.2-0.1,0.7,0,0.5-0.3c-0.5-0.4-1.1-1-1.3-1.6c0,0-0.1-0.3,0-0.4
				c0.2,0,0.3,0,0.3-0.2c0-0.4-0.4-0.6-0.7-0.7c-0.3-0.3-0.3-0.7-0.5-1.2c0.2-0.4,0.3-0.9,0.5-1.3c0-0.1-0.5-0.7,0.5-0.4
				c0.1,0,0.5-0.1,0.5-0.3c0.3,0.1,0.2,1.3,0.5,1.2c0.2,0,0.1-0.3,0.4-0.2c0,0,0,0.7,0.5,1.3c0,0.3-0.1,0.6,0,1c0,0,0.2,0.2,0.4-0.1
				c0,1.3,0.3,1.5,0.4,1.5c-0.2,0.3-1,1.6-0.1,1.7c0.2,0,0-0.6,0.2-0.7c0.1-0.1,0.4,0.2,0.5,0.9c0,0.5-1,1.1-0.3,1.7
				c0-0.1,0.1-0.1,0.1-0.2C39,16,39,16.3,39,16.5c-0.5,0.2-0.4,0.7-0.4,1.1c-0.1,0.3-0.8,0.4-0.7,0.9c0,0.4-0.6,0.5-0.7,0.9
				c0,0-0.9,5.2-1.7,5.8c-0.2,0.2-0.9,1.5-1.5,2.1c-0.1,0.1-0.3,0-0.5,0.1c0,0.1,0,0.3,0,0.3c-0.1,0.2-0.6,1.1-0.9,1.2
				c-0.1,0.2-0.2,0.4-0.4,0.7c-0.1,0.3-1,1.3-1,1.9c0,1.2,0.1,1.1,0.1,1.1c0.3-0.1,0.2-0.5,0.3-0.9c0.6-0.6,1.1-1.3,1.7-1.8
				c0.1-0.1,0.1-0.2,0.2-0.3c0.3-0.2,0.4-1.4,0.5-1.6c0,0.1,0.2,0,0.3,0c0,0.4,0.2,1,0,1.3c-0.1,0-0.3,0-0.4,0
				c0.1,0.1,0.2,0.1,0.2,0.3c-0.1,0.1-0.2,0.3-0.3,0.4c0.1,0.3,0.2,0,0.3,0c0.3,0.1,0.4-0.3,0.7,0c0.3-0.4,0.9-0.7,1-1.2
				c0.3-0.3,0.3-0.6,0.5-1c0.1,0,0.1,0,0.1-0.1c0.3-0.3,0.5-0.6,1-0.7c0,0,0.1-0.1,0.1-0.2c-0.2-0.2-0.4,0.2-0.7,0.2
				c0.2-0.6,0.6-1.3,0.7-1.9c0.2-0.5,0.7-0.7,1.2-1c0.1-0.1,0.1-0.2,0.1-0.3c-0.2,0.3-0.6,0.3-0.9,0.4c-0.1-0.9,1.5-2.2,1.5-2.8
				c-0.1,0-0.1,0-0.2,0c-0.3,0.3-0.3,0.9-0.8,1c0.3-1.7,0.6-2.5,0.6-2.5l-0.1-0.1c-0.3-0.1-0.6,2.3-0.7,2.2
				c-0.4-0.2-0.1-0.9-0.4-1.2c-0.1,0-0.1,0.1-0.1,0.1s-0.2,0.4,0.2,1.3c-0.1,0.9-0.4,1.7-0.6,2.6l0.5-0.1c-0.1-0.3-0.1-0.6-0.2-0.9
				c0-0.3,0-0.5-0.1-0.7c-0.4,0.3-0.1,0.9,0,1.3c0,0.7-0.1,1.4-0.3,1.9c-0.1,0.1,0,0.3,0,0.4c-0.1,0.3-0.3,0.6-0.5,0.9
				c-0.6-0.5,0-1.8,0-1.9c0-0.3-0.3-0.2-0.4-0.5c-0.1-0.2,0.4-0.3,0.2-0.6c0-0.2,0.4-0.3,0.3-0.6c-0.2-0.6,0.5-1.4,0.5-2
				c-0.1-0.2,0.3,0.1,0.4-0.1c0-0.3-0.2-0.9,0.1-1.1c0.1-0.3-0.1-0.6,0.1-1c0.2-0.2,0.4-0.2,0.5-0.1c0.1,0.2,0,0.6,0.3,0.5
				c0.2-0.1,0.1-1.1,0.1-1.1s0.2-0.2,0.5-0.2c0.1,0,0.1,0.3,0.5,0.4c0.3,0.2,0.8,0.2,0.8,0.3c0,0.3-0.6,0.5-0.2,0.9
				c0,0,0.4,0,0.4,0.2c0.1,0.3-0.4,0.5-0.3,0.9c0,0.5-0.5,0.6-0.7,1c0,0.1,0.1,0.2,0.3,0.2c0.1,0,0.2,0,0.2,0.1c0,0.2,0,0.4-0.1,0.6
				c-0.1,0.1-0.4,0.1-0.4,0.3c-0.1,0.5-0.3,1.1-0.7,1.4c0,0-0.9,0.1-0.5,0.5c0.1,0.1,0.5-0.2,0.5,0c-1,1.6-1.3,2-1.3,2
				c-0.3,0.4-1,0.2-1,0.9C36.9,28.8,37.1,29,37,29.1 M37,30.4c0.3,0.5,0.3,1,0.3,1v0.3c0,0.1-0.4,0.1-0.4,0.1c0-0.1,0.2-0.2,0-0.3
				c-0.1,0-0.3,0.2-0.4,0.1c-0.1-0.1,0.2-0.2,0.2-0.3c0-0.1-0.7,0.4-0.7,0.3c0-0.2,0.8-0.5,0.6-0.6c-0.1-0.2-0.7,0.4-0.9,0.4l0,0
				C35.6,31.1,36,30.5,37,30.4 M38.3,31.8c0,0.3-1.9,1-1.9,1c-0.1,0,0,0.1-0.1,0.2c0,0.1,0.2,0.1,0.2,0.2c0,0.1-0.2,0.1-0.1,0.2
				c0.2,0.2-0.1,0.3-0.2,0.3c-0.1,0-0.3-0.6-0.4-0.7c0,0-0.1-0.1-0.1-0.2c-0.1-0.1-0.1-0.1,0-0.2c0.4,0,0.8-0.1,1.1-0.1
				C37,32.2,38,31.8,38.3,31.8 M30.4,34.3c0-0.3,1.8-0.7,2-0.9c0.4-0.2,0.6-0.4,0.8-0.7c0.2-0.4,0.2-0.7,0.3-1
				c0.2-0.3,0.8-0.7,1.6-1c0.1,0,0.5-0.2,0.2,0.3c-0.2,0.2-0.2,0.5-0.3,0.9c0,0.1,0.2,0.4,0.4,0.7c0,0.1,0.1,0.2,0.2,0.3
				c0.2,0.3,0.3,0.6,0.3,0.9c-0.2,0.2-3,1.9-3.6,2c-0.5,0.1-1.1,0-1.7-0.1c-0.1-0.3-0.2-0.6-0.2-0.6C30.3,34.9,30.3,34.6,30.4,34.3
				 M29.3,35.2c0.1-0.2,0.4-0.3,0.6-0.3c0.1,0,0.2,0.1,0.2,0.3s0,0.5-0.1,0.6c-0.1,0-0.3,0-0.4-0.1c0,0,0.1-0.3-0.3-0.2
				C29.2,35.4,29.2,35.3,29.3,35.2 M38.9,31.8c0,0,0.1-0.3,0.8,0c0,0.1,0.1,0.5,0.3,1c0,0,0.3,1.1,0.8,2.5c0.1,0.3-0.1,0.5-0.2,0.7
				c-1,0.9-4.9,3-5.3,3.3c-0.6,0.4-1.7,0.6-2.9,0.6c-3,0.1-7.1-0.5-7.7-1c0.8-1,0.5-1.9,0.5-2.1c-0.4-0.5-0.8-1.5-1-1.6l0.1-0.1
				c5.8,1.2,8,1.2,8.1,1.1c0.8,0,4.8-2.5,6.3-3.5c0.6-0.3,0.9-0.6,0.8-0.9C39.2,31.7,39,31.8,38.9,31.8 M29.4,41.3
				c0.1,0.1,0.3,0.4,0.5,0.7s0.4,0.6,0.6,0.6c0.1-0.1-0.3-0.4,0.1-0.5c0.5-0.1,0.5,1.2,1.8,0.7c0.3,0.3,1,0.2,1.4,0.3l-0.1,0.2
				c-0.9-0.1-1.9,0-2.7,0.4c-0.1,0.1,0,0.3-0.1,0.4c-0.2-0.2,0-0.5,0.1-0.7c0.1-0.2,0.6-0.1,0.3-0.3c0,0-0.2-0.2-1,0.6
				c-0.1-0.1-0.1-0.3-0.2-0.4c-0.6,0.1-0.8-0.6-1.4-0.6c-0.1-0.1,0.1-0.2,0-0.3c-0.3-0.2-0.6-0.3-0.9-0.4c-1-0.3-0.2-0.6-0.5-0.9
				c-1.7-0.5-1.5-0.9-1.5-0.9c0.1-0.3,0.3,0.1,0.5-0.1c-0.1-0.1-0.2-0.1-0.1-0.3c0.2-0.1,0.8,0.4,0.9,0.4c0.2-0.1-0.1-0.3,0.1-0.3
				c0.5-0.1,1.8,1.4,2.2,1.5C29.5,41.4,29.4,41.4,29.4,41.3C29.2,41.2,29.3,41.2,29.4,41.3 M24,38.7c-0.3-0.4,0.3-1.5-0.2-1.5
				c-0.1,0,0,0.2,0,0.3c-0.2,0.4-0.2,1-0.6,1.3c-0.1,0-0.1-0.1-0.1-0.2c0.1-0.4,0.3-0.9,0.3-1.3c-0.1,0-0.2-0.2-0.2,0.3
				c0,0.3-0.4,0.6-0.4,1c0,0.1-0.3,0.3-0.5,0.3c0-0.5,0.3-0.9,0.3-1.4c0.2-0.3,0.2,0.1,0.2,0.1c0.1-0.1,0.1-1.8-0.5-2.1
				c-0.1,0.1,0.4,0.9,0.2,1.5h-0.2c-0.2-1.1-0.5-1.6-0.8-1.9c-0.6-0.6-1.2-0.3-1.4-0.3c0.1-0.2,0.3-0.3,0.5-0.3s0.5,0,0.9,0.2
				c0.4,0.1,0.8,0.4,1,0.4c0,0,0.1-0.1,0-0.2c-0.1,0-0.1-0.1-0.1-0.2c0.7-0.3,2.5,2.5,2.1,3.3C24.5,38.4,24.4,38.6,24,38.7
				 M4.4,33.9C4.4,33.9,4.3,34,4.4,33.9c-0.4,0.5-0.6,0.5-0.8,0.4H3.5L3.7,34l0.2-0.3c0-0.1,0.2-0.4,0.2-0.4s0.1,0,0.2,0
				C4.5,33.5,4.5,33.7,4.4,33.9 M21.6,38.9c-1.3,0.1-8.8,1.4-9.5,1.4c-0.9,0.1-1.6,0-2.1-0.2c-0.6-0.2-6.7-3.4-7.4-4.6
				c-0.1-0.2-0.2-0.4-0.2-0.4l0.1,0.2l0.4,0.3L3,35.5c-0.3-0.1-0.2-0.3,0-0.6l0.4-0.4c0.1,0,0,0.3,0,0.5l-0.1,1l0.5,0.3l0.1-0.1
				c-0.1,0-0.1-0.1-0.1-0.2l0.1-1.3c0.3,0.1,0.6,0,0.8-0.3c0.1-0.1,0.1-0.2,0.1-0.3s0-0.3,0-0.3c0-0.2-0.2-0.4-0.3-0.4L4.1,33
				l-0.4-0.3l-0.1,0.1c0.2,0.1,0.1,0.3-0.1,0.6l-0.4,0.5l-0.5,0.6c-0.1,0.1-0.2,0.2-0.2,0.3V35c0-0.2,0-0.3,0-0.4
				c0.5-0.9,0.7-1.8,0.9-2.7c0.1-0.2,0.3-0.2,0.4-0.2c-0.1,0.1-0.1,0.2,0,0.3s1.3,0.9,2.6,1.6c2.3,1.3,5.1,2.9,5.2,2.8
				c0.4,0,2.4-0.3,4.6-0.7c2.1-0.3,4.4-0.6,4.9-0.6c0.2,0,0.4,0.3,0.6,0.6c0.3,0.7,0.6,1.9,0.7,2.5C22.2,39,21.6,38.9,21.6,38.9
				 M15.6,42.3c-0.1,0,0,0.1-0.1,0.1c-0.1,0.3-0.5,0.7-0.9,0.9c-0.3,0-0.5-0.2-0.6,0c0,0.3,0.3,0.1,0.4,0.3c0.2,0.5-0.3,0.7-0.4,0.9
				c0.1-1-0.9-1.1-1.3-1.2c0,0-0.9,0.3-0.8,0c0-0.3,0.8-0.5,1.3-0.7c0.1,0,0.1,0,0.2-0.1c0.3-0.7,1.1-1,1.8-1.3
				c0.2,0.1,0.7,0.3,1.1-0.3c-0.2-0.2,0.1-0.3,0.2-0.3s0,0.1,0,0.2c0.3,0,0.4-0.3,0.6-0.3c0.1,0,0.1,0.1,0.2,0.1
				c0.1,0.1,0.2-0.1,0.3,0C17.8,40.7,16.5,42,15.6,42.3 M5.3,31.9c0.2,0.2,0.6,0.3,1.1,0.5c0.3,0,0.6,0.1,1,0.1
				c-0.1,0.3-0.4,1.1-0.5,1.2c-0.2,0-0.4-0.1-0.5-0.2c-0.2-0.1-0.4-0.2-0.6-0.3c-0.1-0.1,0.2-0.2,0-0.3c0-0.1,0.1-0.1,0.1-0.1
				c0.3,0.1,0.3-0.1,0.2-0.1c-0.6-0.3-1.1-0.5-1.7-0.9C4.7,31.8,5,31.9,5.3,31.9 M6.1,30.4c0.1,0,0.2,0,0.2,0.1
				c0.3,0.1,0.4,0.2,0.6,0.4c0,0.1-0.2-0.1-0.4,0C6.4,31,7.1,31.4,7,31.6c0,0-0.4-0.3-0.4-0.2c-0.1,0.2-0.1,0.3-0.2,0.6H6.3
				c-0.2,0-0.4,0-0.7-0.1C5.6,31.4,5.9,30.8,6.1,30.4 M13.8,34.9c0.1,0,0.4,0.2,0.6,0.3c0.2,0.2,0.4,0.3,0.3,0.3
				c0.1,0.1-1,0.3-1.3,0.3c0.1-0.2,0.2-0.4,0.2-0.7C13.7,35.1,13.7,35.1,13.8,34.9 M12.7,33.4c-0.2-0.1-0.3-0.2-0.5-0.3
				c0.1-0.2,0-0.2-0.2-0.2c0,0.2-0.2,0.3-0.4,0.3c-0.1,0-0.3,0-0.3-0.1c0.1,0,0.3,0,0.3-0.2c0-0.1,0-0.3-0.1-0.3
				c-0.2,0.1-0.1,0.3-0.4,0.4C10.3,32.6,9.2,31,9,30.7c-0.2-0.2-0.4,0-0.7-0.1c-0.2,0-1.8-1.6-2.2-2c-3.2-3.2-3.3-4.7-3.3-6.2
				c0-0.4-0.1-1-0.1-1.4c0-0.1,0-0.3,0-0.4c0.1-0.2,0.6,0.3,0.7,0.4c0.8,0.9,1.7,3.1,2.1,4.2c0.1,0.1,0.1,0.3,0.2,0.4
				C5.8,26,5.9,26.3,6,26.8c-0.2-0.1-0.3-0.4-0.5-0.6c0-0.1-0.1,0-0.2,0C5.2,26,5.1,25.8,5,25.7c-0.8-1.4-1.4-2.9-1.7-4.4l-0.1-0.1
				c-0.2,0,0.1,1.3,0.7,2.6c-0.1,0-0.2-0.2-0.4-0.1c0,0.5,1.2,1.5,1.3,2v0.1c0.7,1,1.2,1.9,1.8,2.9c0.2,0.3,0.6,0.5,0.7,0.9
				c0.1,0.1,0.3,0,0.3,0.2c0.2,0.3,0.3,0.5,0.6,0.6c0.2,0,0.3,0.1,0.3-0.1c0-0.2-0.1-0.3-0.1-0.5C8.7,30,8.9,30.1,9,30.1L9.4,30
				c0.1,0.2-0.1,0.4-0.1,0.6c0.4,0.4,1.4,1.8,1.5,1.6c0.3-0.3,0.5,0.4,0.7,0c0.1-0.2,0-0.3-0.2-0.4c-0.6,0.2-0.6-0.6-0.9-0.9
				c-0.3-0.6-0.4-1.3-0.9-1.8C9,28.5,8.6,27.7,8,27.2c-0.1-0.1,0-0.3,0.2-0.3c0.3,0,0.2,0.6,0.6,0.6c0.2,0,0.1-0.5,0.3-0.6
				c-0.1,0.6,0.5,2,1.4,2.6c0.1,0.1,0.2,0.2,0.2,0.3s-0.1,0-0.2,0c-0.1,0.2,0.2,0.3,0.2,0.4c0,1,2.8,3.9,5,4.3
				c0.1,0.1,0.1,0.1,0.2,0.2c0.2,0.1,0.5,0.1,0.4,0.4c0.1,0,0.2,0.1,0.2,0.3c-0.3,0.1-0.5,0.1-0.7,0c-0.3,0-0.5-0.1-0.7-0.2
				C15.1,35.1,12.9,33.5,12.7,33.4 M6,25c0.1,0,0.3,0.3,0.5,0.6c0.1,0.2,0.2,0.4,0.3,0.6v0.6H6.7c-0.1-0.4-0.3-0.9-0.4-1.3
				C6.2,25.4,6.1,25.2,6,25 M5.6,16c0,0.4,0.1,0.9-0.2,1.3c-0.2,0.3,0,0.7-0.3,1.1c0-0.6,0.1-1.6,0.3-2.3c0,0,0.1-0.3,0.8-2.3
				c0.3,0.5-0.2,1.7-0.4,1.8C5.7,15.7,5.6,15.8,5.6,16 M5,20.5c-0.4,0.1-0.7-0.7-0.7-0.7c-0.9-2.9-1.1-6.5,0.7-9.1
				c0,0,0.9-1.8,1.6-2.5c0.1,0,0.1,0.1,0.1,0.2c0.1,0.6-0.2,2.1-0.3,2.2C6.2,11.5,5.3,15.1,5,16c-0.1,0.4-0.2,0.7-0.2,1.2
				c-0.2-0.2,0-0.4,0-0.6c-0.1-1.3,1-5.2,1.1-5.9c0.2-0.5,0.4-1.1,0.5-1.7L6.3,9c-0.1,0.5-0.4,1.1-0.6,1.6c-0.7,1.8-1.4,3.7-1.3,5.8
				c-0.3,1.1-0.2,2.3,0.2,3.3c0.9,0.9,0.5-0.5,0.7-1c0-0.3,0.4-0.6,0.3-1.1c0.1-0.6,0.2-1.1,0.5-1.6C6,16.1,6,16,5.9,15.9
				c0-0.1,0-0.2,0-0.3c0.4-0.2,0.6-1.5,0.9-1.5c0-0.1,0.1-0.3,0-0.4c-0.1,0-0.3,0.1-0.4-0.1c0.1-0.5,0-1.1,0.5-1.4c0,0,0-0.3,0.7-1
				c0,0.3-1.1,1.6-0.9,2.1c0,0.1,0.1,0,0.2,0c0.2-0.1,0.2-0.5,0.5-0.4c0,0.3-0.6,0.5-0.1,0.7c0.8-0.4,1-1.3,1-1.3
				c0.2-0.7,0.6-1.3,1-1.7c1-1.6,2.2-2.3,3-2.9c0.1-0.1,0.3-0.1,0.3,0.1c0,0.1-0.1,0.5-0.3,0.2c-0.6,0.4-1.7,1.9-2.3,2.6
				c0,0-0.3,0.1-1.8,2.5c-0.2,0.3-0.6,0.7-1,1c-0.1,0-0.2-0.1-0.2,0c0,0.1-0.7,1.8-1.2,3.4c-0.2,0.9-0.4,1.6-0.5,2.2
				c0,0.2-0.1,0.3,0.1,0.5C5.9,19.9,6,19.4,6.3,19c0.1,0,0.1,0,0.1,0c0,0.4-0.1,1.5-0.8,1.4c0,0.1,0,0.3,0,0.5
				c0,0.5,0.1,1.2,0.4,1.6c0,0.1,0.4,2.1,1,2.8c0.1,0.1,0.1,0.2,0,0.3c0,0,0,0.1-0.1,0.1c-0.1-0.1-0.2-0.1-0.2-0.2
				c-0.3-0.3-0.5-0.9-0.7-1.3c0-0.1,0.1-0.2,0.1-0.3c-0.2-0.2-0.3-0.2-0.4-0.4c-0.1-0.2,0.3-0.1,0.2-0.3c-0.1-0.2-0.6,0-0.6-0.3
				c0-0.6-0.1-1.3-0.3-1.9C5.1,20.8,5,20.6,5,20.5 M9.4,6c0.7-0.9,1.2-1.3,1.6-1.5c0,0,0.3-0.2,0.5-0.2v0.2c0,0.4-0.2,1-0.4,1.5
				c-0.7,1.7-2.2,3.7-3,4.8c-0.2,0.2-0.3,0.3-0.4,0.4c0-0.1,0.1-0.3,0.1-0.4C8.1,9.6,9.5,7.3,10.4,6c0.1-0.2,0.3-0.4,0.5-0.6
				c0.2-0.3,0.5-0.6,0.3-0.7c-0.2,0-0.4,0.3-0.5,0.5C10.5,5.3,10.2,5.6,10,6c-1,1.4-2.1,3.6-2.6,4.7c-0.1,0.2-0.1,0.4-0.2,0.5
				c-0.1,0.2-0.2,0.3-0.3,0.5c0.1-0.3,0.2-0.6,0.3-1C7.9,8.4,8.7,6.9,9.4,6 M13.3,4.5c2.1-1.9,5-2.6,5.2-2.5v0.1
				c-0.7,0.7-1.5,1.5-2.4,2c-0.2,0.1-0.4,0.3-0.6,0.3c-0.6,0.3-1.5,0.7-1.7,0.9c0,0-0.1,0-0.1-0.1c0,0,0.4-0.3,1-0.7
				c0.8-0.5,3-1.8,3.1-2c-1.2,0.5-2.4,1.3-3.5,2c-0.2,0.2-0.5,0.3-0.8,0.5c0,0,0-0.1-0.1-0.1S12.7,5.5,12.3,6
				c-0.1,0.2-0.3,0.3-0.4,0.4c0-0.1,0.1-0.3,0.2-0.4C12.1,5.8,12.6,5,13.3,4.5 M11.8,6.8c0-0.2,0.4-0.5,0.8-0.9
				c0.4-0.4,0.7-0.6,0.8-0.5c0,0.1-0.1,0.3-0.4,0.5c-0.2,0.2-0.6,0.4-0.7,0.5C12.3,6.6,11.8,6.9,11.8,6.8 M12.2,7.4
				c-0.1,0-0.9,0.6-0.9,0.5C11.3,7.8,12.5,7,12.2,7.4 M11.1,8.1c-0.7,0.6-1.6,1.7-2.2,2.6c0,0-0.6,0.9-1.1,1.6c0,0,0,0-0.1-0.1
				c0-0.1,0.4-0.7,1-1.5c0.9-1.3,2.2-3,2.4-3.4c0.1-0.1,0.3-0.1,0.4-0.2c-0.1,0.3-0.4,0.6-0.7,1C11,8,11,8,11.1,8.1 M19.3,3.5
				c-0.1,0.3-0.8,0.9-0.9,1c-0.5,0.4-1.5,1.1-2.3,1.5c-0.7,0.3-1.2,0.6-1.4,0.6c-0.1,0-0.6-0.1,0.2-0.6c0,0,0.1,0,0.2-0.1
				c0.5-0.2,1.7-1,2.6-1.5c0.5-0.3,1-0.5,1.2-0.6V3.6c-0.4,0.1-1,0.4-1.7,0.7c-0.9,0.4-1.8,1-2.7,1.5c-0.8,0.4-1.4,0.9-1.8,1.2
				l-0.1,0.1c0,0.1-0.2,0.1-0.3,0c0.1-0.2,0.3-0.2,0.5-0.3c0.2-0.2,0.6-0.5,1-0.9c0.8-0.6,1.7-1.2,2.4-1.5
				C16.7,4.2,19.2,3.1,19.3,3.5 M13.1,7.3c0-0.1,0-0.2,0.1-0.3c0.3-0.4,0.9-0.7,0.8-0.3c0,0.1-0.1,0.2-0.3,0.2
				C13.5,7.2,13.2,7.3,13.1,7.3 M11.2,18.9L11.2,18.9l4.3,1.6l1.4,0.5c0.1,0,0.1,0.1,0.1,0.2l-1.4,2.2l-1.7,2.7c0,0,0,0-0.1,0
				c-1.2-1.6-2-3.4-2.3-5.2C11.3,20.3,11.2,19.6,11.2,18.9 M8.5,25.9c0.1-0.1,0.2-0.2,0.2-0.3c0.1-0.1,0.2-0.2,0.3-0.3
				c0,0.1,0,0.2,0,0.3c0,0.3-0.1,0.5-0.2,1C8.6,26.8,8.3,26.1,8.5,25.9 M8.1,25.6c0,0,0.1-0.3,0.1-0.9l0.5-1
				c0.7,0.1-0.2,1.6-0.4,1.8c-0.1,0.1-0.2,0.2-0.2,0.2C8,25.8,8,25.7,8.1,25.6 M7.3,25.6c0.2-0.9,0.5-1.7,0.7-2
				c-0.1-0.3,0.7-1.6,1-1.9l0,0c0.1,1.5-1,2.5-1.3,3.7v0.1c-0.1,0.7-0.5,1.6-0.2,2.3C7.6,28,8,28,8.2,27.7c0.3,0.4,0.1,1,0.2,1.5
				H8.3c-0.3,0-0.3-0.9-0.4-1c-0.1,0-0.1,0.2-0.4,0C7,27.8,7,26.7,7.3,25.6 M7.7,23c0,0.2,0,0.4-0.2,0.4c-0.1,0-0.2,0-0.2-0.1
				C7.2,22.9,7.7,22.9,7.7,23 M8.4,17.4l-0.1,0.7l-1,0.2v1.9c0,0-0.3-0.1-0.5-0.1c-0.1-0.6,0-1,0-1c0.1-0.4,0.5-0.9,1-1.3
				c0.2-0.1,0.3-0.3,0.5-0.6c0.1-0.1,0.2-0.3,0.3-0.4L8.4,17.4z M10.7,10.8c-0.2,0.4-0.7,1-1.2,1.1c0.3-0.5,0.8-1.1,0.8-1.1
				c0.6-0.7,1.3-1.7,1.8-2.2l0.1-0.1C12.5,8.7,11.7,10.1,10.7,10.8 M12,10.7l-0.3,0.2c0,0,0-0.1,0-0.2c0.1-0.3,0.6-0.6,0.7-0.9
				l0.1,0.3L12,10.7z M6.9,17.4C7,15.1,10.7,11,11.4,11c0.6,0-1.3,3.9-2.6,5c-0.4,0.5-0.9,1-1.3,1.5c0,0.1-0.1,0.3-0.2,0.4
				c0,0-0.1,0.1-0.2,0.1c0-0.1,0-0.3,0.2-0.5c0.6-1.5,3-4.6,3.8-5.8c0,0,0.1-0.2-0.1-0.1c0,0-1.6,1.4-3.9,5.9l-0.3,0.6l-0.1,0.1
				C6.7,17.9,6.7,17.6,6.9,17.4 M6.2,17.4c0.3-1.8,1.2-3.2,1.6-3.3c0,0.3-0.2,0.5-0.4,0.7c-0.3,0.9-0.6,1.7-0.9,2.6
				c-0.1,0.4-0.2,1-0.3,1.4l0,0C6.1,18.2,6.2,17.8,6.2,17.4 M6,21c0.2,0,0.2,0,0.3-0.1c0.1-0.1,0.1-0.2,0.1-0.3c0.4,0,1,0,1.2,0.2
				l0,0c0.2,0.4,0.2,0.7,0.2,1.2c0.1,0.4-1.1,0.6-1.1,1c0,0.5,0.4,1,0.2,1.5c-0.1-0.5-0.6-1.1-0.6-1.6C6,22,6,21.3,6,21 M10.5,20.9
				c0.1-0.3,0.1-0.6,0-0.7V20c0,0-0.1,0.3-0.2,0.9c-0.2,1.5-0.3,4.6-0.2,6.2c0,0.2,0,1,0,1H9.9c-0.2-0.3-0.1-0.6-0.2-1
				c-0.1-0.4-0.2-1-0.3-1.5v-0.3c-0.4-0.6-0.1-2.9,0.4-4.4c0.2-0.7,0.5-1.3,0.7-1.3c0.3,0,0.5,0.6,0.6,1.3c0.2,1.2,0,2.9-0.3,3.2
				c-0.1,0.5-0.1,1.2-0.2,1.7c0,0.2,0.1,0.3-0.1,0.3c-0.1,0-0.1-0.2,0-0.3C10,25.5,10.4,22.4,10.5,20.9 M18.9,34.9
				c0,0,0,0.1-0.1,0.2c0,0-0.1,0-1-0.1c-0.4-0.1-1.1-0.6-1.3-0.5c-0.1,0-0.2,0-0.3-0.1c-0.6-0.2-1.4-0.7-1.6-1
				c-0.1,0,0.2-0.6,1.1-0.5c0.2,0,0.5,0.1,0.5,0.1C16.7,33.3,18.1,33.8,18.9,34.9 M29,32.3c-0.4,0-2.1,0.6-3.1,1.1
				c-0.4,0.1-0.7,0.3-0.8,0.3c-0.6,0.2-0.6,0.6-1.1,1c-0.4,0-0.7,0.1-1-0.2c-0.2-0.3-1-0.2-1.1-0.1c-0.2,0.1-0.3,0-0.5,0
				c-0.1-0.1-0.3-0.2-0.5-0.2c-0.4,0-1,0-1.2,0.4c-0.2,0.1-0.8,0.2-1.1-0.3C18,33.5,16.8,33,16,32.6c-0.3-0.1-0.6-0.2-0.7-0.2
				c-0.3,0-0.8,0-1.2,0.7c-2.5-1.4-2.8-3.5-2.8-3.5c-0.6-1.1-0.6-1.2-0.6-1.2l1-0.3l0.9,0.9l-0.4,0.9l2,1.4l0.8-0.6l1,0.5v1l2.4,0.7
				l0.5-0.9l1.2,0.2l0.2,1h2.5l0.2-1l1.2-0.2l0.5,0.9l2.4-0.7v-1l1-0.5l0.8,0.6l2-1.4L30.5,29l0.9-0.9l0.8,0.3c0,0,0.2,0.1-0.7,1.1
				c0,0-0.4,1.9-1.9,3.5C29.4,32.7,29.3,32.3,29,32.3 M24.6,34.8c0-0.3,0.3-0.5,0.5-0.6s1-0.4,1.7-0.7c0.7-0.2,2.3-1.2,2.4-0.3
				c0,0.1,0,0.3-0.1,0.3H29c-0.4,0-0.8,0.3-1.3,0.2c-0.3,0.1-1.5,1.2-2,1.3c-0.2,0.1-0.5,0.1-0.4-0.1C25.3,34.3,24.7,34.8,24.6,34.8
				 M36,19.3c0,0.1,0,0.6-0.3,0.6v-1.6c0,0,0.5,0,0.2,0.4C36,19.1,36,19.3,36,19.3 M34.1,24.7c0-0.3,0-0.5,0.2-0.7
				c0-0.1,0-0.1-0.1-0.2c-0.1,0-0.3,0.5-0.3,0.6c-0.2-0.3,0-0.7-0.2-1.1v-0.5c0.1-0.7,0.2-1.5-0.2-2c0-0.2-0.2-1-0.2-1.2
				c-0.1,0-0.1,0-0.1,0.1c0,0.2,0.2,1.1,0.2,1.3c-0.2-0.1-0.5-0.2-0.7-0.1c-0.1-0.2-0.2-0.4-0.2-0.6l-0.1-0.5
				c0.3-0.2,0.4-0.4,0.7-0.6c0.2,0,0.3,0.3,0.5,0.2c0.1,0,0.3-0.2,0.3,0c0.1,0.3-0.1,0.6-0.1,1v0.1l0.3-0.1c0.1,0.1,0.1,0.2,0.1,0.3
				c-0.2,0.5,0.5,1.1,0.1,1.4c-0.4,0.3-0.2,0.9-0.2,1c0.3,0,0.4-0.5,0.7-0.3c0.1,0.1,0.5,1.6-0.1,1.9c-0.4,0.3-0.2,0.9-0.6,1.2
				C33.9,25.5,34.1,24.8,34.1,24.7 M33.4,22c0.1,0,0,0.4,0,0.9c-0.1,0.1-0.1,0.2-0.1,0.2c-0.1,0-0.1-0.1-0.1-0.2
				C33.2,22.7,33.2,22,33.4,22 M31.7,20.3c-0.2,2-1.1,3.9-2.3,5.7c0,0,0,0-0.1,0L26.1,21c0,0,0-0.1,0-0.2l3.6-1.4l2-0.7v0.1
				C31.8,19.2,31.8,19.7,31.7,20.3 M32.4,22.2c0-0.1,0.2-0.1,0.1-0.2c-0.1-0.1,0-0.2-0.4-0.3c-0.3-0.1-0.2-0.5-0.1-0.6
				c0.1,0.1,0.3,0.2,0.5,0.1c0.3-0.1,0.5,0.3,0.4,0.4c-0.2,0.3,0.1,0.6-0.2,0.9c0,0.1,0,0.3,0,0.4c0.1,0.3,0.1,0.6-0.1,0.7
				c-0.3-0.2,0.1-0.5-0.2-0.7l0,0C32.3,22.6,32.4,22.3,32.4,22.2 M33.7,25.4c0,0.1,0,0.2,0,0.3c-0.5-0.2-0.4-0.5-0.9-0.5
				c-0.1,0-0.1,0.1,0,0.1c0.4,0.1,0.8,0.5,0.9,1c-0.1,0.1-0.2,0.2-0.4,0.2c-0.3-0.6-1-0.4-1-0.6c0-0.3,0-0.6,0.1-1
				c0.1-0.6,0.9-1,1-1.3c0.2,0.2,0.2,1.2,0.2,1.4C33.5,25,33.5,25.2,33.7,25.4 M36.5,21.1C36.4,21.2,36,21,35.8,21
				c-0.5,0.4-0.3,1-0.2,1.4c-0.2-0.1-0.6-0.3-0.7-0.4c-0.1-0.4,0.1-1,0.3-1.3s1.4,0.3,1.2-1.4v-0.1l0.1,0.1
				C36.9,19.8,36.6,20.6,36.5,21.1 M14.1,8.5L14.8,9l1.7-0.9V7.3L18,6.9l0.5,0.7l1.9-0.3l0.2-0.9h1.6l0.2,0.9l1.9,0.3L25,6.9
				l1.5,0.5v0.9l1.7,0.9l0.7-0.5l1.3,1l-0.4,0.9l1.1,1c0.2,0.9,0.4,1.4,0.4,1.4s0.3,0.9,1,0.7l-0.4,0.3c0.9,2.6,2.1,3.2,2.1,3.2
				l0.2,1.5l0.9,0.2v1.6c0,0-0.5,0.4-0.6,1.6c-0.3-1.3-0.4-1.5-0.4-1.5c-0.2-1.9-1.3-1.6-1.8-1.4c0,0-0.1,0.1-0.2,0.3v-0.5
				c0-0.1,0-0.2-0.1-0.3c-0.1-0.2-0.4-0.2-0.6-0.1l-2.7,1L26,20.5c0,0-0.1,0-0.2,0.1c-0.2,0.2-0.2,0.4,0,0.6l3.2,4.9
				c0.1,0.1,0.2,0.2,0.4,0.2c0.2,0,0.3-0.1,0.4-0.2c1.1-1.4,1.8-2.9,2.2-4.5c0,0.1,0.3,0.3,0.2,1.2c0.1,0.3,0.4,0.9,0,1.4
				c0,0.1-0.1,0.3-0.1,0.6c-0.1,0.3-0.1,0.7-0.2,0.9c-0.1,0.4,1.2,0.6,1.3,1l-0.9,1.2l-0.9-0.3L30,28.8l0.4,0.9l-1.3,1l-0.7-0.5
				l-1.7,0.9l0.1,0.9L25,32.2l-0.5-0.7l-1.9,0.3l-0.2,0.9h-1.6l-0.2-0.9l-1.9-0.3l-0.6,0.7l-1.5-0.5v-0.9L14.9,30l-0.7,0.5l-1.3-0.9
				l0.3-0.9l-1.3-1.3L11,27.8l-0.4-0.5c0.3-0.6,0.8-4.3,0.7-5c0.4,1.5,1.2,2.9,2.1,4.1c0,0.1,0.1,0.1,0.3,0.2c0.2,0,0.4,0,0.5-0.2
				l1.4-2.1l1.7-2.8c0.1,0,0.1-0.1,0.1-0.2c0.1-0.3-0.1-0.5-0.3-0.6l-1.5-0.6l-4.1-1.6c-0.1,0-0.3,0-0.4,0.1c-0.1,0-0.2,0.2-0.2,0.3
				v0.6c-0.1-0.2-0.5-0.3-0.7,0c-0.2,0.2-0.5,1-0.8,1.4c-0.3,0.4-0.4,0.7-0.5,0.6l-0.1-0.5l-0.1-0.3l-0.9-0.2v-1.6l0.9-0.2l0.2-1.2
				L9,16.7l-0.3-0.2c0.2-0.3,2.7-2.8,2.8-4.8l1.2-1.2l0.4-0.3l-0.3-0.9L14.1,8.5z M30.8,7.1c-0.1-0.1-0.2-0.2-0.2-0.3
				c-0.1-0.2-0.3-0.4-0.2-0.6c0.5-0.2-0.1-0.7,0.2-1.1c1.1-1,1.3-0.5,1.3-0.5c0.1,0.3,0.3,0.5,0.4,0.7C32.4,5.5,32.8,5,32.8,5
				c0.1,0.2,0.2,0.3,0.3,0.6c0.1,0.2,0.5,0.2,0.5,0.5c-0.1,0.3-0.4,0.3-0.1,0.6c0.1,0.1,0.1,0.3,0.4,0.3c0.2-0.1,0-0.6,0.4-0.5
				c0,0.1,0.1,0.2,0.1,0.3c0.1,0.2,0.2,0.3,0.5,0.5c0.4,0.2-0.3,0.7-0.2,1.1c0.2,0.3,0,0.9-0.2,1.2c-0.3,0.2-0.4-0.7-0.2-1.3
				c0,0,0-0.1-0.1-0.1c-0.2,0.1-0.1,0.4-0.3,0.6c-0.8-1.6-1.1-2.5-1.1-2.5c-0.2,0.1,0,0.3,0,0.5c-0.5-0.5-1-1.2-1.6-1.6
				c0-0.1,0,0-0.1,0c-0.2,0,0.6,0.9,1.1,1.5c-0.2,0-0.4-0.1-0.6,0C31.7,7.1,32,7,32.1,7.1c0.6,0.3,1,1,1.4,1.5v0.2
				c-0.2,0-0.5-0.3-0.7-0.1c0.1,0.2,0.3,0.2,0.5,0.3c0.5,0.3,0.9,0.9,1,1.4c-0.1,0.1-0.2,0.1-0.3,0.1c-0.2-0.3-0.5-0.3-0.6-0.6
				c-0.2-0.2-0.4-0.5-0.7-0.5c-0.1,0.1-0.4,0.2-0.5,0c-0.5-0.3,0-1-0.6-1.2C31.1,7.7,30.8,7.6,30.8,7.1 M31.2,8.7
				c-0.3-0.4-0.9-0.6-1.1-1.2C30,6.9,29.5,7,29.2,6.9l-0.1-0.1c-0.2-0.2-0.3-0.4-0.5-0.6c0.1-0.2,0.3-0.3,0.2-0.6
				c-0.4-0.3-0.3-1.5,0.8-1.3c0.3,0,0.5-0.2,0.8-0.1c0.1,0.1,0.7,0.3,0,0.7c-0.1,0-0.2-0.2-0.3,0c0.1,0.2,0.1,0.3-0.1,0.5
				c-0.3-0.2-0.6-0.5-1-0.6c0,0-0.1,0.1,0,0.1c0.3,0.3,1,0.4,1,1c-0.1,0.2-0.5-0.1-0.4,0.2c0.1,0.1,0.2,0,0.3,0.1
				c0,0.3,0.1,0.5,0.2,0.7c0.1,0.3,0.3,0.5,0.6,0.7c0.2,0.4,0.7,0.7,0.7,1.3C31.2,8.9,31.3,8.8,31.2,8.7 M27,3.8
				c-0.8-0.1-1.5-0.7-1.7-0.9l-0.1,0.3c-0.5-0.1-1.5-0.9-1.5-0.4c0,0.2,1.2,0.5,1.5,0.9c0.1,0,0.3-0.1,0.4,0c0,0.2-0.5,0-0.3,0.3
				c0.6,0,1.2,0.1,1.8,0.2c0.3,0.1-0.4,0.4-0.4,0.5c0,0.1,0.3,0,0.4-0.1c0.5-0.3,0.4,0,0.8-0.1c0.2,0,0.3,0,0.4,0.1
				c-0.1,0.3,0,0.6,0,1.1c-0.8,0-0.4-0.5-0.7-0.4c-0.3,0.1-0.6,0.1-1,0.2c-0.2-0.5-0.8-0.1-1.1-0.4c-0.2-0.4,0.4-0.1,0.4-0.3
				c-0.1-0.5-1.3-0.3-1.4-0.4c-0.2-0.3-0.2-0.7-0.7-0.7c-0.1,0-0.3-0.1-0.4-0.2c-0.3-0.3-0.1-1.1,0.3-1.1c0.2,0,0.5,0.5,0.7,0
				c0-0.1,0-0.3,0.2-0.4c0.5-0.1,0.6,0.6,1.1,0.4c0.3,0,0.3,0.5,0.6,0.4c0.2-0.2,0.3-0.3,0.5-0.2c0.3,0,0.4,0.3,0.6,0.4
				c0.2,0.2,0.6,0.1,0.8,0.3c0.1,0,0.2,0.1,0.1,0.3c0.2,0.3,0.8-0.3,0.7,0.3c-0.3,0.1-0.2,0.4-0.8,0.3c-0.5,0-1-0.6-1.3-1
				C26.7,3.4,27,3.7,27,3.8 M38,28.4c0.3-0.3,1.9-2.1,1.8-3.1c0.2-0.1,1.4-1.2,1.2-3.2c0.2-0.3,0.4-0.6,0.5-1c0.2-0.4,0-0.7,0-1.2
				c0-0.3-0.2-0.4-0.4-0.5c-0.3,0-1.4-1.3-2.1-0.6c0.9-1.7,1.1-2.3,1.1-2.3c0.1-0.6-0.2-1-0.4-1.3c0.2-0.6-0.2-1.7-0.4-2.3
				c0-0.1,0-0.2,0-0.3c-0.6-0.5-0.1-1.3-0.6-1.9c0-0.2-0.8-1.5-1.2-1.8c-0.2-0.2-0.5-0.4-0.7-0.6c0-0.3-0.4-0.3-0.7-0.3
				c-0.6-0.1-0.9-0.6-1-0.6c-0.7-0.9-1.7-1.9-2.3-2.3c-0.4-0.3-0.9-0.5-1.7-0.6c-1-0.7-1.7-0.7-1.8-0.9c-0.3-0.1-2.4-1.6-4-1.7
				c-2.6-0.2-2.5,1.3-2.5,1.7c0.7,1.3,1.5,1.4,1.5,1.4c0.5,0.1,0.9,0.6,1.4,0.9s2.1,0.7,2.3,0.9c0.3,0.1,0.4,0.3,0.5,0.5
				c0.2,0.3,0.3,0.5,0.7,0.5c0,0,0.2,0,1.9,1.8C30.8,9.7,31,9.8,31,9.8s0.3,0.1,0.3,1.2h-0.1l-0.9-0.9l0.4-0.9l-2-1.4l-0.8,0.6L27,8
				V7l-2.3-0.7l-0.6,0.9l-1.2-0.2l-0.2-1h-2.5l-0.2,1l-1.2,0.2l-0.5-0.9L15.9,7L16,8l-1,0.5l-0.8-0.6l-1.3,0.9c0,0,0.2-0.4,0.3-0.7
				c-0.2-0.3,0.2-0.5,0.4-0.5c0.4,0,0.8-0.2,1.1-0.4c0.1-0.1,1.8-0.7,2.4-1.2c0.3-0.2,0.7-0.4,0.9-0.5c0.5-0.2,0.9-0.5,1.2-1
				c0.3-0.3,0.5-0.6,0.7-1c0-0.1,0-0.3-0.1-0.3c-0.6-0.1-1.1,0.2-1.7,0.2L18,3.2c0.3-0.4,1.1-1.3,1.1-1.5c-0.2-0.3-0.6-0.1-1-0.1
				c-3.2,0.5-5.3,2.9-5.3,2.9c-0.4,0.3-0.8,0.7-0.9,1c0,0-0.2,0.1-0.2,0c0.1-0.4,0.1-0.7,0.1-1c0,0,0-0.4-0.1-0.5
				c-0.2-0.3-0.9,0.1-1.4,0.5C10,4.7,9.2,5.5,9,6C8.3,6.7,7.8,7.7,7.4,8.6c0,0.1,0,0.3-0.3,0.4c0-0.3,0-0.9-0.2-1.1
				C6.7,7.8,6.3,7.9,6.1,8.1c-0.3,0.4-1,1.3-1.7,2.7C3.8,12,3.1,13.9,3.1,16c0,2.5,1.5,4.9,1.5,5c0.1,0.1,0.1,0.3,0,0.4
				c-0.1-0.2-0.2-0.3-0.3-0.4c0,0-0.7-0.9-1.3-1.2c-0.3,0-0.4,0.2-0.5,0.4c0,0.2-0.1,0.4-0.1,0.7c0,1.7,0.4,4.4,1.2,5.1
				C4,27,7,30.2,8.2,30.8c1.1,0.5,1.5,1.6,2.4,2.5c0.2,0.1,0.9,0.5,1.8,0.6c0.2,0.1,0.9,0.2,1.1,0.7c-0.1,0.2-0.1,0.3-0.1,0.5
				c-0.1,0.3-0.2,0.5-0.4,0.9c-1,0.2-1.5,0.2-2.1-0.1C10,35.4,9,34.9,8.1,34.3c-1.3-0.6-0.8-0.7-0.6-1.1c0.2-0.5,0.6-1.1,0.5-1.7
				c-0.1-0.6-1.4-1.4-1.5-1.6c-0.3-0.1-0.5-0.2-0.6,0c-0.1,0.5-0.3,1-0.5,1.5c-1.1-0.6-2-0.4-2.4,0.1c0,0.3-0.8,2.5-1.1,3.2
				c-0.2,0.4,0.3,1.3,0.7,1.7c0.2,0.3,5.9,4.5,9.3,4.5c0.4,0,2.6-0.5,3.2-0.6c0,0,0.1,0,0.1,0.1c-0.5,0.5-1.5,0.6-1.9,1.4
				c-0.2,0.1-0.5,0.3-0.8,0.4c-0.4,0.2-0.8,0.4-1.3,0.5c-0.4,0.1-1,0.2-1,0.4c0.2,0.7,2.5,1.4,2.8,1.5c0.6,0.2,1.2,0,1.7-0.4
				c0.2-0.2,0.3-1,0.9-1c0.2-0.2,0.7-0.5,1.2-1c0.5-0.4,2.6-1.9,3-2c0.3-0.5,1-1,1.5-1.1l0.3,0.2h0.1c0.6,0,1.3,0.1,1.9-0.1
				c0.6,0.6,1.4,1.3,2.2,1.6c0.4,0.2,1.1,0.9,1.2,1c0.1,0.2,0.3,0.4,0.5,0.6c0.1,0.1,0.2,0.1,0.3,0l0.8,0.6c0.1,0,0.2,0.1,0.3-0.1
				c0.1,0,0.9,0.7,1.2,1c0.3-0.1,0.3,0.3,0.5,0.5c0.1,0.3,2.1,0.2,2.7-0.9c0.2-0.1,0.4,0.1,0.6-0.1c0.2-0.2,1.1-0.5,0.6-0.6
				c-0.4-0.1-0.7-0.4-1.2-0.3c-0.2-0.1-0.3-0.4-0.6-0.5c-0.3,0-1-0.3-1.1-0.3c-1.2-0.5-1.6-1.2-2.1-1.3c-0.1-0.1-0.1-0.3,0-0.3
				c0.2,0,1.6,0.1,2.8,0.1c0.5,0,0.9,0,1.2-0.1c3-0.6,5.9-3.1,6.5-3.4c0.5-0.4,1.2-1.3,1.2-1.6c0-0.6-0.6-2-0.9-2.8
				c-0.1-0.1-0.2-1.2-0.7-1.2c-0.5-0.5-1.5,0.2-1.8,0.1c0,0-0.1-0.1-0.1-0.3c-0.1-0.3-0.2-0.7-0.3-1.1c-0.8-0.3-0.3-0.4-0.1-0.6
				C37.8,29.3,37.4,28.6,38,28.4"/>
		</g>
		<g>
			<path class="st0" d="M38.1,17.8c0.4-0.1,0.2-1.5,0.3-1.9c0.1-0.2,0.2-0.4,0.1-0.5c-0.2,0-0.2,0.4-0.3,0.4c0-0.3-0.2-0.6-0.3-1.1
				c-0.2-0.6,0.4-1.9,0-2.1c0,1.1-0.2,1.1-0.2,1.1c-0.3-0.9-0.8-2.7-0.7-3.5h-0.1c-0.1,0.1,0,0.3-0.1,0.4c0,0,0,0-0.1,0
				c-0.1-0.2-0.2-0.4-0.3-0.6c-0.1,0-0.1,0.1-0.1,0.1c0.1,0.3,0.6,1.2,0.4,1.4c-0.1-0.2-0.3-0.4-0.4-0.4c0.2,0.6,1.4,2.2,1.1,2.6
				L37,13.1c-0.2-0.1-0.1,0.1,0,0.1c0.6,0.6,1,1.3,1.1,2.1v0.1c-0.1-0.2-0.3-0.3-0.5-0.5h-0.1c0,0.3,0.3,0.5,0.6,0.7
				C38.3,16.1,38.2,17.4,38.1,17.8"/>
		</g>
		<g>
			<path class="st0" d="M38.6,34.8l0.3,0.3l-0.4,0.3l-0.1-0.6l-0.2-0.4L38.6,34.8z M37.8,33.7l0.3,1.1l0.3,1c0.1,0.3,0.2,0.6,0,0.7
				l0.1,0.1l0.6-0.4L39,36.1c-0.1,0-0.2,0.1-0.3,0l-0.1-0.5l0.6-0.3l0.4,0.3c0.1,0.2,0,0.2-0.1,0.3v0.1l0.9-0.5h-0.1
				c0,0-0.1,0-0.2,0c-0.1,0-0.2-0.2-0.3-0.2l-0.4-0.3L38,33.7H37.8z"/>
		</g>
		<g id="SVGID_x5F_1_x5F_">
			<path class="st1" d="M28.7,37.3c0-0.3,0-0.6-0.3-0.6c-0.2,0-0.2,0-0.3,0.3l-0.3,1.6c-0.1,0.3-0.1,0.5,0.2,0.6l-0.1,0.1l-1.1-0.2
				v-0.2c0.3,0.1,0.3-0.1,0.4-0.4l0.4-1.6c0.1-0.3,0.1-0.3-0.1-0.3c-0.3-0.1-0.5,0.1-0.6,0.5h-0.1l0.2-0.7l2,0.4l-0.1,0.7h-0.2"/>
		</g>
		<g class="st2">
		</g>
		<g>
		</g>
		<g>
			<path class="st0" d="M29.1,38.3l0.2-0.5l0.2-0.4l0.1,0.6v0.4L29.1,38.3z M30.3,38.8l-0.1-0.4l-0.3-1.8h-0.1l-0.5,1.1l-0.4,1
				c-0.1,0.2-0.2,0.6-0.5,0.6v0.2h0.7v-0.1c-0.1,0-0.3,0-0.2-0.3l0.2-0.4l0.7,0.1l0.1,0.5c0,0.2-0.2,0.1-0.3,0.1v0.1l1,0.1v-0.1
				c0,0-0.1-0.1-0.2-0.1C30.3,39.1,30.3,38.9,30.3,38.8"/>
		</g>
		<g>
			<path class="st0" d="M33.8,38.6l-0.3-1.4c0-0.3-0.1-0.5,0.2-0.6v-0.1l-1.1,0.2l0.1,0.2c0.3-0.1,0.3,0.1,0.4,0.4l0.3,1.4
				c0.1,0.3,0.1,0.5-0.2,0.6v0.1l1.1-0.2L34.2,39C33.9,39.1,33.8,38.9,33.8,38.6"/>
		</g>
		<g id="SVGID_x5F_2_x5F_">
			<path class="st1" d="M32,39.3c-0.4,0-0.3-0.3-0.3-0.6v-1.3c0-0.3,0-0.5,0.3-0.5v-0.1h-1.1v0.1c0.3,0,0.3,0.2,0.3,0.5v1.4
				c0,0.3,0,0.5-0.3,0.5v0.2h1.9v-0.9h-0.1C32.6,39.1,32.4,39.3,32,39.3"/>
		</g>
		<g class="st2">
		</g>
		<g>
		</g>
	</g>
</g>
<g class="st2">
	<path class="st0" d="M62.5,9.1c0,0.2,0,0.4-0.1,0.6c0,0.2-0.1,0.3-0.1,0.3c0,0-0.1,0-0.1-0.1c0,0,0,0,0,0c0.1-0.3,0.1-0.5,0.1-0.8
		c0-0.5-0.1-0.8-0.4-1.1S61.4,7.6,61,7.6c-0.6,0-1.2,0.2-1.8,0.6c0.5,0.4,0.8,0.9,0.8,1.5c0,0.5-0.2,0.9-0.6,1.2
		c-0.4,0.3-0.8,0.5-1.3,0.5c-0.2,0-0.4,0-0.6-0.1c-0.2-0.1-0.3-0.2-0.3-0.2c0,0,0,0,0,0c0,0,0,0,0.1,0c0.2,0.1,0.4,0.2,0.7,0.2
		c0.4,0,0.8-0.2,1-0.5c0.3-0.4,0.4-0.8,0.4-1.3c0-0.4-0.2-0.8-0.5-1.1c-0.8,0.6-1.5,1.6-2.2,3.1c-0.4,0.9-0.8,1.5-1.2,1.9
		s-0.8,0.7-1.5,1.1c-0.7,0.4-1.4,0.5-2,0.5c-0.5,0-0.9-0.1-1.2-0.3c-0.3-0.2-0.5-0.5-0.5-0.8c0-0.2,0.1-0.3,0.2-0.5
		c0.1-0.1,0.2-0.2,0.4-0.2c0.2,0,0.3,0.1,0.3,0.4c0,0.1,0,0.2-0.1,0.3c-0.1,0.1-0.2,0.1-0.3,0.1c-0.2,0-0.3-0.1-0.3-0.3
		c0-0.1,0-0.1,0-0.1c-0.1,0-0.1,0.1-0.1,0.3c0,0.3,0.1,0.5,0.4,0.7c0.3,0.2,0.7,0.3,1.1,0.3c0.8,0,1.5-0.3,2.1-0.9
		c0.3-0.3,0.5-0.5,0.7-0.8c0.2-0.3,0.7-1,1.4-2.1c0.4-0.5,0.8-1.1,1.3-1.6c0.5-0.5,0.9-0.9,1.3-1.2c-0.6-0.5-1.4-0.7-2.5-0.7
		c-1.5,0-2.8,0.5-3.9,1.6c-0.9,0.9-1.4,1.7-1.4,2.5c0,0.4,0.1,0.7,0.4,1s0.6,0.4,1,0.4c0.7,0,1.5-0.3,2.2-1c0.8-0.7,1.2-1.4,1.2-2
		c0-0.5-0.3-0.8-0.8-0.8S54,9.5,53.4,10c-0.6,0.6-0.9,1.2-0.9,1.7c0,0.1,0,0.2,0.1,0.3s0.2,0.1,0.3,0.1c0.1,0,0.1,0,0.1,0
		c0,0,0,0-0.1,0c-0.2,0-0.3-0.1-0.4-0.2c-0.1-0.2-0.2-0.3-0.2-0.6c0-0.6,0.3-1.1,0.9-1.6c0.6-0.5,1.2-0.8,1.9-0.8
		c0.6,0,0.9,0.3,0.9,0.9c0,0.7-0.4,1.4-1.2,2.1s-1.6,1.1-2.3,1.1c-0.5,0-0.9-0.2-1.2-0.4c-0.3-0.3-0.4-0.7-0.4-1.2
		c0-1,0.6-1.9,1.7-2.8c1.1-0.8,2.4-1.3,3.8-1.3c1.1,0,1.9,0.2,2.7,0.7c0.7-0.4,1.3-0.6,1.9-0.6c0.5,0,0.9,0.1,1.2,0.4
		C62.4,8.2,62.5,8.6,62.5,9.1z"/>
	<path class="st0" d="M61.7,13c0,0-0.1,0.2-0.3,0.4c-0.3,0.3-0.5,0.5-0.8,0.5c-0.3,0-0.4-0.2-0.4-0.5c0-0.1,0-0.2,0.1-0.4
		c-0.2,0.2-0.4,0.4-0.6,0.6c-0.1,0.2-0.4,0.6-0.7,1.2c-0.2,0-0.3,0-0.3,0c0,0-0.1,0-0.3,0l0.9-1.4c0.4-0.7,0.7-1.2,0.7-1.3
		c0-0.1,0-0.2-0.1-0.2c-0.2,0-0.6,0.4-1.1,1.2c0,0.1-0.1,0.1-0.1,0.1c0,0,0,0,0,0c0,0,0,0,0,0l0.1-0.1c0.6-0.7,0.9-1.1,1.1-1.1
		c0.3,0,0.4,0.2,0.4,0.6c0,0.3-0.1,0.6-0.4,1.1c0.2-0.2,0.4-0.4,0.5-0.5c0.1-0.3,0.3-0.6,0.5-0.8c0.2-0.2,0.4-0.3,0.5-0.3
		c0.1,0,0.2,0,0.2,0.1c0,0.2-0.2,0.4-0.7,0.7c-0.1,0-0.2,0.1-0.4,0.2l-0.1,0.1c-0.1,0.2-0.1,0.3-0.1,0.4c0,0.3,0.1,0.5,0.3,0.5
		c0.3,0,0.6-0.2,0.9-0.7C61.6,13,61.6,12.9,61.7,13C61.7,12.9,61.7,12.9,61.7,13z"/>
	<path class="st0" d="M64.4,13c0,0,0,0.1-0.1,0.1l-0.2,0.3c-0.7,0.9-1.4,1.4-1.9,1.4c-0.3,0-0.5-0.1-0.6-0.3
		c-0.2-0.2-0.3-0.4-0.3-0.7c0-0.6,0.4-1.2,1.3-1.7c0.5-0.3,0.9-0.4,1.2-0.4c0.1,0,0.2,0,0.3,0.1c0.1,0.1,0.1,0.2,0.1,0.3
		c0,0.3-0.2,0.5-0.5,0.7s-0.9,0.4-1.7,0.5c-0.2,0.4-0.4,0.7-0.4,0.9c0,0.3,0.2,0.5,0.5,0.5c0.6,0,1.3-0.6,2.1-1.7
		C64.3,13,64.4,12.9,64.4,13C64.4,12.9,64.4,12.9,64.4,13z M63.9,12c0-0.1-0.1-0.2-0.2-0.2c-0.2,0-0.4,0.1-0.7,0.4
		c-0.3,0.3-0.6,0.6-0.9,1c0.5-0.1,1-0.3,1.3-0.6C63.8,12.4,63.9,12.2,63.9,12z"/>
	<path class="st0" d="M66.2,10.9c0,0.1-0.2,0.4-0.7,0.9c0,0.1,0,0.2,0,0.3c0,0.2,0.1,0.5,0.3,1c0.1,0.2,0.1,0.4,0.1,0.6
		c0,0.3-0.2,0.6-0.5,0.8c-0.3,0.2-0.7,0.4-1.1,0.4c-0.2,0-0.4-0.1-0.6-0.2c-0.1-0.1-0.2-0.3-0.2-0.6c0-0.3,0.1-0.5,0.3-0.8
		c0.2-0.3,0.4-0.4,0.6-0.4c0,0,0.1,0,0.1,0l0.4-0.5c0.1-0.2,0.3-0.4,0.5-0.6c0.1-0.2,0.2-0.5,0.3-0.6C65.9,10.9,66,10.8,66.2,10.9
		C66.2,10.8,66.2,10.8,66.2,10.9z M65.5,13c0-0.1,0-0.2,0-0.3s0-0.3,0-0.5c0-0.2,0-0.3,0-0.4c-0.2,0.3-0.5,0.6-0.9,1.1
		c0.1,0.1,0.1,0.1,0.1,0.2c0,0.2-0.2,0.4-0.5,0.4c-0.1,0-0.3,0.1-0.4,0.2c-0.1,0.1-0.2,0.2-0.2,0.4c0,0.1,0.1,0.3,0.2,0.4
		c0.1,0.1,0.2,0.1,0.4,0.1c0.3,0,0.6-0.2,0.9-0.5C65.3,13.8,65.5,13.4,65.5,13z"/>
	<path class="st0" d="M68.4,13C68.4,13,68.4,13,68.4,13l-0.3,0.4c-0.7,0.9-1.2,1.4-1.5,1.4c-0.2,0-0.3-0.1-0.4-0.2S66,14.3,66,14.1
		c0-0.2,0.1-0.5,0.4-0.9l0.8-1.4c0.1,0,0.2,0,0.3,0c0.1,0,0.2,0,0.4,0l-1.2,2c-0.2,0.3-0.3,0.5-0.3,0.7c0,0.2,0.1,0.2,0.3,0.2
		C66.9,14.7,67.5,14.1,68.4,13C68.3,12.9,68.3,12.9,68.4,13C68.4,12.9,68.4,12.9,68.4,13z M68.3,10.7c0,0.1-0.1,0.2-0.2,0.4
		c-0.1,0.1-0.2,0.2-0.3,0.2c-0.2,0-0.2-0.1-0.2-0.2c0-0.1,0.1-0.2,0.2-0.3s0.2-0.2,0.3-0.2C68.2,10.5,68.3,10.6,68.3,10.7z"/>
	<path class="st0" d="M73.3,9.2c-1.3,2.1-2.2,3.5-2.5,4.1c-0.4,0.6-0.5,1-0.5,1.1c0,0.2,0.1,0.2,0.2,0.2c0.3,0,0.9-0.6,1.7-1.7
		c0,0,0-0.1,0.1-0.1c0,0,0,0,0,0c0,0,0,0-0.1,0.1l-0.2,0.3c-0.7,0.9-1.2,1.4-1.5,1.4c-0.2,0-0.3-0.1-0.4-0.2
		c-0.1-0.1-0.2-0.3-0.2-0.5s0.1-0.4,0.2-0.7c-0.6,0.9-1.1,1.3-1.4,1.3c-0.2,0-0.3-0.1-0.5-0.2s-0.2-0.4-0.2-0.6
		c0-0.6,0.4-1.1,1.1-1.6c0.6-0.4,1-0.6,1.4-0.6c0.2,0,0.3,0.1,0.3,0.3c0,0.1,0,0.2-0.1,0.3l1.9-3.2c0.1,0,0.2,0.1,0.3,0.1
		C73,9.2,73.1,9.2,73.3,9.2z M70.7,12.1c0-0.2-0.1-0.3-0.3-0.3c-0.3,0-0.7,0.3-1.3,1c-0.5,0.6-0.8,1.2-0.8,1.6
		c0,0.2,0.1,0.4,0.3,0.4c0.3,0,0.8-0.5,1.5-1.5C70.5,12.7,70.7,12.3,70.7,12.1z"/>
	<path class="st0" d="M74.9,13c0,0,0,0.1-0.1,0.1l-0.2,0.3c-0.7,0.9-1.4,1.4-1.9,1.4c-0.3,0-0.5-0.1-0.6-0.3
		c-0.2-0.2-0.3-0.4-0.3-0.7c0-0.6,0.4-1.2,1.3-1.7c0.5-0.3,0.9-0.4,1.2-0.4c0.1,0,0.2,0,0.3,0.1c0.1,0.1,0.1,0.2,0.1,0.3
		c0,0.3-0.2,0.5-0.5,0.7s-0.9,0.4-1.7,0.5c-0.2,0.4-0.4,0.7-0.4,0.9c0,0.3,0.2,0.5,0.5,0.5c0.6,0,1.3-0.6,2.1-1.7
		C74.8,13,74.8,12.9,74.9,13C74.9,12.9,74.9,12.9,74.9,13z M74.4,12c0-0.1-0.1-0.2-0.2-0.2c-0.2,0-0.4,0.1-0.7,0.4
		c-0.3,0.3-0.6,0.6-0.9,1c0.5-0.1,1-0.3,1.3-0.6C74.3,12.4,74.4,12.2,74.4,12z"/>
	<path class="st0" d="M79.2,13c0,0.1-0.3,0.4-0.8,1c-0.4,0.5-0.8,0.8-1,0.8c-0.2,0-0.3-0.1-0.4-0.2s-0.2-0.3-0.2-0.5
		c0-0.2,0-0.3,0.1-0.4c0.1-0.1,0.2-0.4,0.5-0.8c0.3-0.4,0.4-0.7,0.4-0.8c0-0.1-0.1-0.2-0.2-0.2c-0.5,0-1.3,1-2.4,2.9
		c-0.2,0-0.3,0-0.3,0c-0.1,0-0.2,0-0.4,0l0.8-1.3c0.5-0.8,0.7-1.2,0.7-1.4c0-0.1,0-0.2-0.1-0.2c-0.2,0-0.5,0.4-1.1,1.2
		c0,0-0.1,0.1-0.1,0.1c0,0,0,0,0,0c0,0,0,0,0,0l0.1-0.1c0.5-0.7,0.9-1.1,1.1-1.1c0.1,0,0.2,0.1,0.3,0.2c0.1,0.1,0.1,0.2,0.1,0.4
		c0,0.2-0.1,0.5-0.4,1c0.4-0.6,0.7-1,1-1.2c0.2-0.2,0.4-0.3,0.6-0.3c0.2,0,0.3,0.1,0.4,0.2s0.2,0.3,0.2,0.5c0,0.2-0.2,0.6-0.5,1.1
		c-0.3,0.5-0.5,0.8-0.5,1c0,0.1,0.1,0.2,0.2,0.2C77.8,14.7,78.3,14.1,79.2,13C79.1,12.9,79.1,12.9,79.2,13
		C79.2,12.9,79.2,12.9,79.2,13z"/>
	<path class="st0" d="M82.4,11.8c0,0.1-0.2,0.3-0.5,0.5c-0.4,0.3-1,0.8-1.9,1.4c-0.1,0.1-0.3,0.2-0.5,0.3l0.2,0c0.2,0,0.3,0,0.5,0.2
		s0.2,0.3,0.3,0.5c0.2-0.1,0.5-0.4,0.8-0.7c0.4-0.4,0.6-0.7,0.8-0.9c0-0.1,0.1-0.1,0.1-0.1c0,0,0,0,0,0c0,0.1-0.2,0.3-0.6,0.8
		c-0.4,0.4-0.8,0.8-1.2,1.1v0.1c0,0.4-0.1,0.8-0.4,1.3s-0.6,0.8-1,1.1c-0.9,0.6-1.6,0.9-2.2,0.9c-0.4,0-0.6-0.2-0.6-0.5
		c0-0.4,0.3-0.8,0.9-1.2c0.3-0.2,1.1-0.6,2.3-1.2c0.2-0.1,0.5-0.2,0.7-0.3c0.1-0.2,0.1-0.3,0.1-0.5c0-0.3-0.1-0.4-0.4-0.4
		c-0.1,0-0.1,0-0.2,0l-0.1,0.1l-0.2,0.2c-0.3,0.3-0.6,0.5-0.6,0.5c-0.1,0-0.1,0-0.1-0.1c0-0.2,0.3-0.4,1-0.7c1-0.8,1.8-1.3,2.3-1.8
		l-0.1,0.1c-0.2,0.1-0.4,0.2-0.5,0.2c-0.1,0-0.3-0.1-0.5-0.2c-0.2-0.1-0.3-0.2-0.4-0.2c-0.2,0-0.6,0.3-1,0.8c0,0-0.1,0.1-0.1,0.1
		c0,0,0,0,0,0c0-0.1,0.2-0.3,0.5-0.6c0.4-0.4,0.7-0.6,1-0.6c0.1,0,0.3,0.1,0.7,0.4c0.1,0.1,0.2,0.1,0.3,0.1c0.1,0,0.1,0,0.2,0
		l0.1-0.1l0.2-0.2C82.2,11.8,82.2,11.7,82.4,11.8C82.4,11.7,82.4,11.7,82.4,11.8z M80,15c-0.1,0-0.6,0.3-1.5,0.7
		c-0.7,0.3-1.2,0.7-1.6,1s-0.6,0.7-0.6,0.9c0,0.3,0.2,0.4,0.5,0.4c0.5,0,1.1-0.3,1.8-1C79.3,16.5,79.7,15.8,80,15z"/>
	<path class="st0" d="M86,13c0,0.1-0.3,0.4-0.8,1c-0.4,0.5-0.8,0.8-1,0.8c-0.2,0-0.3-0.1-0.4-0.2c-0.1-0.1-0.2-0.3-0.2-0.5
		c0-0.2,0.1-0.4,0.2-0.6c-0.4,0.5-0.6,0.8-0.8,1s-0.4,0.3-0.6,0.3c-0.2,0-0.3-0.1-0.5-0.2s-0.2-0.4-0.2-0.6c0-0.7,0.5-1.3,1.5-1.8
		c0.4-0.2,0.8-0.4,1-0.4c0.2,0,0.3,0.1,0.3,0.3c0,0.1,0,0.1,0,0.2l0.3-0.5c0.1,0,0.2,0,0.3,0c0.1,0,0.2,0,0.4,0l-1,1.6
		c-0.3,0.6-0.5,0.9-0.5,1.1c0,0.2,0.1,0.3,0.2,0.3c0.1,0,0.4-0.2,0.7-0.5C85.3,13.9,85.6,13.5,86,13C86,12.9,86,12.9,86,13
		C86,12.9,86,12.9,86,13z M84.6,12.1c0-0.2-0.1-0.3-0.2-0.3c-0.3,0-0.8,0.3-1.3,1c-0.5,0.6-0.8,1.2-0.8,1.6c0,0.2,0.1,0.3,0.3,0.3
		c0.2,0,0.7-0.4,1.3-1.2C84.3,12.8,84.6,12.3,84.6,12.1z"/>
	<path class="st0" d="M92.9,9.2c-1.3,2.1-2.2,3.5-2.5,4.1c-0.4,0.6-0.5,1-0.5,1.1c0,0.2,0.1,0.2,0.2,0.2c0.3,0,0.9-0.6,1.7-1.7
		c0,0,0-0.1,0.1-0.1c0,0,0,0,0,0c0,0,0,0-0.1,0.1l-0.2,0.3c-0.7,0.9-1.2,1.4-1.5,1.4c-0.2,0-0.3-0.1-0.4-0.2
		c-0.1-0.1-0.2-0.3-0.2-0.5s0.1-0.4,0.2-0.7c-0.6,0.9-1.1,1.3-1.4,1.3c-0.2,0-0.3-0.1-0.5-0.2s-0.2-0.4-0.2-0.6
		c0-0.6,0.4-1.1,1.1-1.6c0.6-0.4,1-0.6,1.4-0.6c0.2,0,0.3,0.1,0.3,0.3c0,0.1,0,0.2-0.1,0.3l1.9-3.2c0.1,0,0.2,0.1,0.3,0.1
		C92.6,9.2,92.7,9.2,92.9,9.2z M90.3,12.1c0-0.2-0.1-0.3-0.3-0.3c-0.3,0-0.7,0.3-1.3,1s-0.8,1.2-0.8,1.6c0,0.2,0.1,0.4,0.3,0.4
		c0.3,0,0.8-0.5,1.5-1.5C90.1,12.7,90.3,12.3,90.3,12.1z"/>
	<path class="st0" d="M94.5,13c0,0,0,0.1-0.1,0.1l-0.2,0.3c-0.7,0.9-1.4,1.4-1.9,1.4c-0.3,0-0.5-0.1-0.6-0.3s-0.3-0.4-0.3-0.7
		c0-0.6,0.4-1.2,1.3-1.7c0.5-0.3,0.9-0.4,1.2-0.4c0.1,0,0.2,0,0.3,0.1c0.1,0.1,0.1,0.2,0.1,0.3c0,0.3-0.2,0.5-0.5,0.7
		c-0.3,0.2-0.9,0.4-1.7,0.5c-0.2,0.4-0.4,0.7-0.4,0.9c0,0.3,0.2,0.5,0.5,0.5c0.6,0,1.3-0.6,2.1-1.7C94.4,13,94.4,12.9,94.5,13
		C94.5,12.9,94.5,12.9,94.5,13z M94,12c0-0.1-0.1-0.2-0.2-0.2c-0.2,0-0.4,0.1-0.8,0.4c-0.3,0.3-0.6,0.6-0.9,1c0.5-0.1,1-0.3,1.3-0.6
		C93.8,12.4,94,12.2,94,12z"/>
	<path class="st0" d="M97.3,9.2c-1.5,2.5-2.4,4-2.6,4.4c-0.2,0.4-0.4,0.7-0.4,0.9c0,0.2,0.1,0.2,0.2,0.2c0.3,0,0.9-0.6,1.7-1.7
		c0,0,0-0.1,0.1-0.1c0,0,0,0,0,0c0,0,0,0-0.1,0.1L96,13.4c-0.7,0.9-1.2,1.4-1.5,1.4c-0.2,0-0.3-0.1-0.4-0.2s-0.1-0.3-0.1-0.4
		c0-0.2,0-0.4,0.1-0.6c0.1-0.2,0.4-0.7,0.9-1.6c0.6-1.1,1.2-2,1.6-2.8c0.1,0,0.2,0,0.3,0C97.1,9.2,97.2,9.2,97.3,9.2z"/>
	<path class="st0" d="M107.5,8.7c0,0.2-0.2,0.5-0.5,0.7c0.3,0.4,0.4,0.8,0.4,1.2c0,0.1,0,0.1-0.1,0.1c0,0-0.1-0.1-0.1-0.2
		c0-0.4-0.1-0.7-0.4-1.1c-0.5,0.4-1.2,0.7-2.1,1c-0.9,0.3-1.7,0.4-2.4,0.4c-0.1,0-0.2,0-0.3,0c-0.6,0.8-0.9,1.6-0.9,2.3
		c0,0.5,0.2,0.9,0.5,1.2c0.3,0.3,0.7,0.4,1.3,0.4c1,0,1.9-0.5,2.7-1.5c0.5-0.6,0.7-1.2,0.7-1.7c0-0.3-0.1-0.5-0.3-0.7
		c-0.2-0.2-0.4-0.2-0.7-0.2c-0.4,0-0.9,0.2-1.4,0.7s-0.8,0.9-0.8,1.3c0,0,0,0.1,0,0.1c0,0,0,0,0,0c0.1-0.1,0.2-0.1,0.3-0.1
		c0.2,0,0.3,0.1,0.3,0.3c0,0.3-0.1,0.4-0.4,0.4c-0.2,0-0.4-0.1-0.4-0.4c0-0.5,0.3-1,0.8-1.5c0.5-0.5,1-0.8,1.6-0.8
		c0.7,0,1,0.4,1,1.1c0,0.8-0.4,1.5-1.1,2.1c-0.7,0.6-1.6,1-2.5,1c-0.6,0-1.2-0.2-1.6-0.6s-0.6-1-0.6-1.6c0-0.6,0.2-1.2,0.6-1.9
		c-1.6-0.3-2.3-0.9-2.3-1.8c0-0.6,0.3-1,0.9-1.4c0.6-0.4,1.3-0.6,2.2-0.6c1.2,0,2.4,0.4,3.6,1.2c0.2,0,0.4-0.1,0.6-0.1
		C107.1,8.2,107.5,8.3,107.5,8.7z M105.6,8.2c-1.1-0.6-2.2-0.9-3.5-0.9c-0.8,0-1.4,0.2-2,0.5c-0.6,0.4-0.9,0.8-0.9,1.3
		c0,0.9,0.7,1.4,2.2,1.7C102.4,9.5,103.8,8.7,105.6,8.2z M106.9,9.4c-0.3-0.4-0.6-0.8-1.1-1.1c-0.7,0.2-1.3,0.5-2,0.9
		c-0.6,0.4-1.2,1-1.6,1.5c0.7,0,1.6-0.1,2.5-0.4C105.6,10.1,106.3,9.8,106.9,9.4z M107.4,8.7c0-0.3-0.3-0.4-0.9-0.4
		c-0.2,0-0.4,0-0.6,0.1c0.4,0.3,0.8,0.6,1.1,1C107.2,9.1,107.4,8.9,107.4,8.7z"/>
	<path class="st0" d="M110.1,13c0,0.1-0.1,0.2-0.3,0.4c-0.3,0.3-0.6,0.5-0.9,0.5c-0.1,0-0.2,0-0.3-0.1c-0.5,0.7-0.9,1-1.3,1
		c-0.2,0-0.4-0.1-0.6-0.3c-0.2-0.2-0.2-0.4-0.2-0.6c0-0.6,0.4-1.1,1.1-1.6c0.5-0.4,0.9-0.5,1.3-0.5c0.3,0,0.5,0.2,0.5,0.5
		c0,0.4-0.2,0.9-0.7,1.5c0.1,0,0.2,0.1,0.2,0.1c0.2,0,0.3-0.1,0.6-0.2c0.2-0.2,0.4-0.3,0.5-0.5C110.1,13,110.1,12.9,110.1,13
		C110.1,12.9,110.1,12.9,110.1,13z M109.3,12.2c0-0.3-0.1-0.4-0.4-0.4c-0.3,0-0.7,0.3-1.2,0.9c-0.5,0.6-0.7,1.1-0.7,1.6
		c0,0.2,0.1,0.4,0.4,0.4c0.4,0,0.8-0.3,1.3-1c-0.1-0.1-0.2-0.2-0.2-0.4c0-0.2,0.1-0.4,0.2-0.5c0.1-0.2,0.3-0.3,0.4-0.3
		c0.1,0,0.1,0,0.1,0.1C109.2,12.5,109.3,12.4,109.3,12.2z"/>
	<path class="st0" d="M114.4,13c0,0.1-0.3,0.4-0.8,1c-0.4,0.5-0.8,0.8-1,0.8c-0.2,0-0.3-0.1-0.4-0.2s-0.2-0.3-0.2-0.5
		c0-0.2,0-0.3,0.1-0.4c0.1-0.1,0.2-0.4,0.5-0.8c0.3-0.4,0.4-0.7,0.4-0.8c0-0.1-0.1-0.2-0.2-0.2c-0.5,0-1.3,1-2.4,2.9
		c-0.2,0-0.3,0-0.3,0c-0.1,0-0.2,0-0.4,0l0.8-1.3c0.5-0.8,0.7-1.2,0.7-1.4c0-0.1,0-0.2-0.1-0.2c-0.2,0-0.5,0.4-1.1,1.2
		c0,0-0.1,0.1-0.1,0.1c0,0,0,0,0,0c0,0,0,0,0,0l0.1-0.1c0.5-0.7,0.9-1.1,1.1-1.1c0.1,0,0.2,0.1,0.3,0.2c0.1,0.1,0.1,0.2,0.1,0.4
		c0,0.2-0.1,0.5-0.4,1c0.4-0.6,0.7-1,1-1.2c0.2-0.2,0.4-0.3,0.6-0.3c0.2,0,0.3,0.1,0.4,0.2s0.2,0.3,0.2,0.5c0,0.2-0.2,0.6-0.5,1.1
		c-0.3,0.5-0.5,0.8-0.5,1c0,0.1,0.1,0.2,0.2,0.2C113,14.7,113.6,14.1,114.4,13C114.4,12.9,114.4,12.9,114.4,13
		C114.4,12.9,114.4,12.9,114.4,13z"/>
	<path class="st0" d="M116.3,10.9c0,0.1-0.2,0.4-0.7,0.9c0,0.1,0,0.2,0,0.3c0,0.2,0.1,0.5,0.3,1c0.1,0.2,0.1,0.4,0.1,0.6
		c0,0.3-0.2,0.6-0.5,0.8s-0.7,0.4-1.1,0.4c-0.2,0-0.4-0.1-0.6-0.2c-0.1-0.1-0.2-0.3-0.2-0.6c0-0.3,0.1-0.5,0.3-0.8
		c0.2-0.3,0.4-0.4,0.6-0.4c0,0,0.1,0,0.1,0l0.4-0.5c0.1-0.2,0.3-0.4,0.5-0.6c0.1-0.2,0.2-0.5,0.3-0.6
		C115.9,10.9,116,10.8,116.3,10.9C116.2,10.8,116.3,10.8,116.3,10.9z M115.5,13c0-0.1,0-0.2,0-0.3c0-0.1,0-0.3,0-0.5
		c0-0.2,0-0.3,0-0.4c-0.2,0.3-0.5,0.6-0.9,1.1c0.1,0.1,0.1,0.1,0.1,0.2c0,0.2-0.2,0.4-0.5,0.4c-0.1,0-0.3,0.1-0.4,0.2
		c-0.1,0.1-0.2,0.2-0.2,0.4c0,0.1,0.1,0.3,0.2,0.4c0.1,0.1,0.2,0.1,0.4,0.1c0.3,0,0.6-0.2,0.9-0.5C115.4,13.8,115.5,13.4,115.5,13z"
		/>
	<path class="st0" d="M118.4,13C118.4,13,118.4,13,118.4,13l-0.3,0.4c-0.7,0.9-1.2,1.4-1.5,1.4c-0.2,0-0.3-0.1-0.4-0.2
		c-0.1-0.1-0.2-0.3-0.2-0.4c0-0.2,0.1-0.5,0.4-0.9l0.8-1.4c0.1,0,0.2,0,0.3,0c0.1,0,0.2,0,0.4,0l-1.2,2c-0.2,0.3-0.3,0.5-0.3,0.7
		c0,0.2,0.1,0.2,0.3,0.2C117,14.7,117.5,14.1,118.4,13C118.4,12.9,118.4,12.9,118.4,13C118.4,12.9,118.4,12.9,118.4,13z M118.3,10.7
		c0,0.1-0.1,0.2-0.2,0.4s-0.2,0.2-0.3,0.2c-0.2,0-0.2-0.1-0.2-0.2c0-0.1,0.1-0.2,0.2-0.3c0.1-0.1,0.2-0.2,0.3-0.2
		C118.3,10.5,118.3,10.6,118.3,10.7z"/>
	<path class="st0" d="M122.1,13c0,0.1-0.2,0.3-0.6,0.7c-0.4,0.5-1,0.9-1.7,1.3l-0.3,0.5c-0.5,0.9-1,1.6-1.6,2.1
		c-0.6,0.5-1.1,0.7-1.5,0.7c-0.2,0-0.3,0-0.4-0.1c-0.1-0.1-0.2-0.2-0.2-0.3c0-0.7,0.8-1.5,2.5-2.2c0.4-0.2,0.6-0.3,0.7-0.3l0.9-1.7
		c-0.4,0.5-0.7,0.9-0.8,1s-0.3,0.2-0.5,0.2c-0.2,0-0.3-0.1-0.5-0.2c-0.1-0.2-0.2-0.4-0.2-0.6c0-0.6,0.4-1.2,1.2-1.7
		c0.5-0.3,1-0.5,1.3-0.5c0.2,0,0.3,0.1,0.3,0.4c0,0.1,0,0.1,0,0.2l0.3-0.5c0.1,0,0.2,0,0.3,0c0.1,0,0.2,0,0.4,0c0,0-0.2,0.3-0.5,0.8
		l-1.3,2.3c0.5-0.3,0.8-0.5,1.1-0.8s0.6-0.6,1-1.1C122,13,122.1,12.9,122.1,13C122.1,12.9,122.1,12.9,122.1,13z M119,15.3
		c-0.1,0-0.3,0.1-0.6,0.3c-1.6,0.8-2.4,1.5-2.4,2.2c0,0.1,0,0.2,0.1,0.3c0.1,0.1,0.2,0.1,0.3,0.1c0.4,0,0.8-0.2,1.1-0.6
		c0.4-0.4,0.8-1.1,1.4-2.2L119,15.3z M120.7,12.1c0-0.2-0.1-0.3-0.3-0.3c-0.3,0-0.8,0.3-1.3,1c-0.5,0.6-0.8,1.2-0.8,1.6
		c0,0.2,0.1,0.4,0.3,0.4c0.2,0,0.6-0.3,1.1-1C120.4,12.9,120.7,12.4,120.7,12.1z"/>
	<path class="st0" d="M124.9,9.2c-1.5,2.5-2.4,4-2.6,4.4c-0.2,0.4-0.4,0.7-0.4,0.9c0,0.2,0.1,0.2,0.2,0.2c0.3,0,0.9-0.6,1.7-1.7
		c0,0,0-0.1,0.1-0.1c0,0,0,0,0,0c0,0,0,0-0.1,0.1l-0.2,0.3c-0.7,0.9-1.2,1.4-1.5,1.4c-0.2,0-0.3-0.1-0.4-0.2s-0.1-0.3-0.1-0.4
		c0-0.2,0-0.4,0.1-0.6c0.1-0.2,0.4-0.7,0.9-1.6c0.6-1.1,1.2-2,1.6-2.8c0.1,0,0.2,0,0.3,0C124.7,9.2,124.8,9.2,124.9,9.2z"/>
	<path class="st0" d="M125.7,13C125.7,13,125.7,13,125.7,13l-0.3,0.4c-0.7,0.9-1.2,1.4-1.5,1.4c-0.2,0-0.3-0.1-0.4-0.2
		c-0.1-0.1-0.2-0.3-0.2-0.4c0-0.2,0.1-0.5,0.4-0.9l0.8-1.4c0.1,0,0.2,0,0.3,0c0.1,0,0.2,0,0.4,0l-1.2,2c-0.2,0.3-0.3,0.5-0.3,0.7
		c0,0.2,0.1,0.2,0.3,0.2C124.3,14.7,124.8,14.1,125.7,13C125.6,12.9,125.7,12.9,125.7,13C125.7,12.9,125.7,12.9,125.7,13z
		 M125.6,10.7c0,0.1-0.1,0.2-0.2,0.4s-0.2,0.2-0.3,0.2c-0.2,0-0.2-0.1-0.2-0.2c0-0.1,0.1-0.2,0.2-0.3c0.1-0.1,0.2-0.2,0.3-0.2
		C125.6,10.5,125.6,10.6,125.6,10.7z"/>
	<path class="st0" d="M128.9,13c0,0.1-0.1,0.2-0.3,0.4c-0.3,0.3-0.6,0.5-0.9,0.5c-0.1,0-0.2,0-0.3-0.1c-0.5,0.7-0.9,1-1.3,1
		c-0.2,0-0.4-0.1-0.6-0.3c-0.2-0.2-0.2-0.4-0.2-0.6c0-0.6,0.4-1.1,1.1-1.6c0.5-0.4,0.9-0.5,1.3-0.5c0.3,0,0.5,0.2,0.5,0.5
		c0,0.4-0.2,0.9-0.7,1.5c0.1,0,0.2,0.1,0.2,0.1c0.2,0,0.3-0.1,0.6-0.2c0.2-0.2,0.4-0.3,0.5-0.5C128.8,13,128.9,12.9,128.9,13
		C128.9,12.9,128.9,12.9,128.9,13z M128,12.2c0-0.3-0.1-0.4-0.4-0.4c-0.3,0-0.7,0.3-1.2,0.9c-0.5,0.6-0.7,1.1-0.7,1.6
		c0,0.2,0.1,0.4,0.4,0.4c0.4,0,0.8-0.3,1.3-1c-0.1-0.1-0.2-0.2-0.2-0.4c0-0.2,0.1-0.4,0.2-0.5c0.1-0.2,0.3-0.3,0.4-0.3
		c0.1,0,0.1,0,0.1,0.1C128,12.5,128,12.4,128,12.2z"/>
	<path class="st0" d="M135.7,9.2c-1.3,2.1-2.2,3.5-2.5,4.1c-0.4,0.6-0.5,1-0.5,1.1c0,0.2,0.1,0.2,0.2,0.2c0.3,0,0.9-0.6,1.7-1.7
		c0,0,0-0.1,0.1-0.1c0,0,0,0,0,0c0,0,0,0-0.1,0.1l-0.2,0.3c-0.7,0.9-1.2,1.4-1.5,1.4c-0.2,0-0.3-0.1-0.4-0.2
		c-0.1-0.1-0.2-0.3-0.2-0.5s0.1-0.4,0.2-0.7c-0.6,0.9-1.1,1.3-1.4,1.3c-0.2,0-0.3-0.1-0.5-0.2s-0.2-0.4-0.2-0.6
		c0-0.6,0.4-1.1,1.1-1.6c0.6-0.4,1-0.6,1.4-0.6c0.2,0,0.3,0.1,0.3,0.3c0,0.1,0,0.2-0.1,0.3l1.9-3.2c0.1,0,0.2,0.1,0.3,0.1
		C135.4,9.2,135.5,9.2,135.7,9.2z M133.1,12.1c0-0.2-0.1-0.3-0.3-0.3c-0.3,0-0.7,0.3-1.3,1c-0.5,0.6-0.8,1.2-0.8,1.6
		c0,0.2,0.1,0.4,0.3,0.4c0.3,0,0.8-0.5,1.5-1.5C133,12.7,133.1,12.3,133.1,12.1z"/>
	<path class="st0" d="M137.4,13c0,0,0,0.1-0.1,0.1l-0.2,0.3c-0.7,0.9-1.4,1.4-1.9,1.4c-0.3,0-0.5-0.1-0.6-0.3
		c-0.2-0.2-0.3-0.4-0.3-0.7c0-0.6,0.4-1.2,1.3-1.7c0.5-0.3,0.9-0.4,1.2-0.4c0.1,0,0.2,0,0.3,0.1c0.1,0.1,0.1,0.2,0.1,0.3
		c0,0.3-0.2,0.5-0.5,0.7c-0.3,0.2-0.9,0.4-1.7,0.5c-0.2,0.4-0.4,0.7-0.4,0.9c0,0.3,0.2,0.5,0.5,0.5c0.6,0,1.3-0.6,2.1-1.7
		C137.3,13,137.3,12.9,137.4,13C137.3,12.9,137.4,12.9,137.4,13z M136.9,12c0-0.1-0.1-0.2-0.2-0.2c-0.2,0-0.4,0.1-0.7,0.4
		c-0.3,0.3-0.6,0.6-0.9,1c0.5-0.1,1-0.3,1.3-0.6C136.7,12.4,136.9,12.2,136.9,12z"/>
	<path class="st0" d="M139.2,13C139.2,13,139.2,13,139.2,13l-0.3,0.4c-0.7,0.9-1.2,1.4-1.5,1.4c-0.2,0-0.3-0.1-0.4-0.2
		c-0.1-0.1-0.2-0.3-0.2-0.4c0-0.2,0.1-0.5,0.4-0.9l0.8-1.4c0.1,0,0.2,0,0.3,0c0.1,0,0.2,0,0.4,0l-1.2,2c-0.2,0.3-0.3,0.5-0.3,0.7
		c0,0.2,0.1,0.2,0.3,0.2C137.7,14.7,138.3,14.1,139.2,13C139.1,12.9,139.1,12.9,139.2,13C139.2,12.9,139.2,12.9,139.2,13z
		 M139.1,10.7c0,0.1-0.1,0.2-0.2,0.4c-0.1,0.1-0.2,0.2-0.3,0.2c-0.2,0-0.2-0.1-0.2-0.2c0-0.1,0.1-0.2,0.2-0.3
		c0.1-0.1,0.2-0.2,0.3-0.2C139,10.5,139.1,10.6,139.1,10.7z"/>
	<path class="st0" d="M156.7,9.3c0,0.1,0,0.3,0,0.4c0,0.1-0.1,0.2-0.1,0.2c0,0,0,0,0,0c0,0,0,0,0,0C156.6,9.7,156.6,9.5,156.7,9.3
		c-0.1-0.5-0.3-0.9-0.7-1.2c-0.4-0.3-0.8-0.5-1.4-0.5c-0.9,0-1.8,0.4-2.7,1.3c-0.4,0.3-0.7,0.7-0.9,1c-0.3,0.3-0.8,0.9-1.5,1.9
		c-1.1,1.5-2,2.4-2.7,2.7c-0.3,0.2-0.5,0.2-0.6,0.2c0,0,0,0,0,0c0,0,0,0,0.1-0.1c0.4-0.3,0.6-0.6,0.8-1.1c0.2-0.4,0.5-1.4,1-2.9
		c0.4-1.3,0.9-2.2,1.5-2.8c0,0,0,0,0-0.1c0,0-0.2,0.1-0.3,0.2c-0.5,0.5-1.2,1.5-1.9,2.9c-0.4,0.8-0.8,1.5-1.2,1.9
		c-0.3,0.4-0.7,0.8-1.2,1.1c-0.8,0.5-1.5,0.8-2.3,0.8c-0.5,0-0.9-0.1-1.2-0.3c-0.3-0.2-0.5-0.5-0.5-0.8c0-0.2,0.1-0.3,0.2-0.5
		s0.2-0.2,0.4-0.2c0.2,0,0.3,0.1,0.3,0.3c0,0.1,0,0.2-0.1,0.3c-0.1,0.1-0.2,0.1-0.3,0.1c-0.2,0-0.3-0.1-0.3-0.3c0-0.1,0-0.1,0-0.1
		c-0.1,0-0.1,0.1-0.1,0.3c0,0.3,0.1,0.5,0.4,0.7c0.3,0.2,0.7,0.3,1.1,0.3c0.9,0,1.9-0.5,2.8-1.5c0.4-0.4,0.7-0.8,0.9-1.1
		c0.3-0.4,0.8-1.2,1.5-2.4c0.3-0.5,0.7-1,1.1-1.4c0.4-0.4,0.7-0.6,0.8-0.6c0,0,0,0,0,0c0,0,0,0,0,0c-0.3,0.4-0.6,1.1-0.9,2.1
		c-0.4,1.5-0.8,2.6-1.1,3.2c-0.4,0.7-0.8,1.2-1.4,1.5c0,0,0,0,0,0c0,0,0,0,0,0c0.1,0,0.3-0.1,0.6-0.3c0.4-0.3,0.7-0.6,1.1-1
		c0.3-0.4,0.9-1.2,1.8-2.3c0.6-0.8,1.1-1.4,1.4-1.8c0.4-0.4,0.8-0.7,1.2-1c0.7-0.5,1.4-0.7,2-0.7c0.6,0,1.1,0.2,1.5,0.5
		C156.5,8.3,156.7,8.7,156.7,9.3z M148.2,9c0,0.1-0.1,0.2-0.3,0.5c-0.3,0.3-0.6,0.5-0.9,0.5c-0.2,0-0.4-0.1-0.5-0.2
		c-0.1-0.1-0.2-0.3-0.2-0.5c0-0.2,0.1-0.4,0.2-0.7c0.2-0.4,0.3-0.6,0.3-0.8c0-0.2-0.1-0.3-0.3-0.4s-0.4-0.2-0.7-0.2
		c-0.8,0-1.5,0.3-2.2,1c-0.7,0.6-1.1,1.3-1.1,2.1c0,0.4,0.1,0.7,0.3,0.9c0.2,0.2,0.5,0.4,0.9,0.4c0.3,0,0.6-0.1,1-0.3
		c0.3-0.2,0.6-0.4,0.8-0.7c0,0,0,0,0,0c0,0,0,0,0,0c0,0.1-0.1,0.2-0.3,0.4c-0.5,0.4-1,0.6-1.5,0.6c-0.4,0-0.7-0.1-0.9-0.4
		s-0.4-0.6-0.4-1c0-0.8,0.4-1.5,1.1-2.1c0.7-0.7,1.5-1,2.4-1c0.4,0,0.6,0.1,0.8,0.3c0.2,0.2,0.3,0.4,0.3,0.7c0,0.2-0.1,0.6-0.3,1
		c-0.1,0.2-0.1,0.3-0.1,0.4c0,0.3,0.1,0.4,0.4,0.4c0.2,0,0.4-0.1,0.6-0.3C147.8,9.4,148,9.2,148.2,9C148.1,8.9,148.1,8.9,148.2,9
		C148.2,8.9,148.2,8.9,148.2,9z M154.1,7.8c0,0,0,0.1-0.1,0.1c-0.4,0.2-0.8,0.5-1.1,1s-0.7,1.1-1.1,1.9c-0.6,1.3-1.1,2.2-1.6,2.7
		c-0.5,0.6-1,0.9-1.7,1.2c0.3,0,0.6,0.1,0.7,0.1c0.6,0,1-0.1,1.3-0.4c0.3-0.2,0.8-0.8,1.4-1.6c0,0,0.1-0.1,0.1-0.1c0,0,0,0,0,0
		c0,0-0.2,0.3-0.5,0.7c-0.4,0.5-0.8,0.9-1.1,1.1c-0.3,0.2-0.7,0.3-1.2,0.3c-0.3,0-0.6,0-1-0.1c-0.2,0.1-0.5,0.1-0.7,0.1
		c-0.2,0-0.3,0-0.3-0.1c0-0.1,0.1-0.1,0.4-0.1c0.1,0,0.3,0,0.6,0.1h0.1c0.4-0.1,0.7-0.4,1-0.6c0.3-0.3,0.6-0.8,0.9-1.5
		c0.7-1.4,1.3-2.4,1.8-3c0.4-0.6,0.9-1,1.5-1.5C153.8,7.9,154,7.8,154.1,7.8C154.1,7.8,154.1,7.8,154.1,7.8z"/>
	<path class="st0" d="M153.7,13C153.7,13,153.7,13,153.7,13l-0.3,0.4c-0.7,0.9-1.2,1.4-1.5,1.4c-0.2,0-0.3-0.1-0.4-0.2
		c-0.1-0.1-0.2-0.3-0.2-0.4c0-0.2,0.1-0.5,0.4-0.9l0.8-1.4c0.1,0,0.2,0,0.3,0c0.1,0,0.2,0,0.4,0l-1.2,2c-0.2,0.3-0.3,0.5-0.3,0.7
		c0,0.2,0.1,0.2,0.3,0.2C152.3,14.7,152.9,14.1,153.7,13C153.7,12.9,153.7,12.9,153.7,13C153.7,12.9,153.7,12.9,153.7,13z
		 M153.7,10.7c0,0.1-0.1,0.2-0.2,0.4s-0.2,0.2-0.3,0.2c-0.2,0-0.2-0.1-0.2-0.2c0-0.1,0.1-0.2,0.2-0.3c0.1-0.1,0.2-0.2,0.3-0.2
		C153.6,10.5,153.7,10.6,153.7,10.7z"/>
	<path class="st0" d="M158.1,13c0,0.1-0.3,0.4-0.8,1c-0.4,0.5-0.8,0.8-1,0.8c-0.2,0-0.3-0.1-0.4-0.2s-0.2-0.3-0.2-0.5
		c0-0.2,0-0.3,0.1-0.4c0.1-0.1,0.2-0.4,0.5-0.8c0.3-0.4,0.4-0.7,0.4-0.8c0-0.1-0.1-0.2-0.2-0.2c-0.5,0-1.3,1-2.4,2.9
		c-0.2,0-0.3,0-0.3,0c-0.1,0-0.2,0-0.4,0l0.8-1.3c0.5-0.8,0.7-1.2,0.7-1.4c0-0.1,0-0.2-0.1-0.2c-0.2,0-0.5,0.4-1.1,1.2
		c0,0-0.1,0.1-0.1,0.1c0,0,0,0,0,0c0,0,0,0,0,0l0.1-0.1c0.5-0.7,0.9-1.1,1.1-1.1c0.1,0,0.2,0.1,0.3,0.2c0.1,0.1,0.1,0.2,0.1,0.4
		c0,0.2-0.1,0.5-0.4,1c0.4-0.6,0.7-1,1-1.2c0.2-0.2,0.4-0.3,0.6-0.3c0.2,0,0.3,0.1,0.4,0.2s0.2,0.3,0.2,0.5c0,0.2-0.2,0.6-0.5,1.1
		c-0.3,0.5-0.5,0.8-0.5,1c0,0.1,0.1,0.2,0.2,0.2C156.6,14.7,157.2,14.1,158.1,13C158,12.9,158,12.9,158.1,13
		C158,12.9,158.1,12.9,158.1,13z"/>
	<path class="st0" d="M159.9,13C159.9,13,159.9,13,159.9,13l-0.3,0.4c-0.7,0.9-1.2,1.4-1.5,1.4c-0.2,0-0.3-0.1-0.4-0.2
		c-0.1-0.1-0.2-0.3-0.2-0.4c0-0.2,0.1-0.5,0.4-0.9l0.8-1.4c0.1,0,0.2,0,0.3,0c0.1,0,0.2,0,0.4,0l-1.2,2c-0.2,0.3-0.3,0.5-0.3,0.7
		c0,0.2,0.1,0.2,0.3,0.2C158.4,14.7,159,14.1,159.9,13C159.8,12.9,159.8,12.9,159.9,13C159.9,12.9,159.9,12.9,159.9,13z M159.8,10.7
		c0,0.1-0.1,0.2-0.2,0.4c-0.1,0.1-0.2,0.2-0.3,0.2c-0.2,0-0.2-0.1-0.2-0.2c0-0.1,0.1-0.2,0.2-0.3c0.1-0.1,0.2-0.2,0.3-0.2
		C159.7,10.5,159.8,10.6,159.8,10.7z"/>
	<path class="st0" d="M161.7,10.9c0,0.1-0.2,0.4-0.7,0.9c0,0.1,0,0.2,0,0.3c0,0.2,0.1,0.5,0.3,1c0.1,0.2,0.1,0.4,0.1,0.6
		c0,0.3-0.2,0.6-0.5,0.8s-0.7,0.4-1.1,0.4c-0.2,0-0.4-0.1-0.6-0.2c-0.1-0.1-0.2-0.3-0.2-0.6c0-0.3,0.1-0.5,0.3-0.8
		c0.2-0.3,0.4-0.4,0.6-0.4c0,0,0.1,0,0.1,0l0.4-0.5c0.1-0.2,0.3-0.4,0.5-0.6c0.1-0.2,0.2-0.5,0.3-0.6
		C161.4,10.9,161.5,10.8,161.7,10.9C161.7,10.8,161.7,10.8,161.7,10.9z M161,13c0-0.1,0-0.2,0-0.3c0-0.1,0-0.3,0-0.5
		c0-0.2,0-0.3,0-0.4c-0.2,0.3-0.5,0.6-0.9,1.1c0.1,0.1,0.1,0.1,0.1,0.2c0,0.2-0.2,0.4-0.5,0.4c-0.1,0-0.3,0.1-0.4,0.2
		c-0.1,0.1-0.2,0.2-0.2,0.4c0,0.1,0.1,0.3,0.2,0.4c0.1,0.1,0.2,0.1,0.4,0.1c0.3,0,0.6-0.2,0.9-0.5C160.8,13.8,161,13.4,161,13z"/>
	<path class="st0" d="M164,11.7L164,11.7l-0.7,0.1l-1.2,2c-0.1,0.2-0.2,0.4-0.2,0.6c0,0.2,0.1,0.2,0.3,0.2c0.3,0,0.9-0.6,1.7-1.7
		c0,0,0-0.1,0.1-0.1c0,0,0,0,0,0c0,0,0,0-0.1,0.1l-0.2,0.3c-0.7,0.9-1.2,1.4-1.5,1.4c-0.2,0-0.3-0.1-0.4-0.2
		c-0.1-0.1-0.2-0.3-0.2-0.5c0-0.2,0.1-0.5,0.3-0.8l0.9-1.5h-0.5l0.1-0.1h0.5l0.6-1c0.1,0,0.2,0,0.3,0c0.1,0,0.2,0,0.3,0l-0.6,1H164z
		"/>
	<path class="st0" d="M166.9,13c0,0-0.1,0.2-0.3,0.4c-0.3,0.3-0.5,0.5-0.8,0.5c-0.3,0-0.4-0.2-0.4-0.5c0-0.1,0-0.2,0.1-0.4
		c-0.2,0.2-0.4,0.4-0.6,0.6s-0.4,0.6-0.7,1.2c-0.2,0-0.3,0-0.3,0c0,0-0.1,0-0.3,0l0.9-1.4c0.4-0.7,0.7-1.2,0.7-1.3
		c0-0.1,0-0.2-0.1-0.2c-0.2,0-0.6,0.4-1.1,1.2c0,0.1-0.1,0.1-0.1,0.1c0,0,0,0,0,0c0,0,0,0,0,0l0.1-0.1c0.6-0.7,0.9-1.1,1.1-1.1
		c0.3,0,0.4,0.2,0.4,0.6c0,0.3-0.1,0.6-0.4,1.1c0.2-0.2,0.4-0.4,0.5-0.5c0.1-0.3,0.3-0.6,0.5-0.8s0.4-0.3,0.5-0.3
		c0.1,0,0.2,0,0.2,0.1c0,0.2-0.2,0.4-0.7,0.7c-0.1,0-0.2,0.1-0.4,0.2l-0.1,0.1c0,0.2-0.1,0.3-0.1,0.4c0,0.3,0.1,0.5,0.3,0.5
		c0.3,0,0.6-0.2,0.9-0.7C166.8,13,166.9,12.9,166.9,13C166.9,12.9,166.9,12.9,166.9,13z"/>
	<path class="st0" d="M168.8,13C168.8,13,168.7,13,168.8,13l-0.3,0.4c-0.7,0.9-1.2,1.4-1.5,1.4c-0.2,0-0.3-0.1-0.4-0.2
		c-0.1-0.1-0.2-0.3-0.2-0.4c0-0.2,0.1-0.5,0.4-0.9l0.8-1.4c0.1,0,0.2,0,0.3,0c0.1,0,0.2,0,0.4,0l-1.2,2c-0.2,0.3-0.3,0.5-0.3,0.7
		c0,0.2,0.1,0.2,0.3,0.2C167.3,14.7,167.9,14.1,168.8,13C168.7,12.9,168.7,12.9,168.8,13C168.7,12.9,168.8,12.9,168.8,13z
		 M168.7,10.7c0,0.1-0.1,0.2-0.2,0.4c-0.1,0.1-0.2,0.2-0.3,0.2c-0.2,0-0.2-0.1-0.2-0.2c0-0.1,0.1-0.2,0.2-0.3
		c0.1-0.1,0.2-0.2,0.3-0.2C168.6,10.5,168.7,10.6,168.7,10.7z"/>
</g>
<g>
	<rect x="10.2" y="38.9" class="st1" width="18" height="0.5"/>
</g>
<g class="st2">
	<path class="st0" d="M59.6,24.8c0,0.9-0.1,1.6-0.3,2.2c-0.2,0.6-0.6,1.1-1,1.5s-0.9,0.7-1.5,0.9c-0.6,0.2-1.3,0.3-2.2,0.3h-2.3
		c-0.2,0-0.3,0-0.4-0.1c-0.1-0.1-0.2-0.2-0.2-0.5v-8.3c0-0.2,0.1-0.4,0.2-0.5c0.1-0.1,0.2-0.1,0.4-0.1h2.4c0.8,0,1.6,0.1,2.1,0.3
		c0.6,0.2,1.1,0.5,1.5,0.9c0.4,0.4,0.7,0.9,0.9,1.4C59.5,23.4,59.6,24.1,59.6,24.8z M57.6,24.9c0-0.4-0.1-0.9-0.2-1.3
		c-0.1-0.4-0.3-0.7-0.5-1c-0.2-0.3-0.5-0.5-0.9-0.7c-0.4-0.2-0.8-0.2-1.4-0.2h-1v6.4h1c0.5,0,1-0.1,1.3-0.2s0.7-0.3,0.9-0.6
		c0.2-0.3,0.4-0.6,0.5-1S57.6,25.4,57.6,24.9z"/>
	<path class="st0" d="M63,20.7c0,0.4-0.1,0.6-0.2,0.8s-0.4,0.2-0.8,0.2c-0.4,0-0.7-0.1-0.8-0.2c-0.1-0.1-0.2-0.4-0.2-0.7
		c0-0.4,0.1-0.6,0.2-0.8c0.1-0.1,0.4-0.2,0.8-0.2c0.4,0,0.7,0.1,0.8,0.2C63,20.1,63,20.4,63,20.7z M62.9,29.5c0,0,0,0.1,0,0.1
		c0,0-0.1,0.1-0.2,0.1s-0.2,0-0.3,0.1c-0.1,0-0.3,0-0.4,0s-0.3,0-0.4,0c-0.1,0-0.2,0-0.3-0.1c-0.1,0-0.1-0.1-0.2-0.1
		c0,0,0-0.1,0-0.1v-6.5c0,0,0-0.1,0-0.1c0,0,0.1-0.1,0.2-0.1c0.1,0,0.2,0,0.3-0.1c0.1,0,0.3,0,0.4,0s0.3,0,0.4,0
		c0.1,0,0.2,0,0.3,0.1c0.1,0,0.1,0.1,0.2,0.1c0,0,0,0.1,0,0.1V29.5z"/>
	<path class="st0" d="M71.3,26.1c0,0.6-0.1,1.1-0.2,1.6c-0.1,0.5-0.3,0.9-0.5,1.2s-0.5,0.6-0.9,0.8s-0.8,0.3-1.2,0.3
		c-0.2,0-0.4,0-0.5-0.1c-0.2,0-0.3-0.1-0.5-0.2c-0.1-0.1-0.3-0.2-0.4-0.3s-0.3-0.2-0.5-0.4v3.1c0,0,0,0.1,0,0.1s-0.1,0.1-0.2,0.1
		c-0.1,0-0.2,0-0.3,0.1s-0.3,0-0.4,0s-0.3,0-0.4,0s-0.2,0-0.3-0.1c-0.1,0-0.1-0.1-0.2-0.1s0-0.1,0-0.1v-9.1c0,0,0-0.1,0-0.1
		c0,0,0.1-0.1,0.1-0.1c0.1,0,0.1,0,0.2-0.1c0.1,0,0.2,0,0.4,0c0.1,0,0.3,0,0.4,0c0.1,0,0.2,0,0.2,0.1c0.1,0,0.1,0.1,0.1,0.1
		c0,0,0,0.1,0,0.1v0.8c0.2-0.2,0.4-0.4,0.6-0.5c0.2-0.1,0.4-0.3,0.6-0.4c0.2-0.1,0.4-0.2,0.6-0.2c0.2,0,0.4-0.1,0.6-0.1
		c0.5,0,0.9,0.1,1.2,0.3c0.3,0.2,0.6,0.4,0.8,0.8c0.2,0.3,0.4,0.7,0.5,1.1S71.3,25.6,71.3,26.1z M69.4,26.2c0-0.3,0-0.5-0.1-0.8
		c0-0.3-0.1-0.5-0.2-0.7c-0.1-0.2-0.2-0.4-0.4-0.5c-0.2-0.1-0.4-0.2-0.6-0.2c-0.1,0-0.2,0-0.4,0.1c-0.1,0-0.2,0.1-0.4,0.2
		c-0.1,0.1-0.3,0.2-0.4,0.3s-0.3,0.3-0.4,0.5v2.2c0.3,0.3,0.5,0.6,0.7,0.8c0.2,0.2,0.5,0.3,0.7,0.3c0.2,0,0.4-0.1,0.6-0.2
		c0.2-0.1,0.3-0.3,0.4-0.5c0.1-0.2,0.2-0.4,0.2-0.7C69.4,26.7,69.4,26.5,69.4,26.2z"/>
	<path class="st0" d="M78.3,29.5c0,0.1,0,0.1-0.1,0.2c0,0-0.1,0.1-0.2,0.1c-0.1,0-0.3,0-0.5,0c-0.2,0-0.4,0-0.5,0
		c-0.1,0-0.2,0-0.2-0.1c0,0-0.1-0.1-0.1-0.2V29c-0.3,0.3-0.6,0.5-0.9,0.7c-0.3,0.2-0.7,0.2-1.1,0.2c-0.3,0-0.7,0-1-0.1
		c-0.3-0.1-0.5-0.2-0.8-0.4c-0.2-0.2-0.4-0.4-0.5-0.7s-0.2-0.6-0.2-0.9c0-0.4,0.1-0.7,0.2-1c0.1-0.3,0.4-0.5,0.7-0.7
		c0.3-0.2,0.7-0.3,1.1-0.4s0.9-0.1,1.5-0.1h0.6v-0.4c0-0.2,0-0.4-0.1-0.5c0-0.2-0.1-0.3-0.2-0.4C76.2,24.1,76,24,75.9,24
		c-0.2,0-0.4-0.1-0.6-0.1c-0.3,0-0.6,0-0.8,0.1c-0.2,0.1-0.5,0.1-0.6,0.2s-0.3,0.2-0.5,0.2c-0.1,0.1-0.2,0.1-0.3,0.1
		c-0.1,0-0.1,0-0.1-0.1c0,0-0.1-0.1-0.1-0.1c0-0.1,0-0.1-0.1-0.2c0-0.1,0-0.2,0-0.3c0-0.2,0-0.3,0-0.4s0.1-0.2,0.1-0.2
		c0.1-0.1,0.2-0.1,0.4-0.2c0.2-0.1,0.4-0.2,0.6-0.2c0.2-0.1,0.5-0.1,0.8-0.2c0.3,0,0.6-0.1,0.8-0.1c0.5,0,1,0,1.3,0.1
		c0.4,0.1,0.7,0.3,0.9,0.5c0.2,0.2,0.4,0.5,0.5,0.8s0.2,0.7,0.2,1.2V29.5z M76.5,26.7h-0.7c-0.3,0-0.6,0-0.8,0.1s-0.4,0.1-0.5,0.2
		s-0.2,0.2-0.3,0.3c-0.1,0.1-0.1,0.3-0.1,0.4c0,0.3,0.1,0.5,0.3,0.6c0.2,0.2,0.4,0.2,0.7,0.2c0.3,0,0.5-0.1,0.7-0.2
		c0.2-0.1,0.4-0.3,0.7-0.6V26.7z"/>
	<path class="st0" d="M84.4,23.5c0,0.2,0,0.3,0,0.4s0,0.2,0,0.3s0,0.1-0.1,0.1c0,0-0.1,0-0.1,0c0,0-0.1,0-0.1,0c0,0-0.1,0-0.2-0.1
		s-0.1,0-0.2-0.1c-0.1,0-0.2,0-0.2,0c-0.1,0-0.2,0-0.3,0.1c-0.1,0-0.2,0.1-0.3,0.2c-0.1,0.1-0.2,0.2-0.3,0.4
		c-0.1,0.1-0.2,0.3-0.4,0.5v4.1c0,0,0,0.1,0,0.1c0,0-0.1,0.1-0.2,0.1s-0.2,0-0.3,0.1c-0.1,0-0.3,0-0.4,0s-0.3,0-0.4,0
		c-0.1,0-0.2,0-0.3-0.1c-0.1,0-0.1-0.1-0.2-0.1c0,0,0-0.1,0-0.1v-6.5c0,0,0-0.1,0-0.1c0,0,0.1-0.1,0.1-0.1s0.1,0,0.2-0.1
		c0.1,0,0.2,0,0.4,0c0.2,0,0.3,0,0.4,0c0.1,0,0.2,0,0.2,0.1s0.1,0.1,0.1,0.1c0,0,0,0.1,0,0.1v0.8c0.2-0.2,0.3-0.4,0.5-0.6
		c0.2-0.2,0.3-0.3,0.4-0.4c0.1-0.1,0.3-0.2,0.4-0.2c0.1,0,0.3-0.1,0.4-0.1c0.1,0,0.1,0,0.2,0c0.1,0,0.1,0,0.2,0c0.1,0,0.1,0,0.2,0.1
		c0.1,0,0.1,0,0.1,0.1c0,0,0,0.1,0.1,0.1c0,0,0,0.1,0,0.1c0,0.1,0,0.1,0,0.2S84.4,23.4,84.4,23.5z"/>
	<path class="st0" d="M91.9,22.7c0.2,0,0.3,0,0.4,0.1c0.1,0.1,0.1,0.2,0.1,0.4v6.3c0,0,0,0.1,0,0.1c0,0-0.1,0.1-0.1,0.1
		s-0.2,0-0.3,0.1c-0.1,0-0.3,0-0.4,0c-0.2,0-0.3,0-0.5,0c-0.1,0-0.2,0-0.3-0.1s-0.1-0.1-0.1-0.1c0,0,0-0.1,0-0.1v-5.3h-2.9v3.1
		c0,0.4,0.1,0.6,0.2,0.8c0.1,0.2,0.3,0.3,0.6,0.3c0.1,0,0.2,0,0.3,0c0.1,0,0.1,0,0.2-0.1c0.1,0,0.1,0,0.2-0.1c0,0,0.1,0,0.1,0
		c0,0,0.1,0,0.1,0c0,0,0,0.1,0.1,0.1c0,0.1,0,0.1,0,0.2s0,0.2,0,0.3c0,0.2,0,0.4,0,0.5c0,0.1-0.1,0.2-0.1,0.2c0,0.1-0.1,0.1-0.2,0.1
		c-0.1,0-0.2,0.1-0.3,0.1c-0.1,0-0.2,0-0.4,0.1c-0.1,0-0.3,0-0.4,0c-0.4,0-0.7,0-1-0.1c-0.3-0.1-0.5-0.2-0.7-0.4
		c-0.2-0.2-0.3-0.4-0.4-0.7s-0.1-0.6-0.1-1v-3.3H85c-0.1,0-0.2-0.1-0.2-0.2c0-0.1-0.1-0.3-0.1-0.6c0-0.1,0-0.3,0-0.4s0-0.2,0.1-0.2
		c0-0.1,0.1-0.1,0.1-0.1c0,0,0.1,0,0.1,0h0.8v-1.5c0,0,0-0.1,0-0.1c0,0,0.1-0.1,0.1-0.1c0.1,0,0.2,0,0.3-0.1c0.1,0,0.3,0,0.4,0
		c0.2,0,0.3,0,0.5,0c0.1,0,0.2,0,0.3,0.1c0.1,0,0.1,0.1,0.1,0.1c0,0,0,0.1,0,0.1v1.5H91.9z M92.6,20.7c0,0.4-0.1,0.6-0.2,0.8
		c-0.2,0.1-0.4,0.2-0.8,0.2c-0.4,0-0.7-0.1-0.8-0.2s-0.2-0.4-0.2-0.7c0-0.4,0.1-0.6,0.2-0.8c0.1-0.1,0.4-0.2,0.8-0.2
		c0.4,0,0.7,0.1,0.8,0.2C92.5,20.1,92.6,20.4,92.6,20.7z"/>
	<path class="st0" d="M104.7,29.5c0,0,0,0.1,0,0.1c0,0-0.1,0.1-0.1,0.1s-0.2,0-0.3,0.1c-0.1,0-0.3,0-0.4,0c-0.2,0-0.3,0-0.5,0
		c-0.1,0-0.2,0-0.3-0.1c-0.1,0-0.1-0.1-0.1-0.1c0,0,0-0.1,0-0.1v-3.9c0-0.2,0-0.4-0.1-0.6c0-0.2-0.1-0.3-0.2-0.5
		c-0.1-0.1-0.2-0.2-0.3-0.3c-0.1-0.1-0.3-0.1-0.5-0.1c-0.2,0-0.4,0.1-0.7,0.3c-0.2,0.2-0.5,0.4-0.7,0.7v4.3c0,0,0,0.1,0,0.1
		c0,0-0.1,0.1-0.2,0.1s-0.2,0-0.3,0.1c-0.1,0-0.3,0-0.4,0c-0.2,0-0.3,0-0.4,0c-0.1,0-0.2,0-0.3-0.1c-0.1,0-0.1-0.1-0.2-0.1
		c0,0,0-0.1,0-0.1v-3.9c0-0.2,0-0.4-0.1-0.6c0-0.2-0.1-0.3-0.2-0.5c-0.1-0.1-0.2-0.2-0.3-0.3c-0.1-0.1-0.3-0.1-0.5-0.1
		c-0.2,0-0.4,0.1-0.7,0.3c-0.2,0.2-0.5,0.4-0.7,0.7v4.3c0,0,0,0.1,0,0.1c0,0-0.1,0.1-0.2,0.1c-0.1,0-0.2,0-0.3,0.1
		c-0.1,0-0.3,0-0.4,0c-0.2,0-0.3,0-0.4,0c-0.1,0-0.2,0-0.3-0.1c-0.1,0-0.1-0.1-0.2-0.1c0,0,0-0.1,0-0.1v-6.5c0,0,0-0.1,0-0.1
		c0,0,0.1-0.1,0.1-0.1s0.1,0,0.2-0.1c0.1,0,0.2,0,0.4,0c0.2,0,0.3,0,0.4,0c0.1,0,0.2,0,0.2,0.1c0.1,0,0.1,0.1,0.1,0.1
		c0,0,0,0.1,0,0.1v0.8c0.4-0.4,0.7-0.7,1.1-0.9c0.4-0.2,0.7-0.3,1.1-0.3c0.3,0,0.5,0,0.7,0.1c0.2,0.1,0.4,0.1,0.6,0.2
		c0.2,0.1,0.3,0.2,0.4,0.4s0.2,0.3,0.3,0.5c0.2-0.2,0.4-0.4,0.6-0.5c0.2-0.2,0.4-0.3,0.6-0.4c0.2-0.1,0.4-0.2,0.5-0.2
		c0.2,0,0.4-0.1,0.6-0.1c0.4,0,0.8,0.1,1.1,0.2s0.5,0.3,0.7,0.6c0.2,0.3,0.3,0.5,0.4,0.9c0.1,0.3,0.1,0.7,0.1,1.1V29.5z"/>
	<path class="st0" d="M112.5,26c0,0.2-0.1,0.4-0.2,0.5c-0.1,0.1-0.2,0.2-0.4,0.2h-4c0,0.3,0,0.5,0.1,0.8c0.1,0.2,0.2,0.4,0.3,0.6
		c0.1,0.2,0.3,0.3,0.6,0.4c0.2,0.1,0.5,0.1,0.8,0.1c0.3,0,0.6,0,0.8-0.1c0.2,0,0.5-0.1,0.6-0.2c0.2-0.1,0.3-0.1,0.4-0.2
		c0.1,0,0.2-0.1,0.3-0.1c0,0,0.1,0,0.1,0c0,0,0.1,0,0.1,0.1s0,0.1,0,0.2c0,0.1,0,0.2,0,0.3c0,0.1,0,0.2,0,0.3c0,0.1,0,0.1,0,0.2
		c0,0.1,0,0.1,0,0.1c0,0,0,0.1-0.1,0.1c0,0-0.1,0.1-0.3,0.1c-0.1,0.1-0.3,0.1-0.5,0.2c-0.2,0.1-0.5,0.1-0.8,0.1
		c-0.3,0-0.6,0.1-0.9,0.1c-0.6,0-1.1-0.1-1.5-0.2c-0.4-0.1-0.8-0.4-1.1-0.7s-0.5-0.7-0.7-1.1c-0.1-0.5-0.2-1-0.2-1.6
		c0-0.6,0.1-1.1,0.2-1.6c0.2-0.5,0.4-0.9,0.7-1.2c0.3-0.3,0.6-0.6,1.1-0.7c0.4-0.2,0.9-0.3,1.4-0.3c0.5,0,1,0.1,1.4,0.2
		s0.7,0.4,1,0.7c0.2,0.3,0.4,0.6,0.5,1s0.2,0.8,0.2,1.3V26z M110.7,25.5c0-0.5-0.1-0.9-0.3-1.2c-0.2-0.3-0.6-0.4-1-0.4
		c-0.2,0-0.4,0-0.6,0.1c-0.2,0.1-0.3,0.2-0.4,0.4c-0.1,0.1-0.2,0.3-0.3,0.5c-0.1,0.2-0.1,0.4-0.1,0.6H110.7z"/>
	<path class="st0" d="M120.3,29.5c0,0,0,0.1,0,0.1c0,0-0.1,0.1-0.1,0.1s-0.2,0-0.3,0.1c-0.1,0-0.3,0-0.4,0c-0.2,0-0.3,0-0.5,0
		c-0.1,0-0.2,0-0.3-0.1s-0.1-0.1-0.1-0.1c0,0,0-0.1,0-0.1v-3.7c0-0.3,0-0.6-0.1-0.7c0-0.2-0.1-0.3-0.2-0.5c-0.1-0.1-0.2-0.2-0.3-0.3
		c-0.1-0.1-0.3-0.1-0.5-0.1c-0.2,0-0.5,0.1-0.7,0.3c-0.2,0.2-0.5,0.4-0.7,0.7v4.3c0,0,0,0.1,0,0.1c0,0-0.1,0.1-0.2,0.1
		s-0.2,0-0.3,0.1c-0.1,0-0.3,0-0.4,0s-0.3,0-0.4,0c-0.1,0-0.2,0-0.3-0.1c-0.1,0-0.1-0.1-0.2-0.1c0,0,0-0.1,0-0.1v-6.5
		c0,0,0-0.1,0-0.1c0,0,0.1-0.1,0.1-0.1c0.1,0,0.1,0,0.2-0.1c0.1,0,0.2,0,0.4,0c0.2,0,0.3,0,0.4,0c0.1,0,0.2,0,0.2,0.1
		s0.1,0.1,0.1,0.1c0,0,0,0.1,0,0.1v0.8c0.4-0.4,0.7-0.7,1.1-0.9c0.4-0.2,0.8-0.3,1.2-0.3c0.4,0,0.8,0.1,1.1,0.2
		c0.3,0.1,0.6,0.3,0.7,0.6c0.2,0.3,0.3,0.5,0.4,0.9c0.1,0.3,0.1,0.7,0.1,1.2V29.5z"/>
	<path class="st0" d="M125.8,28.8c0,0.2,0,0.4,0,0.5c0,0.1-0.1,0.2-0.1,0.2c0,0-0.1,0.1-0.2,0.1c-0.1,0-0.2,0.1-0.3,0.1
		c-0.1,0-0.2,0-0.4,0.1c-0.1,0-0.3,0-0.4,0c-0.4,0-0.7,0-1-0.1c-0.3-0.1-0.5-0.2-0.7-0.4c-0.2-0.2-0.3-0.4-0.4-0.7s-0.1-0.6-0.1-1
		v-3.3h-0.8c-0.1,0-0.2-0.1-0.2-0.2c0-0.1-0.1-0.3-0.1-0.6c0-0.1,0-0.3,0-0.4s0-0.2,0.1-0.2c0-0.1,0.1-0.1,0.1-0.1c0,0,0.1,0,0.1,0
		h0.8v-1.5c0,0,0-0.1,0-0.1c0,0,0.1-0.1,0.1-0.1c0.1,0,0.2,0,0.3-0.1c0.1,0,0.3,0,0.4,0c0.2,0,0.3,0,0.5,0c0.1,0,0.2,0,0.3,0.1
		c0.1,0,0.1,0.1,0.1,0.1c0,0,0,0.1,0,0.1v1.5h1.4c0,0,0.1,0,0.1,0c0,0,0.1,0.1,0.1,0.1c0,0.1,0,0.1,0.1,0.2s0,0.2,0,0.4
		c0,0.3,0,0.5-0.1,0.6c0,0.1-0.1,0.2-0.2,0.2h-1.4v3.1c0,0.4,0.1,0.6,0.2,0.8c0.1,0.2,0.3,0.3,0.6,0.3c0.1,0,0.2,0,0.3,0
		c0.1,0,0.1,0,0.2-0.1c0.1,0,0.1,0,0.2-0.1c0,0,0.1,0,0.1,0c0,0,0.1,0,0.1,0c0,0,0,0.1,0.1,0.1c0,0.1,0,0.1,0,0.2
		S125.8,28.7,125.8,28.8z"/>
	<path class="st0" d="M133.6,26.1c0,0.6-0.1,1.1-0.2,1.5c-0.1,0.5-0.4,0.9-0.7,1.2c-0.3,0.3-0.7,0.6-1.1,0.8s-1,0.3-1.6,0.3
		c-0.6,0-1.1-0.1-1.5-0.2s-0.8-0.4-1.1-0.7s-0.5-0.7-0.6-1.1c-0.1-0.4-0.2-1-0.2-1.5c0-0.6,0.1-1.1,0.2-1.5c0.1-0.5,0.4-0.9,0.7-1.2
		c0.3-0.3,0.7-0.6,1.1-0.8c0.4-0.2,1-0.3,1.6-0.3c0.6,0,1.1,0.1,1.5,0.2c0.4,0.2,0.8,0.4,1.1,0.7c0.3,0.3,0.5,0.7,0.6,1.1
		S133.6,25.5,133.6,26.1z M131.7,26.2c0-0.3,0-0.6-0.1-0.9c-0.1-0.3-0.1-0.5-0.3-0.7c-0.1-0.2-0.3-0.4-0.5-0.5
		c-0.2-0.1-0.5-0.2-0.8-0.2c-0.3,0-0.5,0-0.7,0.2c-0.2,0.1-0.4,0.2-0.5,0.4c-0.1,0.2-0.2,0.4-0.3,0.7c-0.1,0.3-0.1,0.6-0.1,0.9
		c0,0.3,0,0.6,0.1,0.9c0.1,0.3,0.1,0.5,0.3,0.7s0.3,0.4,0.5,0.5c0.2,0.1,0.5,0.2,0.8,0.2c0.3,0,0.5,0,0.7-0.2
		c0.2-0.1,0.4-0.2,0.5-0.4s0.2-0.4,0.3-0.7C131.7,26.9,131.7,26.5,131.7,26.2z"/>
	<path class="st0" d="M144.7,29.5c0,0.1,0,0.1,0,0.1c0,0-0.1,0.1-0.1,0.1c-0.1,0-0.1,0-0.2,0.1s-0.2,0-0.4,0c-0.2,0-0.3,0-0.4,0
		s-0.2,0-0.2-0.1c-0.1,0-0.1-0.1-0.1-0.1c0,0,0-0.1,0-0.1v-0.7c-0.3,0.4-0.7,0.6-1.1,0.8c-0.4,0.2-0.8,0.3-1.2,0.3
		c-0.5,0-0.9-0.1-1.3-0.3c-0.3-0.2-0.6-0.5-0.8-0.8s-0.4-0.7-0.5-1.1c-0.1-0.4-0.1-0.9-0.1-1.4c0-0.6,0.1-1.1,0.2-1.6
		c0.1-0.5,0.3-0.9,0.5-1.2c0.2-0.3,0.5-0.6,0.9-0.8c0.4-0.2,0.8-0.3,1.2-0.3c0.4,0,0.7,0.1,1,0.2c0.3,0.1,0.6,0.4,0.9,0.7v-3.5
		c0,0,0-0.1,0-0.1s0.1-0.1,0.1-0.1c0.1,0,0.2,0,0.3-0.1s0.3,0,0.4,0c0.2,0,0.3,0,0.4,0s0.2,0,0.3,0.1c0.1,0,0.1,0.1,0.1,0.1
		s0,0.1,0,0.1V29.5z M142.8,25.1c-0.3-0.3-0.5-0.6-0.8-0.8c-0.2-0.2-0.5-0.3-0.8-0.3c-0.2,0-0.4,0.1-0.6,0.2
		c-0.2,0.1-0.3,0.3-0.4,0.5s-0.2,0.4-0.2,0.7c-0.1,0.2-0.1,0.5-0.1,0.8c0,0.3,0,0.5,0.1,0.8s0.1,0.5,0.2,0.7
		c0.1,0.2,0.2,0.4,0.4,0.5s0.4,0.2,0.6,0.2c0.1,0,0.2,0,0.4-0.1c0.1,0,0.2-0.1,0.4-0.2c0.1-0.1,0.3-0.2,0.4-0.3
		c0.1-0.1,0.3-0.3,0.4-0.5V25.1z"/>
	<path class="st0" d="M152.6,26c0,0.2-0.1,0.4-0.2,0.5c-0.1,0.1-0.2,0.2-0.4,0.2h-4c0,0.3,0,0.5,0.1,0.8c0.1,0.2,0.2,0.4,0.3,0.6
		c0.1,0.2,0.3,0.3,0.6,0.4c0.2,0.1,0.5,0.1,0.8,0.1c0.3,0,0.6,0,0.8-0.1c0.2,0,0.5-0.1,0.6-0.2c0.2-0.1,0.3-0.1,0.4-0.2
		c0.1,0,0.2-0.1,0.3-0.1c0,0,0.1,0,0.1,0c0,0,0.1,0,0.1,0.1s0,0.1,0,0.2c0,0.1,0,0.2,0,0.3c0,0.1,0,0.2,0,0.3c0,0.1,0,0.1,0,0.2
		c0,0.1,0,0.1,0,0.1c0,0,0,0.1-0.1,0.1c0,0-0.1,0.1-0.3,0.1c-0.1,0.1-0.3,0.1-0.5,0.2c-0.2,0.1-0.5,0.1-0.8,0.1
		c-0.3,0-0.6,0.1-0.9,0.1c-0.6,0-1.1-0.1-1.5-0.2c-0.4-0.1-0.8-0.4-1.1-0.7s-0.5-0.7-0.7-1.1c-0.1-0.5-0.2-1-0.2-1.6
		c0-0.6,0.1-1.1,0.2-1.6c0.2-0.5,0.4-0.9,0.7-1.2c0.3-0.3,0.6-0.6,1.1-0.7c0.4-0.2,0.9-0.3,1.4-0.3c0.5,0,1,0.1,1.4,0.2
		s0.7,0.4,1,0.7c0.2,0.3,0.4,0.6,0.5,1s0.2,0.8,0.2,1.3V26z M150.8,25.5c0-0.5-0.1-0.9-0.3-1.2c-0.2-0.3-0.6-0.4-1-0.4
		c-0.2,0-0.4,0-0.6,0.1c-0.2,0.1-0.3,0.2-0.4,0.4c-0.1,0.1-0.2,0.3-0.3,0.5c-0.1,0.2-0.1,0.4-0.1,0.6H150.8z"/>
	<path class="st0" d="M155.9,29.5c0,0,0,0.1,0,0.1c0,0-0.1,0.1-0.2,0.1s-0.2,0-0.3,0.1c-0.1,0-0.3,0-0.4,0s-0.3,0-0.4,0
		c-0.1,0-0.2,0-0.3-0.1c-0.1,0-0.1-0.1-0.2-0.1c0,0,0-0.1,0-0.1v-9.6c0,0,0-0.1,0-0.1s0.1-0.1,0.2-0.1c0.1,0,0.2,0,0.3-0.1
		c0.1,0,0.3,0,0.4,0s0.3,0,0.4,0c0.1,0,0.2,0,0.3,0.1c0.1,0,0.1,0.1,0.2,0.1s0,0.1,0,0.1V29.5z"/>
	<path class="st0" d="M159.6,29.5c0,0,0,0.1,0,0.1c0,0-0.1,0.1-0.2,0.1c-0.1,0-0.2,0-0.3,0.1c-0.1,0-0.3,0-0.4,0c-0.2,0-0.3,0-0.4,0
		c-0.1,0-0.2,0-0.3-0.1c-0.1,0-0.1-0.1-0.2-0.1c0,0,0-0.1,0-0.1v-9.6c0,0,0-0.1,0-0.1s0.1-0.1,0.2-0.1c0.1,0,0.2,0,0.3-0.1
		c0.1,0,0.3,0,0.4,0c0.2,0,0.3,0,0.4,0c0.1,0,0.2,0,0.3,0.1c0.1,0,0.1,0.1,0.2,0.1s0,0.1,0,0.1V29.5z"/>
	<path class="st0" d="M167,29.5c0,0.1,0,0.1-0.1,0.2c0,0-0.1,0.1-0.2,0.1c-0.1,0-0.3,0-0.5,0c-0.2,0-0.4,0-0.5,0
		c-0.1,0-0.2,0-0.2-0.1c0,0-0.1-0.1-0.1-0.2V29c-0.3,0.3-0.6,0.5-0.9,0.7c-0.3,0.2-0.7,0.2-1.1,0.2c-0.3,0-0.7,0-1-0.1
		c-0.3-0.1-0.5-0.2-0.8-0.4c-0.2-0.2-0.4-0.4-0.5-0.7s-0.2-0.6-0.2-0.9c0-0.4,0.1-0.7,0.2-1c0.1-0.3,0.4-0.5,0.7-0.7
		c0.3-0.2,0.7-0.3,1.1-0.4s1-0.1,1.5-0.1h0.6v-0.4c0-0.2,0-0.4-0.1-0.5c0-0.2-0.1-0.3-0.2-0.4c-0.1-0.1-0.2-0.2-0.4-0.2
		c-0.2,0-0.4-0.1-0.6-0.1c-0.3,0-0.6,0-0.8,0.1c-0.2,0.1-0.5,0.1-0.6,0.2s-0.3,0.2-0.5,0.2c-0.1,0.1-0.2,0.1-0.3,0.1
		c-0.1,0-0.1,0-0.1-0.1c0,0-0.1-0.1-0.1-0.1c0-0.1,0-0.1-0.1-0.2c0-0.1,0-0.2,0-0.3c0-0.2,0-0.3,0-0.4c0-0.1,0.1-0.2,0.1-0.2
		c0.1-0.1,0.2-0.1,0.4-0.2c0.2-0.1,0.4-0.2,0.6-0.2c0.2-0.1,0.5-0.1,0.8-0.2c0.3,0,0.6-0.1,0.8-0.1c0.5,0,1,0,1.3,0.1
		c0.4,0.1,0.7,0.3,0.9,0.5c0.2,0.2,0.4,0.5,0.5,0.8s0.2,0.7,0.2,1.2V29.5z M165.2,26.7h-0.7c-0.3,0-0.6,0-0.8,0.1
		c-0.2,0-0.4,0.1-0.5,0.2c-0.1,0.1-0.2,0.2-0.3,0.3c-0.1,0.1-0.1,0.3-0.1,0.4c0,0.3,0.1,0.5,0.3,0.6c0.2,0.2,0.4,0.2,0.7,0.2
		c0.3,0,0.5-0.1,0.7-0.2c0.2-0.1,0.4-0.3,0.7-0.6V26.7z"/>
</g>
<g class="st2">
	<path class="st0" d="M57,33c0,0.1,0,0.3,0,0.4c0,0.1,0,0.2-0.1,0.2c0,0.1-0.1,0.1-0.1,0.1s-0.1,0-0.1,0h-3.1v2.5h2.9
		c0,0,0.1,0,0.1,0s0.1,0.1,0.1,0.1c0,0.1,0,0.1,0.1,0.2c0,0.1,0,0.2,0,0.4s0,0.3,0,0.4c0,0.1,0,0.2-0.1,0.2c0,0.1-0.1,0.1-0.1,0.1
		c0,0-0.1,0-0.1,0h-2.9v3.5c0,0.1,0,0.1,0,0.1s-0.1,0.1-0.2,0.1c-0.1,0-0.2,0-0.3,0.1c-0.1,0-0.3,0-0.5,0c-0.2,0-0.3,0-0.5,0
		c-0.1,0-0.2,0-0.3-0.1c-0.1,0-0.1-0.1-0.2-0.1s0-0.1,0-0.1v-8.6c0-0.2,0.1-0.4,0.2-0.5c0.1-0.1,0.2-0.1,0.4-0.1h4.5
		c0,0,0.1,0,0.1,0c0,0,0.1,0.1,0.1,0.1c0,0.1,0,0.1,0.1,0.2C57,32.8,57,32.9,57,33z"/>
	<path class="st0" d="M64.7,41.5c0,0,0,0.1,0,0.1c0,0-0.1,0.1-0.1,0.1s-0.1,0-0.2,0.1c-0.1,0-0.2,0-0.4,0c-0.2,0-0.3,0-0.4,0
		c-0.1,0-0.2,0-0.2-0.1s-0.1-0.1-0.1-0.1c0,0,0-0.1,0-0.1v-0.8c-0.4,0.4-0.7,0.7-1.1,0.9c-0.4,0.2-0.8,0.3-1.2,0.3
		c-0.4,0-0.8-0.1-1.1-0.2s-0.6-0.3-0.7-0.6c-0.2-0.3-0.3-0.5-0.4-0.9c-0.1-0.3-0.1-0.8-0.1-1.2v-4c0,0,0-0.1,0-0.1
		c0,0,0.1-0.1,0.1-0.1c0.1,0,0.2,0,0.3-0.1c0.1,0,0.3,0,0.4,0c0.2,0,0.3,0,0.4,0c0.1,0,0.2,0,0.3,0.1s0.1,0.1,0.2,0.1
		c0,0,0,0.1,0,0.1v3.7c0,0.3,0,0.6,0.1,0.8s0.1,0.3,0.2,0.5c0.1,0.1,0.2,0.2,0.3,0.3c0.1,0.1,0.3,0.1,0.5,0.1c0.2,0,0.5-0.1,0.7-0.3
		c0.2-0.2,0.5-0.4,0.8-0.7v-4.3c0,0,0-0.1,0-0.1c0,0,0.1-0.1,0.1-0.1s0.2,0,0.3-0.1c0.1,0,0.3,0,0.4,0s0.3,0,0.4,0
		c0.1,0,0.2,0,0.3,0.1s0.1,0.1,0.1,0.1c0,0,0,0.1,0,0.1V41.5z"/>
	<path class="st0" d="M72.8,41.5c0,0,0,0.1,0,0.1c0,0-0.1,0.1-0.1,0.1s-0.2,0-0.3,0.1c-0.1,0-0.3,0-0.4,0c-0.2,0-0.3,0-0.5,0
		c-0.1,0-0.2,0-0.3-0.1S71,41.6,71,41.6c0,0,0-0.1,0-0.1v-3.7c0-0.3,0-0.6-0.1-0.7c0-0.2-0.1-0.3-0.2-0.5c-0.1-0.1-0.2-0.2-0.3-0.3
		c-0.1-0.1-0.3-0.1-0.5-0.1c-0.2,0-0.5,0.1-0.7,0.3c-0.2,0.2-0.5,0.4-0.7,0.7v4.3c0,0,0,0.1,0,0.1c0,0-0.1,0.1-0.2,0.1
		s-0.2,0-0.3,0.1c-0.1,0-0.3,0-0.4,0s-0.3,0-0.4,0c-0.1,0-0.2,0-0.3-0.1c-0.1,0-0.1-0.1-0.2-0.1c0,0,0-0.1,0-0.1v-6.5
		c0,0,0-0.1,0-0.1c0,0,0.1-0.1,0.1-0.1s0.1,0,0.2-0.1c0.1,0,0.2,0,0.4,0c0.2,0,0.3,0,0.4,0c0.1,0,0.2,0,0.2,0.1s0.1,0.1,0.1,0.1
		c0,0,0,0.1,0,0.1v0.8c0.4-0.4,0.7-0.7,1.1-0.9c0.4-0.2,0.8-0.3,1.2-0.3c0.4,0,0.8,0.1,1.1,0.2c0.3,0.1,0.6,0.3,0.7,0.6
		c0.2,0.3,0.3,0.5,0.4,0.9c0.1,0.3,0.1,0.7,0.1,1.2V41.5z"/>
	<path class="st0" d="M79.1,41c0,0.1,0,0.3,0,0.4c0,0.1,0,0.2-0.1,0.2S79,41.7,79,41.7c0,0-0.1,0-0.1,0h-4.3c-0.1,0-0.2,0-0.3-0.1
		s-0.1-0.2-0.1-0.4v-0.3c0-0.1,0-0.2,0-0.2c0-0.1,0-0.1,0-0.2c0-0.1,0.1-0.1,0.1-0.2c0-0.1,0.1-0.1,0.1-0.2l2.4-3.8h-2.3
		c-0.1,0-0.2-0.1-0.2-0.2s-0.1-0.3-0.1-0.6c0-0.1,0-0.3,0-0.4c0-0.1,0-0.2,0.1-0.2c0-0.1,0.1-0.1,0.1-0.1s0.1,0,0.1,0h4
		c0.1,0,0.1,0,0.2,0c0,0,0.1,0,0.1,0.1s0.1,0.1,0.1,0.2s0,0.2,0,0.3v0.4c0,0.1,0,0.2,0,0.3c0,0.1,0,0.1,0,0.2s0,0.1-0.1,0.2
		c0,0.1-0.1,0.1-0.1,0.2l-2.4,3.8h2.6c0,0,0.1,0,0.1,0s0.1,0.1,0.1,0.1c0,0.1,0,0.1,0.1,0.2C79.1,40.7,79.1,40.8,79.1,41z"/>
	<path class="st0" d="M82.5,32.7c0,0.4-0.1,0.6-0.2,0.8s-0.4,0.2-0.8,0.2c-0.4,0-0.7-0.1-0.8-0.2c-0.1-0.1-0.2-0.4-0.2-0.7
		c0-0.4,0.1-0.6,0.2-0.8c0.1-0.1,0.4-0.2,0.8-0.2c0.4,0,0.7,0.1,0.8,0.2C82.4,32.1,82.5,32.4,82.5,32.7z M82.4,41.5c0,0,0,0.1,0,0.1
		c0,0-0.1,0.1-0.2,0.1s-0.2,0-0.3,0.1c-0.1,0-0.3,0-0.4,0s-0.3,0-0.4,0c-0.1,0-0.2,0-0.3-0.1c-0.1,0-0.1-0.1-0.2-0.1
		c0,0,0-0.1,0-0.1v-6.5c0,0,0-0.1,0-0.1c0,0,0.1-0.1,0.2-0.1c0.1,0,0.2,0,0.3-0.1c0.1,0,0.3,0,0.4,0s0.3,0,0.4,0
		c0.1,0,0.2,0,0.3,0.1c0.1,0,0.1,0.1,0.2,0.1c0,0,0,0.1,0,0.1V41.5z"/>
	<path class="st0" d="M90.8,38.1c0,0.6-0.1,1.1-0.2,1.5c-0.1,0.5-0.4,0.9-0.7,1.2s-0.7,0.6-1.1,0.8s-1,0.3-1.6,0.3
		c-0.6,0-1.1-0.1-1.5-0.2s-0.8-0.4-1.1-0.7s-0.5-0.7-0.6-1.1c-0.1-0.4-0.2-1-0.2-1.5c0-0.6,0.1-1.1,0.2-1.5c0.1-0.5,0.4-0.9,0.7-1.2
		c0.3-0.3,0.7-0.6,1.1-0.8c0.4-0.2,1-0.3,1.6-0.3c0.6,0,1.1,0.1,1.5,0.2c0.4,0.2,0.8,0.4,1.1,0.7c0.3,0.3,0.5,0.7,0.6,1.1
		S90.8,37.5,90.8,38.1z M88.9,38.2c0-0.3,0-0.6-0.1-0.9c-0.1-0.3-0.1-0.5-0.3-0.7c-0.1-0.2-0.3-0.4-0.5-0.5C87.9,36,87.6,36,87.3,36
		c-0.3,0-0.5,0-0.7,0.2c-0.2,0.1-0.4,0.2-0.5,0.4c-0.1,0.2-0.2,0.4-0.3,0.7c-0.1,0.3-0.1,0.6-0.1,0.9c0,0.3,0,0.6,0.1,0.9
		c0.1,0.3,0.1,0.5,0.3,0.7s0.3,0.4,0.5,0.5c0.2,0.1,0.5,0.2,0.8,0.2c0.3,0,0.5,0,0.7-0.2c0.2-0.1,0.4-0.2,0.5-0.4
		c0.1-0.2,0.2-0.4,0.3-0.7C88.9,38.9,88.9,38.5,88.9,38.2z"/>
	<path class="st0" d="M98.5,41.5c0,0,0,0.1,0,0.1c0,0-0.1,0.1-0.1,0.1s-0.2,0-0.3,0.1c-0.1,0-0.3,0-0.4,0c-0.2,0-0.3,0-0.5,0
		c-0.1,0-0.2,0-0.3-0.1s-0.1-0.1-0.1-0.1c0,0,0-0.1,0-0.1v-3.7c0-0.3,0-0.6-0.1-0.7c0-0.2-0.1-0.3-0.2-0.5c-0.1-0.1-0.2-0.2-0.3-0.3
		c-0.1-0.1-0.3-0.1-0.5-0.1c-0.2,0-0.5,0.1-0.7,0.3c-0.2,0.2-0.5,0.4-0.7,0.7v4.3c0,0,0,0.1,0,0.1c0,0-0.1,0.1-0.2,0.1
		s-0.2,0-0.3,0.1c-0.1,0-0.3,0-0.4,0s-0.3,0-0.4,0c-0.1,0-0.2,0-0.3-0.1c-0.1,0-0.1-0.1-0.2-0.1c0,0,0-0.1,0-0.1v-6.5
		c0,0,0-0.1,0-0.1c0,0,0.1-0.1,0.1-0.1c0.1,0,0.1,0,0.2-0.1c0.1,0,0.2,0,0.4,0c0.2,0,0.3,0,0.4,0c0.1,0,0.2,0,0.2,0.1
		s0.1,0.1,0.1,0.1c0,0,0,0.1,0,0.1v0.8c0.4-0.4,0.7-0.7,1.1-0.9c0.4-0.2,0.8-0.3,1.2-0.3c0.4,0,0.8,0.1,1.1,0.2
		c0.3,0.1,0.6,0.3,0.7,0.6c0.2,0.3,0.3,0.5,0.4,0.9c0.1,0.3,0.1,0.7,0.1,1.2V41.5z"/>
	<path class="st0" d="M106.4,38c0,0.2,0,0.4-0.2,0.5c-0.1,0.1-0.2,0.2-0.4,0.2h-4c0,0.3,0,0.5,0.1,0.8c0.1,0.2,0.2,0.4,0.3,0.6
		c0.1,0.2,0.3,0.3,0.6,0.4s0.5,0.1,0.8,0.1c0.3,0,0.6,0,0.8-0.1c0.2,0,0.5-0.1,0.6-0.2c0.2-0.1,0.3-0.1,0.4-0.2
		c0.1,0,0.2-0.1,0.3-0.1c0,0,0.1,0,0.1,0c0,0,0.1,0,0.1,0.1s0,0.1,0,0.2c0,0.1,0,0.2,0,0.3c0,0.1,0,0.2,0,0.3c0,0.1,0,0.1,0,0.2
		c0,0.1,0,0.1,0,0.1c0,0,0,0.1-0.1,0.1c0,0-0.1,0.1-0.3,0.1c-0.1,0.1-0.3,0.1-0.5,0.2c-0.2,0.1-0.5,0.1-0.8,0.1
		c-0.3,0-0.6,0.1-0.9,0.1c-0.6,0-1.1-0.1-1.5-0.2s-0.8-0.4-1.1-0.7s-0.5-0.7-0.7-1.1c-0.1-0.5-0.2-1-0.2-1.6c0-0.6,0.1-1.1,0.2-1.6
		c0.2-0.5,0.4-0.9,0.7-1.2c0.3-0.3,0.6-0.6,1.1-0.7s0.9-0.3,1.4-0.3c0.5,0,1,0.1,1.4,0.2c0.4,0.2,0.7,0.4,1,0.7
		c0.2,0.3,0.4,0.6,0.5,1s0.2,0.8,0.2,1.3V38z M104.6,37.5c0-0.5-0.1-0.9-0.3-1.2c-0.2-0.3-0.6-0.4-1-0.4c-0.2,0-0.4,0-0.6,0.1
		c-0.2,0.1-0.3,0.2-0.4,0.4c-0.1,0.1-0.2,0.3-0.3,0.5c-0.1,0.2-0.1,0.4-0.1,0.6H104.6z"/>
	<path class="st0" d="M117.9,35.1c0,0.5-0.1,1-0.2,1.4s-0.4,0.8-0.7,1c-0.3,0.3-0.7,0.5-1.2,0.6c-0.5,0.1-1,0.2-1.6,0.2h-0.8v3
		c0,0,0,0.1,0,0.1c0,0-0.1,0.1-0.2,0.1c-0.1,0-0.2,0-0.3,0.1c-0.1,0-0.3,0-0.5,0c-0.2,0-0.3,0-0.5,0c-0.1,0-0.2,0-0.3-0.1
		c-0.1,0-0.1-0.1-0.2-0.1s0-0.1,0-0.1v-8.5c0-0.2,0.1-0.4,0.2-0.5c0.1-0.1,0.3-0.2,0.5-0.2h2.2c0.2,0,0.4,0,0.6,0
		c0.2,0,0.4,0.1,0.7,0.1c0.3,0.1,0.6,0.2,0.9,0.3c0.3,0.2,0.5,0.3,0.7,0.6c0.2,0.2,0.4,0.5,0.5,0.8
		C117.8,34.4,117.9,34.7,117.9,35.1z M115.9,35.2c0-0.3-0.1-0.6-0.2-0.8s-0.3-0.4-0.4-0.5c-0.2-0.1-0.4-0.2-0.5-0.2
		c-0.2,0-0.4,0-0.6,0h-0.8v3.2h0.9c0.3,0,0.6,0,0.8-0.1c0.2-0.1,0.4-0.2,0.5-0.3c0.1-0.1,0.2-0.3,0.3-0.5
		C115.8,35.7,115.9,35.5,115.9,35.2z"/>
	<path class="st0" d="M125.5,41.5c0,0,0,0.1,0,0.1c0,0-0.1,0.1-0.1,0.1c-0.1,0-0.1,0-0.2,0.1c-0.1,0-0.2,0-0.4,0c-0.2,0-0.3,0-0.4,0
		c-0.1,0-0.2,0-0.2-0.1s-0.1-0.1-0.1-0.1c0,0,0-0.1,0-0.1v-0.8c-0.4,0.4-0.7,0.7-1.1,0.9c-0.4,0.2-0.8,0.3-1.2,0.3
		c-0.4,0-0.8-0.1-1.1-0.2c-0.3-0.1-0.6-0.3-0.7-0.6c-0.2-0.3-0.3-0.5-0.4-0.9c-0.1-0.3-0.1-0.8-0.1-1.2v-4c0,0,0-0.1,0-0.1
		c0,0,0.1-0.1,0.1-0.1s0.2,0,0.3-0.1c0.1,0,0.3,0,0.4,0c0.2,0,0.3,0,0.4,0c0.1,0,0.2,0,0.3,0.1c0.1,0,0.1,0.1,0.2,0.1
		c0,0,0,0.1,0,0.1v3.7c0,0.3,0,0.6,0.1,0.8s0.1,0.3,0.2,0.5c0.1,0.1,0.2,0.2,0.3,0.3c0.1,0.1,0.3,0.1,0.5,0.1c0.2,0,0.5-0.1,0.7-0.3
		s0.5-0.4,0.8-0.7v-4.3c0,0,0-0.1,0-0.1c0,0,0.1-0.1,0.1-0.1c0.1,0,0.2,0,0.3-0.1c0.1,0,0.3,0,0.4,0s0.3,0,0.4,0
		c0.1,0,0.2,0,0.3,0.1s0.1,0.1,0.1,0.1c0,0,0,0.1,0,0.1V41.5z"/>
	<path class="st0" d="M133.9,38.1c0,0.6-0.1,1.1-0.2,1.6s-0.3,0.9-0.5,1.2c-0.2,0.3-0.5,0.6-0.9,0.8c-0.3,0.2-0.7,0.3-1.2,0.3
		c-0.2,0-0.4,0-0.6-0.1c-0.2,0-0.4-0.1-0.5-0.2c-0.2-0.1-0.3-0.2-0.5-0.4c-0.2-0.1-0.3-0.3-0.5-0.5v0.7c0,0.1,0,0.1,0,0.1
		c0,0-0.1,0.1-0.1,0.1c-0.1,0-0.1,0-0.2,0.1s-0.2,0-0.4,0c-0.2,0-0.3,0-0.4,0s-0.2,0-0.2-0.1c-0.1,0-0.1-0.1-0.1-0.1
		c0,0,0-0.1,0-0.1v-9.6c0,0,0-0.1,0-0.1s0.1-0.1,0.2-0.1c0.1,0,0.2,0,0.3-0.1c0.1,0,0.3,0,0.4,0s0.3,0,0.4,0c0.1,0,0.2,0,0.3,0.1
		c0.1,0,0.1,0.1,0.2,0.1s0,0.1,0,0.1v3.6c0.2-0.2,0.3-0.3,0.5-0.4s0.3-0.2,0.5-0.3c0.2-0.1,0.3-0.1,0.5-0.2s0.4-0.1,0.6-0.1
		c0.5,0,0.9,0.1,1.2,0.3c0.3,0.2,0.6,0.5,0.8,0.8c0.2,0.3,0.4,0.7,0.5,1.1C133.8,37.2,133.9,37.6,133.9,38.1z M132,38.2
		c0-0.3,0-0.5-0.1-0.8c0-0.3-0.1-0.5-0.2-0.7c-0.1-0.2-0.2-0.4-0.4-0.5c-0.2-0.1-0.4-0.2-0.6-0.2c-0.1,0-0.2,0-0.4,0.1
		c-0.1,0-0.2,0.1-0.4,0.2c-0.1,0.1-0.3,0.2-0.4,0.3c-0.1,0.1-0.3,0.3-0.4,0.5v2.2c0.3,0.3,0.5,0.6,0.7,0.8c0.2,0.2,0.5,0.3,0.7,0.3
		c0.2,0,0.4-0.1,0.6-0.2s0.3-0.3,0.4-0.5c0.1-0.2,0.2-0.4,0.2-0.7S132,38.5,132,38.2z"/>
	<path class="st0" d="M141.9,38.1c0,0.6-0.1,1.1-0.2,1.6s-0.3,0.9-0.5,1.2s-0.5,0.6-0.9,0.8c-0.3,0.2-0.7,0.3-1.2,0.3
		c-0.2,0-0.4,0-0.6-0.1c-0.2,0-0.4-0.1-0.5-0.2c-0.2-0.1-0.3-0.2-0.5-0.4c-0.2-0.1-0.3-0.3-0.5-0.5v0.7c0,0.1,0,0.1,0,0.1
		c0,0-0.1,0.1-0.1,0.1c-0.1,0-0.1,0-0.2,0.1c-0.1,0-0.2,0-0.4,0c-0.2,0-0.3,0-0.4,0c-0.1,0-0.2,0-0.2-0.1c-0.1,0-0.1-0.1-0.1-0.1
		c0,0,0-0.1,0-0.1v-9.6c0,0,0-0.1,0-0.1s0.1-0.1,0.2-0.1c0.1,0,0.2,0,0.3-0.1c0.1,0,0.3,0,0.4,0c0.2,0,0.3,0,0.4,0
		c0.1,0,0.2,0,0.3,0.1c0.1,0,0.1,0.1,0.2,0.1s0,0.1,0,0.1v3.6c0.2-0.2,0.3-0.3,0.5-0.4s0.3-0.2,0.5-0.3c0.2-0.1,0.3-0.1,0.5-0.2
		s0.4-0.1,0.6-0.1c0.5,0,0.9,0.1,1.2,0.3c0.3,0.2,0.6,0.5,0.8,0.8c0.2,0.3,0.4,0.7,0.5,1.1C141.9,37.2,141.9,37.6,141.9,38.1z
		 M140,38.2c0-0.3,0-0.5-0.1-0.8c0-0.3-0.1-0.5-0.2-0.7s-0.2-0.4-0.4-0.5c-0.2-0.1-0.4-0.2-0.6-0.2c-0.1,0-0.2,0-0.4,0.1
		c-0.1,0-0.2,0.1-0.4,0.2c-0.1,0.1-0.3,0.2-0.4,0.3c-0.1,0.1-0.3,0.3-0.4,0.5v2.2c0.3,0.3,0.5,0.6,0.7,0.8c0.2,0.2,0.5,0.3,0.7,0.3
		c0.2,0,0.4-0.1,0.6-0.2s0.3-0.3,0.4-0.5c0.1-0.2,0.2-0.4,0.2-0.7S140,38.5,140,38.2z"/>
	<path class="st0" d="M145.3,41.5c0,0,0,0.1,0,0.1c0,0-0.1,0.1-0.2,0.1s-0.2,0-0.3,0.1c-0.1,0-0.3,0-0.4,0s-0.3,0-0.4,0
		c-0.1,0-0.2,0-0.3-0.1c-0.1,0-0.1-0.1-0.2-0.1c0,0,0-0.1,0-0.1v-9.6c0,0,0-0.1,0-0.1s0.1-0.1,0.2-0.1c0.1,0,0.2,0,0.3-0.1
		c0.1,0,0.3,0,0.4,0s0.3,0,0.4,0c0.1,0,0.2,0,0.3,0.1c0.1,0,0.1,0.1,0.2,0.1s0,0.1,0,0.1V41.5z"/>
	<path class="st0" d="M149.1,32.7c0,0.4-0.1,0.6-0.2,0.8c-0.2,0.1-0.4,0.2-0.8,0.2c-0.4,0-0.7-0.1-0.8-0.2c-0.1-0.1-0.2-0.4-0.2-0.7
		c0-0.4,0.1-0.6,0.2-0.8c0.1-0.1,0.4-0.2,0.8-0.2c0.4,0,0.7,0.1,0.8,0.2C149,32.1,149.1,32.4,149.1,32.7z M148.9,41.5
		c0,0,0,0.1,0,0.1c0,0-0.1,0.1-0.2,0.1c-0.1,0-0.2,0-0.3,0.1c-0.1,0-0.3,0-0.4,0c-0.2,0-0.3,0-0.4,0c-0.1,0-0.2,0-0.3-0.1
		c-0.1,0-0.1-0.1-0.2-0.1c0,0,0-0.1,0-0.1v-6.5c0,0,0-0.1,0-0.1c0,0,0.1-0.1,0.2-0.1c0.1,0,0.2,0,0.3-0.1c0.1,0,0.3,0,0.4,0
		c0.2,0,0.3,0,0.4,0c0.1,0,0.2,0,0.3,0.1c0.1,0,0.1,0.1,0.2,0.1c0,0,0,0.1,0,0.1V41.5z"/>
	<path class="st0" d="M155.7,40.4c0,0.1,0,0.2,0,0.3c0,0.1,0,0.2,0,0.2s0,0.1,0,0.1c0,0-0.1,0.1-0.1,0.1c-0.1,0.1-0.2,0.1-0.3,0.2
		c-0.1,0.1-0.3,0.2-0.5,0.2c-0.2,0.1-0.4,0.1-0.6,0.2c-0.2,0-0.4,0.1-0.7,0.1c-0.5,0-0.9-0.1-1.3-0.2c-0.4-0.2-0.7-0.4-1-0.7
		c-0.3-0.3-0.5-0.7-0.6-1.1s-0.2-0.9-0.2-1.5c0-0.7,0.1-1.2,0.2-1.7c0.2-0.5,0.4-0.9,0.7-1.2s0.6-0.5,1-0.7s0.8-0.2,1.3-0.2
		c0.2,0,0.4,0,0.6,0.1s0.4,0.1,0.5,0.1s0.3,0.1,0.4,0.2c0.1,0.1,0.2,0.1,0.3,0.2c0.1,0.1,0.1,0.1,0.1,0.1c0,0,0,0.1,0.1,0.1
		s0,0.1,0,0.2c0,0.1,0,0.2,0,0.3c0,0.3,0,0.5-0.1,0.6c0,0.1-0.1,0.2-0.2,0.2c-0.1,0-0.2,0-0.3-0.1c-0.1-0.1-0.2-0.1-0.3-0.2
		c-0.1-0.1-0.3-0.2-0.5-0.2S154,36,153.7,36c-0.5,0-0.8,0.2-1.1,0.6c-0.3,0.4-0.4,0.9-0.4,1.6c0,0.4,0,0.7,0.1,0.9
		c0.1,0.3,0.2,0.5,0.3,0.7c0.1,0.2,0.3,0.3,0.5,0.4c0.2,0.1,0.4,0.1,0.7,0.1c0.3,0,0.5,0,0.7-0.1c0.2-0.1,0.3-0.2,0.5-0.3
		s0.3-0.2,0.3-0.3c0.1-0.1,0.2-0.1,0.2-0.1c0,0,0.1,0,0.1,0s0.1,0.1,0.1,0.1c0,0.1,0,0.2,0,0.3S155.7,40.3,155.7,40.4z"/>
	<path class="st0" d="M162.5,41.5c0,0.1,0,0.1-0.1,0.2c0,0-0.1,0.1-0.2,0.1c-0.1,0-0.3,0-0.5,0c-0.2,0-0.4,0-0.5,0
		c-0.1,0-0.2,0-0.2-0.1c0,0-0.1-0.1-0.1-0.2V41c-0.3,0.3-0.6,0.5-0.9,0.7c-0.3,0.2-0.7,0.2-1.1,0.2c-0.3,0-0.7,0-1-0.1
		c-0.3-0.1-0.5-0.2-0.8-0.4c-0.2-0.2-0.4-0.4-0.5-0.7s-0.2-0.6-0.2-0.9c0-0.4,0.1-0.7,0.2-1c0.1-0.3,0.4-0.5,0.7-0.7
		c0.3-0.2,0.7-0.3,1.1-0.4s0.9-0.1,1.5-0.1h0.6v-0.4c0-0.2,0-0.4-0.1-0.5c0-0.2-0.1-0.3-0.2-0.4c-0.1-0.1-0.2-0.2-0.4-0.2
		s-0.4-0.1-0.6-0.1c-0.3,0-0.6,0-0.8,0.1c-0.2,0.1-0.5,0.1-0.6,0.2s-0.3,0.2-0.5,0.2s-0.2,0.1-0.3,0.1c-0.1,0-0.1,0-0.1-0.1
		c0,0-0.1-0.1-0.1-0.1c0-0.1,0-0.1-0.1-0.2c0-0.1,0-0.2,0-0.3c0-0.2,0-0.3,0-0.4s0.1-0.2,0.1-0.2c0.1-0.1,0.2-0.1,0.4-0.2
		c0.2-0.1,0.4-0.2,0.6-0.2c0.2-0.1,0.5-0.1,0.8-0.2c0.3,0,0.6-0.1,0.8-0.1c0.5,0,1,0,1.3,0.1c0.4,0.1,0.7,0.3,0.9,0.5
		c0.2,0.2,0.4,0.5,0.5,0.8s0.2,0.7,0.2,1.2V41.5z M160.7,38.7H160c-0.3,0-0.6,0-0.8,0.1s-0.4,0.1-0.5,0.2s-0.2,0.2-0.3,0.3
		c-0.1,0.1-0.1,0.3-0.1,0.4c0,0.3,0.1,0.5,0.3,0.6c0.2,0.2,0.4,0.2,0.7,0.2c0.3,0,0.5-0.1,0.7-0.2c0.2-0.1,0.4-0.3,0.7-0.6V38.7z"/>
</g>
</svg>
