<?xml version="1.0" encoding="utf-8"?>
<!-- Generator: Adobe Illustrator 21.0.2, SVG Export Plug-In . SVG Version: 6.00 Build 0)  -->
<svg version="1.1" id="Livello_1" xmlns="http://www.w3.org/2000/svg" xmlns:xlink="http://www.w3.org/1999/xlink" x="0px" y="0px"
	 width="220.2px" height="55.2px" viewBox="0 0 220.2 55.2" style="enable-background:new 0 0 220.2 55.2;" xml:space="preserve">
<style type="text/css">
	.st0{fill:#FFFFFF;}
	.st1{fill:none;}
</style>
<g>
	<path class="st0" d="M16.8,38.7c5.7-5.1,8-6.8,10.8-7.7l0.2,0.2l-0.3,0.3c-4.1,3.8-7.7,8-11,12.5c1.4,0,1.7-0.3,3.5-1.7
		c0.5-0.3,0.5-0.5,0.8-0.8v0.2c-0.5,0.5-0.8,0.6-0.9,0.8l-0.5,0.5c-1.1,0.9-1.8,1.1-2.9,1.1l-0.6,0.9h-1.2l0.6-0.9
		c-1.2-0.3-2-0.6-2.9-1.4c-2.4,1.8-4.1,2.4-6,2.4c-1.4,0-2.1-0.6-2.1-1.5c0-0.6,0.5-1.1,1.1-1.1c0.3,0,0.6,0.2,0.6,0.3
		s-0.2,0.5-0.5,0.5S5.3,43,5.1,42.7c-0.3,0.2-0.5,0.5-0.5,0.8c0,0.8,0.8,1.2,2,1.2c2.6,0,5-1.8,5.9-2.4c-1.4-1.4-1.8-2.4-1.8-3.9
		c0-1.8,0.9-2.9,2.4-2.9c1.8,0,3,1.5,3.5,3.5L16.8,38.7z M16.2,39.3c-0.8-3.5-3-3.5-3.2-3.5c-1.4,0-2.1,1.1-2.1,2.6
		c0,1.5,0.5,2.6,1.7,3.9c0.8-0.6,1.7-1.2,3.3-2.7L16.2,39.3z M15.9,39.7c-0.3,0.3-2,1.7-3.2,2.7c0.9,0.8,1.7,1.2,2.7,1.4
		c0.6-1.5,1.1-2.7,0.8-4.4L15.9,39.7z M23.3,35.2c0.6-0.6,4.1-3.9,4.1-3.9c-2.9,0.8-8,5.3-10.5,7.7l-0.3,0.3c0.3,1.5,0,2.6-0.6,3.9
		l0.3-0.5c2-2.4,2.4-2.9,6.6-7.4L23.3,35.2z"/>
	<path class="st0" d="M22.5,43.5c-0.2,0.2-0.2,0.2-0.3,0.3c-0.8,0.5-1.1,0.6-1.4,0.6c-0.6,0-0.9-0.5-0.9-1.2c0-2,2.7-3.3,4.2-3.3
		c0.5,0,0.8,0.2,0.8,0.6c0,0.2,0,0.3-0.2,0.5l0.8-0.9h1.1l-4.5,5.3c1.7-0.6,3.3-2,5.3-3.6v0.2c-2.6,2.1-3.8,3-5.6,3.8
		c-4.2,4.5-5.4,5.4-6.5,5.4c-0.5-0.2-0.8-0.5-0.8-0.9c0-1.1,1.7-2.4,4.2-3.5l2-0.9L22.5,43.5z M15.3,48.9c-0.5,0.5-0.8,0.9-0.8,1.2
		s0.3,0.6,0.6,0.6c0.8,0,1.7-0.6,3.2-2.1c0.5-0.5,1.5-1.7,2.1-2.6C17.9,47.1,16.4,47.8,15.3,48.9 M24.2,40c-1.5,0-3.9,2.9-3.9,3.8
		c0,0.3,0.3,0.5,0.5,0.5c1.1,0,3.9-2.7,3.9-3.6C24.6,40.2,24.5,40,24.2,40"/>
	<path class="st0" d="M32.3,41.7c0,0-0.2,0.2-0.3,0.3c-1.7,1.7-3.2,2.4-4.5,2.4c-0.8,0-1.1-0.5-1.1-1.2c0-2.4,3.3-3.3,4.2-3.3
		c0.5,0,0.8,0.3,0.8,0.6c0,0.9-1.5,1.5-3.6,1.7c-0.6,0.8-0.9,1.2-0.9,1.7c0,0.3,0.3,0.5,0.8,0.5c1.2,0,2.6-0.8,4.7-2.7
		C32.3,41.5,32.3,41.7,32.3,41.7z M31.3,40.5c0-0.3-0.2-0.3-0.5-0.3c-0.8,0-1.8,0.8-2.7,1.8C30.2,41.8,31.3,40.8,31.3,40.5"/>
	<path class="st0" d="M32.2,41.7c0.8-0.6,2-1.7,2.6-1.7c0.3,0,0.5,0.2,0.5,0.6c0,0.6-0.5,1.1-1.4,2.3l0.6-0.5
		c1.2-0.9,2.6-1.8,3.2-2.1c0.3-0.2,0.6-0.2,0.8-0.2c0.3,0,0.5,0.3,0.5,0.6c0,0.8-0.6,1.5-1.7,2.4c-0.8,0.5-0.9,0.8-0.9,1.1
		c0,0.2,0.2,0.3,0.3,0.3s1.1,0,3.9-2.7V42c-0.5,0.3-2.9,2.6-3.9,2.6c-0.3,0-0.6-0.3-0.6-0.6c0-0.6,0.5-1.4,1.4-2.3
		c0.8-0.8,1.2-1.1,1.2-1.4c0-0.2-0.2-0.2-0.3-0.2c-0.6,0-3.5,1.8-6,4.2h-1.1l1.7-1.8c1.1-1.2,1.8-2,1.8-2.3l-0.2-0.2
		c-0.5,0-1.8,1.2-2.4,1.8v-0.3H32.2z"/>
	<path class="st0" d="M41.8,40.5c0-0.5,0.2-0.8,0.6-0.8c0.3,0,0.3,0.2,0.3,0.3c0,0.3-0.2,0.3-0.5,0.3c-0.2,0-0.5-0.2-0.5-0.2
		c0.2,0.3,0.5,0.5,0.8,0.5c0.5,0,1.1-0.2,1.2-0.3l0.5-0.3c0.6-0.5,0.8-0.6,0.9-0.6s0.2,0,0.2,0.2c0,0.3-0.6,0.8-1.7,1.1l-2.7,2.3
		c0.5-0.2,0.9-0.2,1.2-0.2c0.5,0,0.6,0.2,0.6,0.6c0,0.2-0.2,0.3-0.3,0.5s-0.2,0.3-0.2,0.3l0,0c0.5,0,2-1.4,2.9-2.3
		c0.2-0.2,0.3-0.3,0.5-0.3v0.2c-1.4,1.2-2.9,2.6-3.6,2.6c-0.3,0-0.5-0.2-0.5-0.5s0.2-0.5,0.5-0.8c0.2-0.2,0.2-0.3,0.2-0.3
		s-0.2-0.2-0.3-0.2c-0.9,0-1.7,0.5-2.1,1.1c-0.3,0.3-0.5,0.5-0.6,0.5c0,0-0.2,0-0.2-0.2c0-0.3,0.8-0.8,1.4-1.2l2.9-2.4
		c-0.5,0.2-0.6,0.2-0.9,0.2C42.2,40.8,42.1,40.6,41.8,40.5l-1.5,1.4v-0.2L41.8,40.5z"/>
	<path class="st0" d="M45.7,41.7c0.9-0.8,1.5-1.2,2.1-1.7h1.1l-2.4,2.7c0,0,0,0.2-0.2,0.2c-0.6,0.6-0.9,0.9-0.9,1.1
		c0,0.2,0.2,0.3,0.2,0.3c0.8,0,2.3-1.1,3.9-2.7v0.2c-0.8,0.6-2.9,2.6-3.9,2.6c-0.3,0-0.5-0.2-0.5-0.5c0-0.9,0.6-1.8,2-3.2l0.5-0.5
		c-0.6,0.3-1.4,1.1-2.1,1.7v-0.2H45.7z M50.2,37.6c0,0.3-0.2,0.5-0.5,0.5c-0.2,0-0.3-0.2-0.3-0.3c0-0.3,0.2-0.5,0.5-0.5
		S50.2,37.5,50.2,37.6"/>
	<path class="st0" d="M56.3,41.7l-0.5,0.5c-1.7,1.4-2.9,2.3-3.5,2.3c-0.3,0-0.3-0.2-0.3-0.5s0.2-0.5,0.3-1.2
		c-0.2,0.2-0.2,0.2-0.5,0.3c-1.1,0.9-1.8,1.4-2.3,1.4c-0.5,0-0.8-0.5-0.8-1.2c0-2.1,2.9-3.3,4.2-3.3c0.5,0,0.8,0.2,0.8,0.6
		c0,0.2,0,0.2,0,0.5l0.8-0.9l1.1-0.2l-0.5,0.5c-0.5,0.5-0.8,0.9-1.1,1.2c-0.8,0.8-2,2.1-2,2.4c0,0.2,0,0.2,0.2,0.2
		c0.8,0,2.9-1.8,3.8-2.7v0.3H56.3z M49.3,43.8c0,0.3,0.2,0.5,0.5,0.5c1.1,0,3.9-2.7,3.9-3.6c0-0.3-0.2-0.5-0.5-0.5
		C51.5,40.2,49.3,43,49.3,43.8"/>
	<path class="st0" d="M65.2,37h0.6l-4.7,5.6c0.8-0.5,3.6-2.7,4.5-2.7c0.3,0,0.5,0.3,0.5,0.6c0,0.8-0.5,1.4-1.5,2.3
		c-0.8,0.6-1.1,0.9-1.1,1.2c0,0.2,0.2,0.3,0.5,0.3c0.5,0,1.7-0.8,3.5-2.3l0.5-0.3v0.2c-2.3,2-3.2,2.6-3.9,2.6
		c-0.5,0-0.6-0.2-0.6-0.6c0-0.6,0.5-1.4,1.5-2.3c0.8-0.6,1.1-1.1,1.1-1.2S65.8,40,65.6,40c-0.8,0-4.4,2.6-5.4,3.9l-5.1,5.9h-1.1
		l10.4-11.7c-0.3,0.2-3.5,3.2-4.2,3.8v-0.2c1.5-1.4,3.2-2.7,4.4-4.1L65.2,37z"/>
	<path class="st0" d="M72.7,41.7c-0.2,0-0.2,0.2-0.3,0.3c-1.7,1.7-3.2,2.4-4.5,2.4c-0.8,0-1.1-0.5-1.1-1.2c0-2.4,3.3-3.3,4.2-3.3
		c0.5,0,0.8,0.3,0.8,0.6c0,0.9-1.5,1.5-3.6,1.7c-0.6,0.8-0.9,1.2-0.9,1.7c0,0.3,0.3,0.5,0.8,0.5c1.2,0,2.6-0.8,4.7-2.7
		C72.7,41.5,72.7,41.7,72.7,41.7z M71.6,40.5c0-0.3-0.2-0.3-0.5-0.3c-0.8,0-1.8,0.8-2.7,1.8C70.6,41.8,71.6,40.8,71.6,40.5"/>
	<path class="st0" d="M72.5,41.7c0.8-0.6,1.5-1.2,2.3-1.8c-0.2-0.6,0.2-1.1,0.6-1.1c0.3,0,0.5,0.2,0.5,0.3c0,0.2-0.2,0.3-0.5,0.3
		c-0.2,0-0.2-0.2-0.5-0.3c-0.2,0.2-0.2,0.2-0.2,0.3c0,0.3,0.2,0.5,0.5,0.5c0,0,0.2,0,0.3,0s0.2,0,0.3,0c0.2,0,0.3,0.3,0.3,0.6
		c0,0.6-2.7,2.9-2.7,3.5c0,0.2,0,0.2,0.3,0.2c0.5,0,1.5-0.6,3.2-2.1c0.3-0.3,0.5-0.5,0.8-0.6v0.2c-0.3,0.3-3,2.6-4.1,2.6
		c-0.3,0-0.3-0.2-0.3-0.5c0-0.8,0.3-1.5,1.1-2.3l1.1-1.2c0-0.2,0.2-0.3,0.5-0.5c-0.2,0-0.3,0-0.5,0c-0.3,0-0.5,0-0.6-0.2
		c-0.5,0.5-1.5,1.1-2.3,1.8C72.5,41.4,72.5,41.7,72.5,41.7z"/>
	<path class="st0" d="M90.9,33.6l-7.7,8.7c-0.6,0.6-1.4,1.5-1.4,1.8c0,0.2,0.2,0.3,0.3,0.3c0.5,0,1.7-0.8,3.3-2.3
		c0.2-0.2,0.3-0.3,0.5-0.5v0.2c-0.3,0.3-0.5,0.3-0.8,0.6c-1.2,1.1-2.3,2-2.9,2c-0.3,0-0.5-0.3-0.5-0.6c0-0.9,1.2-2.4,2.3-3.5
		c0.3-0.3,0.6-0.8,1.2-1.4c-0.9,0.6-2.7,2.3-3.3,2.9v-0.2l3.5-3c0.8-0.6,2-2,4.2-4.5l0.5-0.6H90.9z"/>
	<path class="st0" d="M92.2,41.7l-0.5,0.5c-1.7,1.4-2.9,2.3-3.5,2.3c-0.3,0-0.3-0.2-0.3-0.5s0.2-0.5,0.3-1.2
		c-0.2,0.2-0.2,0.2-0.5,0.3c-1.1,0.9-1.8,1.4-2.3,1.4c-0.5,0-0.8-0.5-0.8-1.2c0-2.1,2.9-3.3,4.2-3.3c0.5,0,0.8,0.2,0.8,0.6
		c0,0.2,0,0.2,0,0.5l0.8-0.9l1.1-0.2l-0.5,0.5c-0.5,0.5-0.8,0.9-1.1,1.2c-0.8,0.8-2,2.1-2,2.4c0,0.2,0,0.2,0.2,0.2
		c0.8,0,2.9-1.8,3.8-2.7v0.3H92.2z M85.2,43.8c0,0.3,0.2,0.5,0.5,0.5c1.1,0,3.9-2.7,3.9-3.6c0-0.3-0.2-0.5-0.5-0.5
		C87.4,40.2,85.2,43,85.2,43.8"/>
	<path class="st0" d="M101.1,38.1c-1.5,0-2.1-0.3-2.9-0.9c-0.5-0.5-0.8-1.1-0.8-1.7c0-1.4,0.8-2.6,3.2-3.8c0.9-0.5,2.6-0.9,5.6-0.9
		V31c-3.3,0-5.1,0.5-6.6,1.5c-1.2,0.9-2,2-2,3.2c0,1.5,1.1,2.3,3.2,2.4c0.5,0,0.5,0,0.8,0c3.3-3.6,8.9-7.1,11-7.1
		c0.6,0,1.1,0.3,0.9,0.9c0,1.7-4.8,4.8-10.7,6.2c-2.3,2.6-3.3,4.2-3.3,5.4c0,0.9,0.8,1.5,2,1.5c2.9,0,5.6-2.6,5.6-4.1
		c0-0.8-0.6-1.4-1.5-1.4c-0.3,0-2.7,0-4.8,3.9l-0.2-0.2c1.7-3.2,3.8-4.1,5-4.1c0.9,0,1.5,0.6,1.5,1.5c0,2-3,4.4-5.6,4.4
		c-1.5,0-2.6-0.9-2.6-2.4c0-1.4,0.6-2.6,2.4-4.5h-0.2V38.1z M113.4,31.8c0-0.5-0.3-0.8-0.9-0.8c-1.1,0-3.3,1.1-5.3,2.6
		c-1.5,1.1-2.6,2.1-4.2,4.1C109,36.4,113.4,33.3,113.4,31.8"/>
	<path class="st0" d="M113.1,41.7c-0.5,0.3-0.9,0.6-1.4,0.6c-0.2,0-0.2,0-0.3,0c-1.4,1.4-2.6,2.1-3.5,2.1c-0.6,0-0.9-0.5-0.9-1.1
		c0-2,3-3.5,4.2-3.5c0.6,0,0.9,0.3,0.9,0.8c0,0.5-0.2,0.9-0.6,1.4c0,0,0.2,0,0.3,0c0.5,0,0.9-0.3,1.4-0.6v0.3H113.1z M107.4,43.6
		c0,0.3,0.3,0.5,0.6,0.5c1.5,0,3.9-2.6,3.9-3.6c0-0.3-0.3-0.6-0.6-0.6C109.6,40.2,107.4,43.2,107.4,43.6"/>
	<path class="st0" d="M118,41.7c-0.2,0-0.2,0.2-0.3,0.3c-1.7,1.7-3.2,2.4-4.5,2.4c-0.8,0-1.1-0.5-1.1-1.2c0-2.4,3.3-3.3,4.2-3.3
		c0.5,0,0.8,0.3,0.8,0.6c0,0.9-1.5,1.5-3.6,1.7c-0.6,0.8-0.9,1.2-0.9,1.7c0,0.3,0.3,0.5,0.8,0.5c1.2,0,2.6-0.8,4.7-2.7
		C118,41.5,118,41.7,118,41.7z M117,40.5c0-0.3-0.2-0.3-0.5-0.3c-0.8,0-1.8,0.8-2.7,1.8C116.1,41.8,117,40.8,117,40.5"/>
	<path class="st0" d="M118.8,40.9c0.5-0.3,1.1-0.9,1.8-1.5c0.2-0.2,0.8-0.9,0.9-0.9c0.2,0,0.3,0.2,0.3,0.2c0,0.3-0.6,0.6-0.8,0.6
		c0.6,0.9,0.8,1.2,0.8,2.1c0,0.3,0,0.5-0.2,0.8c0.2,0,0.2,0,0.3,0c0.5,0,0.9-0.2,1.4-0.6v0.2c-0.5,0.5-0.9,0.6-1.4,0.6
		c-0.2,0-0.3,0-0.5,0c-0.8,1.5-2.7,2.1-3.6,2.1c-0.6,0-1.1-0.3-1.1-0.8c0-0.3,0.3-0.6,0.8-0.6c0.3,0,0.5,0.2,0.5,0.5
		s-0.2,0.5-0.5,0.5c-0.2,0-0.5-0.2-0.5-0.3l-0.2,0.2c0,0.3,0.3,0.6,0.8,0.6c1.4,0,3.2-2,3.2-3.6c0-0.5,0-0.8-0.3-1.2l-2.7,2.3v-0.2
		L118.8,40.9z"/>
	<path class="st0" d="M123.1,41.7c0.9-0.8,1.5-1.2,2.1-1.7h1.1l-2.4,2.7c0,0,0,0.2-0.2,0.2c-0.6,0.6-0.9,0.9-0.9,1.1
		c0,0.2,0,0.3,0.3,0.3c0.8,0,2.3-1.1,3.9-2.7v0.2c-0.8,0.6-2.9,2.6-3.9,2.6c-0.3,0-0.5-0.2-0.5-0.5c0-0.9,0.6-1.8,2-3.2l0.5-0.5
		c-0.6,0.3-1.4,1.1-2.1,1.7v-0.2H123.1z M127.8,37.6c0,0.3-0.2,0.5-0.5,0.5c-0.2,0-0.3-0.2-0.3-0.3c0-0.3,0.2-0.5,0.5-0.5
		C127.6,37.3,127.8,37.5,127.8,37.6"/>
	<path class="st0" d="M132.4,41.7c-0.5,0.3-0.9,0.6-1.4,0.6c-0.2,0-0.2,0-0.3,0c-1.4,1.4-2.6,2.1-3.5,2.1c-0.6,0-0.9-0.5-0.9-1.1
		c0-2,3-3.5,4.2-3.5c0.6,0,0.9,0.3,0.9,0.8c0,0.5-0.2,0.9-0.6,1.4c0.2,0,0.2,0,0.3,0c0.5,0,0.9-0.3,1.4-0.6v0.3H132.4z M126.7,43.6
		c0,0.3,0.3,0.5,0.6,0.5c1.5,0,3.9-2.6,3.9-3.6c0-0.3-0.3-0.6-0.6-0.6C129.1,40.2,126.7,43.2,126.7,43.6"/>
	<path class="st0" d="M132.4,41.7c0.8-0.6,2-1.7,2.6-1.7c0.3,0,0.5,0.2,0.5,0.6c0,0.6-0.5,1.1-1.4,2.3l0.6-0.5
		c1.2-0.9,2.6-1.8,3.2-2.1c0.3-0.2,0.6-0.2,0.8-0.2c0.3,0,0.5,0.3,0.5,0.6c0,0.8-0.6,1.5-1.7,2.4c-0.8,0.5-0.9,0.8-0.9,1.1
		c0,0.2,0.2,0.3,0.3,0.3c0.2,0,1.1,0,3.9-2.7V42c-0.5,0.3-2.9,2.6-3.9,2.6c-0.3,0-0.6-0.3-0.6-0.6c0-0.6,0.5-1.4,1.4-2.3
		c0.8-0.8,1.2-1.1,1.2-1.4c0-0.2-0.2-0.2-0.2-0.2c-0.6,0-3.5,1.8-6,4.2h-1.1l1.7-1.8c1.1-1.2,1.8-2,1.8-2.3l-0.2-0.2
		c-0.5,0-1.8,1.2-2.4,1.8C132.4,42,132.4,41.7,132.4,41.7z"/>
	<path class="st0" d="M145.7,41.7c0,0-0.2,0.2-0.3,0.3c-1.7,1.7-3.2,2.4-4.5,2.4c-0.8,0-1.1-0.5-1.1-1.2c0-2.4,3.3-3.3,4.2-3.3
		c0.5,0,0.8,0.3,0.8,0.6c0,0.9-1.5,1.5-3.6,1.7c-0.6,0.8-0.9,1.2-0.9,1.7c0,0.3,0.3,0.5,0.8,0.5c1.2,0,2.6-0.8,4.7-2.7
		C145.7,41.5,145.7,41.7,145.7,41.7z M144.6,40.5c0-0.3-0.2-0.3-0.5-0.3c-0.8,0-1.8,0.8-2.7,1.8C143.6,41.8,144.6,40.8,144.6,40.5"
		/>
	<path class="st0" d="M161.1,37.9c1.7-2.3,3.6-4.5,6.3-5.9l0.2,0.2c-1.4,0.6-3.2,1.7-4.8,4.7c-1.5,2.6-2,3.5-2.9,4.4
		c-2.1,2.4-5.3,3.9-8.3,3.9c-1.8,0-2.9-0.6-2.9-1.5c0-0.6,0.3-0.9,0.8-0.9c0.3,0,0.6,0.2,0.6,0.5s-0.2,0.5-0.5,0.5
		c-0.3,0-0.5-0.2-0.5-0.6c-0.3,0.2-0.5,0.3-0.5,0.8c0,0.9,1.1,1.4,2.6,1.4c3.8,0,5.6-1.8,6.3-2.6c0.8-0.8,0.9-0.9,3-3.9L161.1,37.9z
		 M163.4,33.1c-2.3,4.5-5.7,4.5-5.9,4.5c-1.2,0-2-0.6-2-1.7c0-1.7,2.3-5,8-5c0.9,0,2,0,3.8,0.3c1.7,0.2,2.4,0.3,3.2,0.3
		c1.4,0,2.3-0.2,2.7-0.5h0.3c-0.8,0.8-2.7,1.1-3.8,1.1c-0.5,0-1.4-0.2-2.7-0.3c-1.8-0.3-3-0.5-4.1-0.5c-4.7,0-7.2,2.9-7.2,4.7
		c0,0.9,0.8,1.5,1.8,1.5c1.7,0,4.4-1.5,5.9-4.4h0V33.1z"/>
	<path class="st0" d="M167.1,41.7c0,0-0.2,0.2-0.3,0.3c-1.7,1.7-3.2,2.4-4.5,2.4c-0.8,0-1.1-0.5-1.1-1.2c0-2.4,3.3-3.3,4.2-3.3
		c0.5,0,0.8,0.3,0.8,0.6c0,0.9-1.5,1.5-3.6,1.7c-0.6,0.8-0.9,1.2-0.9,1.7c0,0.3,0.3,0.5,0.8,0.5c1.2,0,2.6-0.8,4.7-2.7
		C167.1,41.5,167.1,41.7,167.1,41.7z M166.1,40.5c0-0.3-0.2-0.3-0.5-0.3c-0.8,0-1.8,0.8-2.7,1.8C165.2,41.8,166.1,40.8,166.1,40.5"
		/>
	<path class="st0" d="M167,41.7c0.8-0.6,1.5-1.2,2.3-1.8c-0.2-0.6,0.2-1.1,0.6-1.1c0.3,0,0.5,0.2,0.5,0.3c0,0.2-0.2,0.3-0.5,0.3
		c-0.2,0-0.2-0.2-0.5-0.3c0,0.2-0.2,0.2-0.2,0.3c0,0.3,0.2,0.5,0.5,0.5c0,0,0.2,0,0.3,0c0.2,0,0.2,0,0.3,0s0.3,0.3,0.3,0.6
		c0,0.6-2.7,2.9-2.7,3.5c0,0.2,0.2,0.2,0.3,0.2c0.5,0,1.5-0.6,3.2-2.1c0.3-0.3,0.5-0.5,0.8-0.6v0.2c-0.3,0.3-3,2.6-4.1,2.6
		c-0.3,0-0.3-0.2-0.3-0.5c0-0.8,0.3-1.5,1.1-2.3l1.1-1.2c0-0.2,0.2-0.3,0.5-0.5c-0.2,0-0.3,0-0.5,0c-0.3,0-0.5,0-0.6-0.2
		c-0.5,0.5-1.5,1.1-2.3,1.8L167,41.7L167,41.7z"/>
	<path class="st0" d="M171.9,41.7c0.8-0.6,1.5-1.2,2.3-1.8c-0.2-0.6,0.2-1.1,0.6-1.1c0.3,0,0.5,0.2,0.5,0.3c0,0.2-0.2,0.3-0.5,0.3
		c-0.2,0-0.2-0.2-0.5-0.3c0,0.2-0.2,0.2-0.2,0.3c0,0.3,0.2,0.5,0.5,0.5c0,0,0.2,0,0.3,0c0.2,0,0.2,0,0.3,0s0.3,0.3,0.3,0.6
		c0,0.6-2.7,2.9-2.7,3.5c0,0.2,0.2,0.2,0.3,0.2c0.5,0,1.5-0.6,3.2-2.1c0.3-0.3,0.5-0.5,0.8-0.6v0.2c-0.3,0.3-3,2.6-4.1,2.6
		c-0.3,0-0.3-0.2-0.3-0.5c0-0.8,0.3-1.5,1.1-2.3l1.1-1.2c0-0.2,0.2-0.3,0.5-0.5c-0.2,0-0.3,0-0.5,0c-0.3,0-0.5,0-0.6-0.2
		c-0.5,0.5-1.5,1.1-2.3,1.8L171.9,41.7L171.9,41.7z"/>
	<path class="st0" d="M177,41.7c0.9-0.8,1.5-1.2,2.1-1.7h1.1l-2.4,2.7l-0.2,0.2c-0.6,0.6-0.9,0.9-0.9,1.1c0,0.2,0.2,0.3,0.3,0.3
		c0.8,0,2.3-1.1,3.9-2.7v0.2c-0.8,0.6-2.9,2.6-3.9,2.6c-0.3,0-0.5-0.2-0.5-0.5c0-0.9,0.6-1.8,2-3.2l0.5-0.5
		c-0.6,0.3-1.4,1.1-2.1,1.7v-0.2H177z M181.5,37.6c0,0.3-0.2,0.5-0.5,0.5c-0.2,0-0.3-0.2-0.3-0.3c0-0.3,0.2-0.5,0.5-0.5
		C181.5,37.3,181.5,37.5,181.5,37.6"/>
	<path class="st0" d="M187.1,35.8l1.1-0.2l-2.1,2.3h1.7l-0.2,0.2h-1.7l-3,3.5c-0.9,1.1-1.8,2-1.8,2.1c0,0.2,0.2,0.3,0.3,0.3
		c0.9,0,2.3-0.9,4.2-2.6v0.2L185,42c-1.8,1.5-2.9,2.1-3.8,2.1c-0.3,0-0.6-0.2-0.6-0.5c0-0.8,0.9-2.3,2.7-4.1
		c0.3-0.3,0.6-0.6,0.8-0.8c-0.9,0.6-2,1.5-3.5,2.9v-0.2l0.5-0.5c1.5-1.4,2.4-2.1,3.6-2.9h-0.9l0.2-0.2h0.9L187.1,35.8z"/>
	<path class="st0" d="M191,41.7c-0.5,0.3-0.9,0.6-1.4,0.6c-0.2,0-0.2,0-0.3,0c-1.4,1.4-2.6,2.1-3.5,2.1c-0.6,0-0.9-0.5-0.9-1.1
		c0-2,3-3.5,4.2-3.5c0.6,0,0.9,0.3,0.9,0.8c0,0.5-0.2,0.9-0.6,1.4c0,0,0.2,0,0.3,0c0.5,0,0.9-0.3,1.4-0.6v0.3H191z M185.3,43.6
		c0,0.3,0.3,0.5,0.6,0.5c1.5,0,3.9-2.6,3.9-3.6c0-0.3-0.3-0.6-0.6-0.6C187.7,40.2,185.3,43.2,185.3,43.6"/>
	<path class="st0" d="M191,41.7c0.8-0.6,1.5-1.2,2.3-1.8c-0.2-0.6,0.2-1.1,0.6-1.1c0.3,0,0.5,0.2,0.5,0.3c0,0.2-0.2,0.3-0.5,0.3
		c-0.2,0-0.2-0.2-0.5-0.3c-0.2,0.2-0.2,0.2-0.2,0.3c0,0.3,0.2,0.5,0.5,0.5c0,0,0.2,0,0.3,0c0.2,0,0.2,0,0.3,0c0.2,0,0.3,0.3,0.3,0.6
		c0,0.6-2.7,2.9-2.7,3.5c0,0.2,0,0.2,0.2,0.2c0.5,0,1.5-0.6,3.2-2.1c0.3-0.3,0.5-0.5,0.8-0.6v0.2c-0.3,0.3-3,2.6-4.1,2.6
		c-0.3,0-0.3-0.2-0.3-0.5c0-0.8,0.3-1.5,1.1-2.3l1.1-1.2c0-0.2,0.2-0.3,0.5-0.5c-0.2,0-0.3,0-0.5,0c-0.3,0-0.5,0-0.6-0.2
		c-0.5,0.5-1.5,1.1-2.3,1.8v0.3H191z"/>
	<path class="st0" d="M196,41.7c0.9-0.8,1.5-1.2,2.1-1.7h1.1l-2.4,2.7l-0.2,0.2c-0.6,0.6-0.9,0.9-0.9,1.1c0,0.2,0,0.3,0.2,0.3
		c0.8,0,2.3-1.1,3.9-2.7v0.2c-0.8,0.6-2.9,2.6-3.9,2.6c-0.3,0-0.5-0.2-0.5-0.5c0-0.9,0.6-1.8,2-3.2l0.5-0.5
		c-0.6,0.3-1.4,1.1-2.1,1.7v-0.2H196z M200.5,37.6c0,0.3-0.2,0.5-0.5,0.5c-0.2,0-0.3-0.2-0.3-0.3c0-0.3,0.2-0.5,0.5-0.5
		C200.5,37.3,200.5,37.5,200.5,37.6"/>
	<path class="st0" d="M206.6,41.7l-0.5,0.5c-1.7,1.4-2.9,2.3-3.5,2.3c-0.2,0-0.3-0.2-0.3-0.5s0-0.5,0.3-1.2
		c-0.2,0.2-0.2,0.2-0.5,0.3c-1.1,0.9-1.8,1.4-2.3,1.4c-0.5,0-0.8-0.5-0.8-1.2c0-2.1,2.9-3.3,4.2-3.3c0.5,0,0.8,0.2,0.8,0.6
		c0,0.2,0,0.2,0,0.5L205,40l1.1-0.2l-0.3,0.5c-0.5,0.5-0.8,0.9-1.1,1.2c-0.8,0.8-2,2.1-2,2.4c0,0.2,0,0.2,0.2,0.2
		c0.8,0,2.9-1.8,3.8-2.7V41.7z M199.6,43.8c0,0.3,0.2,0.5,0.5,0.5c1.1,0,3.9-2.7,3.9-3.6c0-0.3-0.2-0.5-0.5-0.5
		C201.8,40.2,199.6,43,199.6,43.8"/>
	<path class="st0" d="M215.6,33.6l-7.7,8.7c-0.6,0.6-1.4,1.5-1.4,1.8c0,0.2,0.2,0.3,0.3,0.3c0.5,0,1.7-0.8,3.3-2.3
		c0.2-0.2,0.3-0.3,0.5-0.5v0.2c-0.3,0.3-0.5,0.3-0.8,0.6c-1.2,1.1-2.3,2-3,2c-0.3,0-0.5-0.3-0.5-0.6c0-0.9,1.2-2.4,2.3-3.5
		c0.3-0.3,0.6-0.8,1.2-1.4c-0.9,0.6-2.7,2.3-3.3,2.9v-0.2l3.5-3c0.8-0.6,2-2,4.2-4.5l0.5-0.6H215.6z"/>
	<path class="st0" d="M215.5,41.7c0,0-0.2,0.2-0.3,0.3c-1.7,1.7-3.2,2.4-4.5,2.4c-0.8,0-1.1-0.5-1.1-1.2c0-2.4,3.3-3.3,4.2-3.3
		c0.5,0,0.8,0.3,0.8,0.6c0,0.9-1.5,1.5-3.6,1.7c-0.6,0.8-0.9,1.2-0.9,1.7c0,0.3,0.3,0.5,0.8,0.5c1.2,0,2.6-0.8,4.7-2.7L215.5,41.7
		L215.5,41.7z M214.4,40.5c0-0.3-0.2-0.3-0.5-0.3c-0.8,0-1.8,0.8-2.7,1.8C213.5,41.8,214.4,40.8,214.4,40.5"/>
</g>
<g>
	<g>
		<path class="st0" d="M101.6,23.6c-0.1,0.2-0.3,0.2-0.5,0.1l0.1-0.2l0.2-0.3c0.1-0.1,0.1-0.1,0.1-0.1
			C101.7,23.3,101.7,23.4,101.6,23.6C101.7,23.6,101.7,23.6,101.6,23.6 M101.9,23.8c0.1-0.1,0.1-0.2,0.1-0.2c0-0.2-0.1-0.3-0.2-0.4
			l-0.3-0.1c-0.1,0-0.2-0.1-0.3-0.2l-0.1,0.1c0.1,0.1,0.1,0.2,0,0.3l-0.2,0.3l-0.3,0.4c-0.1,0.2-0.2,0.3-0.3,0.2l-0.1,0.1l0.5,0.3
			l0.1-0.1c-0.2-0.1-0.1-0.2,0-0.4l0.2-0.3l0.1,0.1C101.4,24,101.7,24,101.9,23.8"/>
		<path class="st0" d="M104.5,11.5c0.3-0.4,0.6-0.7,0.9-1c0.8-0.7,1.8-1.2,3-1.6l-0.1,1.5l-0.2,1.8c0,0,0,0.1-0.1,0.1L104.5,11.5
			L104.5,11.5z M104.2,11.5c0,0.1,0.1,0.2,0.2,0.2l3.5,0.7h0.1c0.1,0,0.3-0.2,0.3-0.3l0.1-1.7l0.1-1.5c0-0.1-0.1-0.2-0.1-0.2
			c-0.1,0-0.1,0-0.2,0c-1.2,0.4-2.3,1-3.2,1.8c-0.3,0.3-0.5,0.5-0.8,0.8C104.2,11.4,104.2,11.5,104.2,11.5"/>
		<path class="st0" d="M107.9,27.3c-0.1,0-0.2,0.1-0.2,0.2c0.2,0,0.3,0.1,0.4,0c0.3-0.2,0.5-0.6,0.9-0.7v-0.1
			c-0.1,0-0.3,0.1-0.4,0.2C108.4,26.9,108.2,27.3,107.9,27.3"/>
		<path class="st0" d="M103.4,24.8l0.1-0.2l0.1-0.3h0.1c0.1,0.1,0.1,0.2,0.1,0.3l-0.1,0.1C103.6,24.9,103.5,24.9,103.4,24.8
			 M103.1,25.6c-0.1-0.1-0.1-0.2,0-0.3l0,0l0.2-0.3h0.1c0.2,0.1,0.2,0.2,0.1,0.4l-0.1,0.1C103.3,25.5,103.2,25.6,103.1,25.6
			 M103.8,24.2l-0.5-0.2l-0.1,0.1c0.2,0.1,0.1,0.2,0,0.3l0,0l-0.4,0.7l0,0c-0.1,0.2-0.1,0.3-0.3,0.2v0.1l0.5,0.2
			c0.2,0.1,0.5,0.2,0.7,0c0-0.1,0.1-0.1,0.1-0.2c0.1-0.3,0-0.5-0.2-0.5c0.1,0,0.2,0,0.3-0.1c0.1,0,0.1-0.1,0.1-0.2
			C104.2,24.4,104,24.3,103.8,24.2"/>
		<path class="st0" d="M105,25.5c-0.1,0-0.2-0.1-0.2-0.2c0,0,0,0,0-0.1l-0.1-0.3h0.1c0.2,0,0.3,0.1,0.3,0.3v0.1
			C105.1,25.4,105.1,25.5,105,25.5 M104.5,24.2C104.5,24.2,104.6,24.2,104.5,24.2c0.2-0.1,0.3,0,0.4,0.2v0.1c0,0.1-0.1,0.2-0.2,0.2
			l-0.1-0.2L104.5,24.2z M104.9,24.8c0.1,0,0.2-0.1,0.3-0.2c0,0,0-0.1,0-0.2c-0.1-0.3-0.4-0.3-0.6-0.3l-0.5,0.1v0.1
			c0.2-0.1,0.2,0,0.3,0.3l0,0l0.2,0.7l0,0c0,0.2,0.1,0.3-0.1,0.3v0.1l0.5-0.1c0.2,0,0.5-0.1,0.5-0.3v-0.2
			C105.3,24.8,105.1,24.7,104.9,24.8"/>
		<path class="st0" d="M103.2,24L103.2,24l-0.4-0.3l-0.1,0.1c0.1,0,0.1,0.1,0.1,0.2c-0.1,0.1-0.2,0.2-0.3,0.3l-0.5,0.4l0.3-0.8
			c0,0,0-0.1,0.1-0.2s0.1-0.1,0.2,0l0.1-0.1l-0.6-0.3l-0.1,0.1c0.1,0.1,0.1,0.1,0,0.3l-0.4,1.3l0.1,0.1l1.1-0.9
			C103,24,103,24,103.2,24"/>
		<path class="st0" d="M100.5,23.8L100.5,23.8c-0.3,0.2-0.4,0.2-0.6,0.1s-0.1-0.2,0-0.4l0.2-0.3c0.1,0.1,0.2,0.2,0.1,0.4h0.1
			l0.3-0.5h-0.1c-0.1,0.2-0.2,0.2-0.4,0.1l0.3-0.4l0.1-0.1c0,0,0.1,0,0.2,0c0.1,0.1,0.2,0.2,0.1,0.4h0.1l0.2-0.4l-0.9-0.5l0,0
			c0.1,0.1,0.1,0.2,0,0.4l-0.5,0.7c-0.1,0.2-0.2,0.3-0.3,0.2v0.1l0.9,0.5l0.1-0.2L100.5,23.8z"/>
		<path class="st0" d="M106.5,24.9c0,0.3-0.1,0.4-0.3,0.4c-0.2,0-0.2-0.1-0.3-0.4l-0.2-0.7c0-0.2-0.1-0.3,0.1-0.3v-0.1l-0.6,0.1V24
			c0.2,0,0.2,0.1,0.3,0.3l0.2,0.8c0,0.2,0.1,0.3-0.1,0.3v0.1l1.1-0.2L106.5,24.9L106.5,24.9z"/>
		<path class="st0" d="M109,24.3l0.1-0.2l0.1-0.4l0.2,0.4l0.1,0.2H109z M109.8,24.5l-0.2-0.4l-0.3-0.8h-0.1l-0.2,0.8l-0.1,0.3
			c0,0.2-0.1,0.4-0.2,0.4v0.1h0.4v-0.1c-0.1,0-0.1,0-0.2-0.1v-0.3h0.4l0.1,0.3c0,0.1-0.1,0.1-0.2,0.1v0.1h0.5h0.1v-0.1
			c-0.1,0-0.1,0-0.1-0.1C109.8,24.7,109.8,24.6,109.8,24.5"/>
		<path class="st0" d="M109.8,10L109.8,10l1,3.1h3.5l-2.9,1.8l1.2,3.1l-2.8-1.9l-2.9,1.9l1.2-3.1l-2.9-1.8h3.5L109.8,10z
			 M104.2,12.8l3.6,2.2l-1.4,3.7l3.5-2.4l3.5,2.4l-1.5-3.8l3.6-2.2h-4.3l-1.3-3.8l-1.3,3.8L104.2,12.8z"/>
		<path class="st0" d="M108.4,24.5c0,0.3-0.1,0.5-0.3,0.5c-0.3,0-0.4-0.3-0.5-0.6c-0.1-0.3,0-0.7,0.3-0.7c0.2,0,0.3,0.1,0.4,0.4h0.1
			l-0.1-0.5h-0.1v0.2c-0.1-0.1-0.2-0.1-0.4-0.1c-0.4,0.1-0.6,0.4-0.5,0.9s0.4,0.7,0.8,0.7c0.1,0,0.3-0.1,0.4-0.2l0.1,0.1h0.1
			L108.4,24.5L108.4,24.5z"/>
		<path class="st0" d="M107.2,24.8L107,24c0-0.2-0.1-0.3,0.1-0.3v-0.1l-0.6,0.1v0.1c0.2-0.1,0.2,0.1,0.2,0.3l0.2,0.8
			c0,0.2,0.1,0.3-0.1,0.3v0.1l0.6-0.1v-0.1C107.3,25.1,107.2,25,107.2,24.8"/>
		<path class="st0" d="M111.2,8.9c1.1,0.3,2,0.8,2.9,1.5c0.3,0.3,0.7,0.7,1,1l-3.5,0.8c0,0-0.1,0-0.1-0.1l-0.1-1.7L111.2,8.9
			L111.2,8.9v3.3c0,0.1,0,0.1,0,0.1c0.1,0.1,0.2,0.2,0.4,0.2l3.5-0.8c0.1,0,0.1-0.1,0.2-0.2c0-0.1,0-0.2,0-0.2
			c-0.3-0.3-0.5-0.6-0.8-0.9c-0.9-0.8-2-1.4-3.2-1.7c-0.1,0-0.1,0-0.2,0s-0.2,0.1-0.2,0.3l0.1,1.5l0.2,1.7V8.9z"/>
		<path class="st0" d="M109.9,19.8c-0.8,0-1.7-0.2-2.4-0.4l2.4-2.5c0,0,0,0,0.1,0h0.1l2.3,2.5C111.5,19.7,110.7,19.8,109.9,19.8
			 M110.1,16.8l-0.1-0.1c-0.1,0-0.1-0.1-0.2,0c-0.1,0-0.2,0-0.3,0.1l-2.4,2.4c-0.1,0.2,0.1,0.4,0.1,0.4c0.8,0.3,1.6,0.4,2.5,0.4
			c0.8,0,1.6-0.1,2.5-0.3c0.1,0,0.4-0.2,0.1-0.4L110.1,16.8z"/>
		<path class="st0" d="M117.7,24.5l-0.1-0.3l-0.1-0.2l0.3,0.2l0.2,0.2L117.7,24.5z M118.6,24.6c-0.1,0-0.1-0.1-0.2-0.2l-0.2-0.2
			l-0.8-0.7l-0.1,0.1l0.2,0.6l0.2,0.5c0,0.2,0.2,0.4,0,0.5l0.1,0.1l0.4-0.2l-0.1-0.1c-0.1,0-0.1,0.1-0.2,0l-0.2-0.3l0.4-0.2l0.2,0.2
			c0.1,0.1,0,0.1-0.1,0.2V25l0.5-0.3L118.6,24.6C118.7,24.6,118.7,24.6,118.6,24.6"/>
		<path class="st0" d="M118.4,8.3c-0.1,0.1,0,0.2,0,0.3s0.1,0.2,0.2,0.1c0-0.1-0.1-0.2-0.1-0.2C118.5,8.4,118.5,8.2,118.4,8.3"/>
		<path class="st0" d="M112.4,23.6c0.2,0,0.1,0.1,0.1,0.3l-0.3,0.8c0,0.2-0.1,0.3-0.2,0.3v0.1l0.6,0.1v-0.1c-0.2,0-0.1-0.1-0.1-0.3
			l0.2-0.8c0.1-0.2,0.1-0.3,0.3-0.3v-0.1L112.4,23.6L112.4,23.6z"/>
		<path class="st0" d="M119.1,22.7c0-0.1,0-0.1,0.1-0.1l-0.1-0.1l-0.4,0.2v0.1c0.2-0.1,0.3,0.1,0.4,0.2l0.4,0.5l-1.3-0.5l-0.3,0.2
			l0.1,0.1c0.1,0,0.1,0,0.3,0l0.6,0.8c0.1,0.2,0.2,0.2,0.1,0.3v0.1l0.4-0.2l-0.1-0.1c-0.1,0.1-0.3-0.1-0.4-0.2l-0.5-0.6l1.5,0.6h0.1
			l-0.7-1C119.2,23,119.1,22.8,119.1,22.7"/>
		<path class="st0" d="M116.9,19.9c0.1-0.1,0.3-0.3,0.3-0.4c0,0.1-0.1,0.3-0.2,0.4s-0.1,0.1-0.2,0.2c0,0,0,0-0.1,0
			C116.8,20,116.9,20,116.9,19.9 M118.3,18.9c-0.1,0.1-0.1,0.2-0.2,0.3c0,0-0.1-0.1-0.1-0.3c0-0.2,0.1-0.5,0.2-0.5
			C118.4,18.6,118.3,18.9,118.3,18.9 M118.4,19.5c-0.1-0.2,0.1-0.4,0.1-0.6v-0.1v-0.1c0,0,0,0,0.1,0.1l0,0
			C118.8,19.1,118.6,19.4,118.4,19.5 M119.1,19.7c-0.1,0.2-0.3,0.3-0.4,0.5c0,0.1-0.1,0.1-0.2,0.1s-0.1-0.1-0.2-0.1
			c-0.1,0.2-0.4,0.2-0.5,0.3c-0.4,0.3-0.4-0.2-0.4-0.1c-0.2,0.2-0.4,0.5-0.7,0.7c-0.1,0.2-0.2,0.5-0.3,0.5l-0.1,0.1
			c0,0.1-0.1,0.1-0.2,0.1s-0.1-0.1-0.2,0s-0.1,0-0.2,0c-0.1,0.1-0.5,0.6-0.8,0.6c-0.1,0-0.2,0-0.2-0.1c-0.3,0-0.5,0.4-0.6,0.4v0.1
			h0.2c0,0.1-0.2,0.2-0.3,0.3c0,0-0.2,0.1-0.3,0.1c0,0-0.4,0-0.9-0.2v-0.2l0.5-0.3c0,0.1,0.1,0.2,0.2,0.3c0.1,0,0.1,0,0.1-0.1
			c0-0.2-0.4-0.2-0.1-0.4c0.2-0.1,0.2,0,0.5-0.1c0.2,0,0.5-0.2,0.6-0.3c0,0,0.3-0.1,0.7-0.8c0,0,0.2-0.4,2-3.2c0,0,0.4-0.4,1.1-1.7
			c0.1-0.1,0.1,0.1,0.2,0.1c0.1-0.2-0.1-0.3-0.1-0.4c-0.1-0.2-0.1-0.4-0.1-0.6c0-0.1,0.1,0,0.2,0.1c0,0.2,0.1,0.3,0.1,0.5
			c0.3,0,0.4-1.5,0.4-1.8V14c-0.1-0.2-0.5-0.3-0.5-0.4c0.3-0.1-0.1-0.6-0.2-0.4c0,0.1,0.1,0.1,0,0.2c-0.5,0-0.4-0.4-0.5-0.5
			s-0.3,0-0.3-0.2c0-0.1,0-0.2-0.1-0.3c-0.1,0-0.3,0.1-0.3-0.2c0-0.2,0.6,0.3,0.4-0.2c-0.2-0.4-0.6-0.1-0.7-0.2
			c-0.1-0.2-0.5-0.8-0.5-1c0-0.1,0.3,0.2,0.3,0s-0.2-0.4-0.3-0.3c-0.3,0.2-0.4,0-0.4-0.1s0-0.2,0-0.3c-0.1-0.1-0.2-0.1-0.3-0.2
			c0-0.1-0.1-0.2,0-0.2c0.6-0.2,0-0.4,0.1-0.6c0.1-0.1,0.4,0.1,0.6-0.2c0.2-0.1,0.2-0.1,0.2,0c0.2,0.2-0.1,0.5,0.3,0.5
			c0.1,0,0.2-0.2,0.3-0.1c0.2,0.2,0.2,0.3,0.3,0.6c0.1,0.4-0.1,0.4-0.1,0.5l-0.1,0.1c0,0.1,0,0.2,0.1,0.3c0.1,0,0.2-0.1,0.3-0.2
			c0-0.1,0.1-0.1,0.1,0c0.1,0.1,0,0.2,0.1,0.3c0.5,0.4,0,0.7,0,0.7c-0.1-0.1,0-0.3-0.1-0.4c-0.1,0.2,0.1,0.4,0,0.6
			c0,0-0.1-0.3-0.8-1.2c0-0.2-0.1-0.4,0-0.6c0,0,0-0.1-0.1,0c-0.1,0,0,0.1-0.1,0.1c-0.1-0.3-0.2-0.5-0.4-0.8l-0.1,0.1
			c0.1,0.4,0.3,0.7,0.4,1.1h-0.1l-0.3-0.3h-0.1c0,0.2,0.3,0.4,0.5,0.5l0.6,0.8c-0.1-0.1-0.3-0.1-0.4-0.1c0,0,0,0,0,0.1
			c0.5,0.2,0.9,0.7,1,1.1c-0.1,0-0.1-0.1-0.2,0c0,0.1,0.3,0.3,0.5,0.4v-0.1c-0.2-0.4-0.5-0.7-0.4-1.1c0.1,0.1,0.2,0.5,0.3,0.1
			c0.1,0,0.1,0.3,0.1,0.3c0.2,0.2,0.3,0.2,0.2,0.4c-0.1,0.1-0.1,0.2-0.1,0.4c0.1,0.2,0.4,0.1,0.3,0.3c0,0.1-0.1,0.2-0.1,0.3
			c0.1,0.1,0.2,0.2,0.3,0.3c0.1-0.1-0.1-0.3-0.1-0.4c0.1-0.2,0-0.4-0.1-0.5s0-0.2,0-0.3l0,0c-0.1,0.2,0.4,0.3,0.2,0.5
			c0.1,0.3,0.3,0.5,0.2,0.7c0.1,0.1,0.1,0,0.2-0.1s0.2-0.3,0.1-0.5c-0.1,0-0.1-0.1-0.2-0.1c0-0.2-0.1-0.3-0.1-0.4
			c0.1,0,0.1,0,0.1-0.1c0-0.3-0.4-0.4-0.5-0.6c0-0.2-0.3-0.3-0.3-0.5c0.1-0.1,0.4,0,0.3-0.2c-0.3-0.3-0.6-0.5-0.8-0.9
			c0,0-0.1-0.2,0-0.3c0.1,0,0.2,0,0.2-0.1c0-0.2-0.2-0.3-0.4-0.4c-0.2-0.2-0.2-0.4-0.3-0.6c0.6-0.4,0.6-0.6,0.8-0.9
			c0-0.1-0.3-0.4,0.3-0.2c0.1,0,0.3-0.1,0.3-0.2c0.2,0.1,0.1,0.7,0.3,0.7c0.1,0,0.1-0.2,0.3-0.1c0,0,0,0.4,0.3,0.7
			c0,0.2-0.1,0.4,0,0.6c0,0,0.1,0.1,0.3-0.1c0,0.7,0.2,0.8,0.2,0.8c-0.1,0.2-0.6,0.9-0.1,1c0.1,0,0-0.3,0.1-0.4
			c0.1-0.1,0.3,0.1,0.3,0.5c0,0.3-0.6,0.6-0.2,1c0-0.1,0.1-0.1,0.1-0.1c0.1,0.1,0.1,0.3,0.1,0.4c-0.3,0.1-0.2,0.4-0.2,0.6
			c-0.1,0.2-0.5,0.2-0.4,0.5c0,0.3-0.3,0.3-0.4,0.5c0,0-0.6,2.9-1,3.2c-0.1,0.1-0.5,0.9-0.9,1.2c-0.1,0.1-0.2,0-0.3,0.1
			c0,0.1,0,0.2,0,0.2c-0.1,0.1-0.3,0.6-0.5,0.7c-0.1,0.1-0.1,0.3-0.2,0.4c-0.1,0.2-0.6,0.7-0.6,1.1c0,0.6,0.1,0.6,0.1,0.6
			c0.2-0.1,0.1-0.3,0.2-0.5c0.3-0.3,0.7-0.7,1-1c0-0.1,0.1-0.1,0.1-0.2c0.2-0.1,0.2-0.8,0.3-0.9c0,0,0.1,0,0.2,0
			c0,0.3,0.1,0.5,0,0.7c-0.1,0-0.2,0-0.2,0c0,0.1,0.1,0.1,0.1,0.2c-0.1,0.1-0.1,0.2-0.2,0.2c0.1,0.2,0.1,0,0.2,0
			c0.2,0.1,0.3-0.2,0.4,0c0.2-0.2,0.5-0.4,0.6-0.6c0.2-0.2,0.2-0.4,0.3-0.6c0,0,0,0,0.1,0c0.2-0.2,0.3-0.4,0.6-0.4l0.1-0.1
			c-0.1-0.1-0.3,0.1-0.4,0.1c0.1-0.4,0.4-0.7,0.4-1.1c0.1-0.3,0.4-0.4,0.7-0.5c0.1-0.1,0.1-0.1,0.1-0.2c-0.1,0.2-0.3,0.2-0.5,0.3
			c-0.1-0.5,0.9-1.3,0.9-1.6h-0.1c-0.2,0.2-0.2,0.5-0.5,0.5c0.2-1,0.3-1.4,0.3-1.4s0-0.1-0.1-0.1c-0.2-0.1-0.4,1.3-0.4,1.3
			c-0.3-0.1-0.1-0.5-0.2-0.7c-0.1,0-0.1,0.1-0.1,0.1s-0.1,0.3,0.1,0.7c-0.1,0.5-0.2,1-0.3,1.4l-0.1,0.1c0-0.2-0.1-0.3-0.1-0.5
			s0-0.3-0.1-0.4c-0.2,0.2-0.1,0.5,0,0.7c0,0.4,0,0.8-0.2,1.1c-0.1,0.1,0,0.2,0,0.2c-0.1,0.2-0.2,0.3-0.3,0.5c-0.3-0.3,0-1,0-1.1
			c0-0.2-0.2-0.1-0.2-0.3c0-0.1,0.2-0.2,0.1-0.3c0-0.1,0.2-0.2,0.2-0.3c-0.2-0.4,0.3-0.8,0.3-1.1c0-0.1,0.2,0.1,0.2-0.1
			c0-0.2-0.1-0.5,0.1-0.6c0.1-0.2-0.1-0.4,0.1-0.5c0.1-0.1,0.2-0.1,0.3-0.1c0.1,0.1,0,0.3,0.2,0.3c0.1-0.1,0.1-0.6,0.1-0.6
			s0.1-0.1,0.3-0.1c0.1,0,0.1,0.2,0.3,0.2c0.2,0.1,0.5,0.1,0.5,0.2c0,0.2-0.4,0.3-0.1,0.5c0,0,0.3,0,0.3,0.1c0,0.2-0.2,0.3-0.2,0.5
			c0,0.3-0.3,0.3-0.4,0.5c0,0.1,0.1,0.1,0.2,0.1s0.1,0,0.1,0.1c0,0.1,0,0.3-0.1,0.4s-0.3,0.1-0.3,0.2c0,0.3-0.2,0.6-0.4,0.8
			c0,0-0.5,0.1-0.3,0.3c0.1,0.1,0.3-0.1,0.3,0c-0.6,0.9-0.8,1.1-0.8,1.1c-0.2,0.3-0.6,0.1-0.6,0.5C119.1,19.5,119.2,19.6,119.1,19.7
			 M119.2,20.4c0.2,0.3,0.2,0.5,0.2,0.5v0.2c0,0.1-0.3,0.1-0.3,0.1c0-0.1,0.1-0.1,0-0.2c-0.1,0-0.2,0.1-0.2,0.1
			c-0.1-0.1,0.1-0.1,0.1-0.2c0,0-0.4,0.3-0.5,0.2c0-0.1,0.5-0.3,0.4-0.4s-0.4,0.2-0.5,0.2l0,0C118.3,20.8,118.5,20.5,119.2,20.4
			 M119.9,21.2c0,0.2-1.1,0.5-1.1,0.5c-0.1,0,0,0.1-0.1,0.1c0,0.1,0.1,0.1,0.1,0.1c0,0.1-0.1,0.1-0.1,0.1c0.1,0.1-0.1,0.2-0.1,0.2
			c-0.1,0-0.2-0.4-0.3-0.4l-0.1-0.1c0-0.1,0-0.1,0-0.1c0.2,0,0.5-0.1,0.7-0.1C119.1,21.4,119.7,21.2,119.9,21.2 M115.2,22.6
			c0-0.2,1.1-0.4,1.2-0.5c0.3-0.1,0.4-0.3,0.5-0.4c0.1-0.2,0.1-0.4,0.2-0.5c0.1-0.2,0.5-0.4,1-0.5c0.1,0,0.3-0.1,0.1,0.2
			c-0.1,0.1-0.1,0.3-0.2,0.5c0,0.1,0.1,0.2,0.2,0.4c0,0.1,0.1,0.1,0.1,0.2c0.1,0.2,0.2,0.3,0.2,0.5c-0.1,0.1-1.8,1.1-2.2,1.1
			c-0.3,0.1-0.6,0-1,0c-0.1-0.2-0.1-0.4-0.1-0.4C115.1,22.9,115.1,22.7,115.2,22.6 M114.5,23.1c0.1-0.1,0.2-0.2,0.3-0.2
			c0.1,0,0.1,0.1,0.1,0.2s0,0.3-0.1,0.3s-0.2,0-0.3-0.1c0,0,0.1-0.2-0.2-0.1C114.5,23.2,114.5,23.1,114.5,23.1 M120.2,21.1
			c0,0,0.1-0.2,0.5,0c0,0.1,0.1,0.3,0.2,0.5c0,0,0.2,0.6,0.5,1.4c0.1,0.2-0.1,0.3-0.1,0.4c-0.6,0.5-2.9,1.7-3.2,1.9
			c-0.4,0.2-1,0.4-1.7,0.4c-1.8,0.1-4.2-0.3-4.6-0.6c0.5-0.6,0.3-1.1,0.3-1.2c-0.2-0.3-0.5-0.8-0.6-0.9l0.1-0.1
			c3.5,0.6,4.8,0.7,4.8,0.6c0.5,0,2.9-1.4,3.8-2c0.3-0.2,0.5-0.4,0.5-0.5C120.5,21.1,120.4,21.1,120.2,21.1 M114.6,26.5
			c0.1,0.1,0.2,0.3,0.3,0.4c0.1,0.2,0.3,0.4,0.3,0.4c0.1-0.1-0.2-0.2,0.1-0.3c0.3,0,0.3,0.7,1.1,0.4c0.2,0.2,0.6,0.1,0.8,0.2
			c0,0,0,0.1-0.1,0.1c-0.5,0-1.2,0-1.6,0.3c-0.1,0.1,0,0.2-0.1,0.2c-0.1-0.1,0-0.3,0.1-0.4s0.4,0,0.2-0.2c0,0-0.1-0.1-0.6,0.4
			c-0.1-0.1-0.1-0.2-0.1-0.2c-0.4,0.1-0.5-0.3-0.8-0.4c-0.1-0.1,0.1-0.1,0-0.2c-0.2-0.1-0.3-0.2-0.5-0.2c-0.6-0.2-0.1-0.4-0.3-0.5
			c-1-0.3-0.9-0.5-0.9-0.5c0.1-0.2,0.2,0,0.3-0.1c0-0.1-0.1-0.1-0.1-0.2c0.1-0.1,0.5,0.3,0.5,0.2c0.1-0.1-0.1-0.2,0.1-0.2
			C113.6,25.6,114.4,26.5,114.6,26.5c0.1-0.1,0-0.1,0-0.1C114.4,26.5,114.5,26.5,114.6,26.5 M111.3,25c-0.2-0.2,0.2-0.8-0.1-0.8
			c-0.1,0,0,0.1,0,0.2c-0.1,0.3-0.1,0.6-0.3,0.8c-0.1,0-0.1,0,0-0.1c0.1-0.2,0.2-0.5,0.2-0.7c0,0-0.1-0.1-0.1,0.2
			c0,0.2-0.2,0.4-0.3,0.6c0,0.1-0.2,0.2-0.3,0.2c0-0.3,0.2-0.5,0.2-0.8c0.1-0.2,0.1,0.1,0.1,0.1c0.1-0.1,0.1-1-0.3-1.2
			c-0.1,0.1,0.3,0.5,0.1,0.8h-0.1c-0.1-0.6-0.3-0.9-0.5-1.1c-0.3-0.3-0.7-0.2-0.8-0.2c0.1-0.1,0.2-0.2,0.3-0.2c0.1,0,0.3,0,0.5,0.1
			c0.3,0.1,0.5,0.2,0.6,0.3c0,0,0.1-0.1,0-0.1s-0.1-0.1-0.1-0.1c0.4-0.2,1.5,1.4,1.3,1.9C111.6,24.8,111.5,25,111.3,25 M99.6,22.4
			C99.6,22.4,99.5,22.4,99.6,22.4c-0.2,0.3-0.3,0.3-0.5,0.2H99l0.1-0.2l0.1-0.2l0.1-0.2h0.1C99.6,22.1,99.6,22.2,99.6,22.4
			 M109.9,25.2c-0.8,0.1-5.3,0.8-5.7,0.8c-0.5,0.1-1,0-1.3-0.1c-0.3-0.1-4-1.9-4.4-2.6c-0.1-0.1-0.1-0.3-0.1-0.3l0.1,0.1l0.2,0.2
			l0.1-0.1c-0.2-0.1-0.1-0.2,0-0.3l0.2-0.3c0.1,0,0,0.2,0,0.3l-0.1,0.5l0.3,0.2l0.1-0.1c-0.1,0-0.1-0.1-0.1-0.1l0.1-0.7
			c0.2,0.1,0.3,0,0.5-0.2c0.1,0,0.1-0.1,0.1-0.2s0-0.2,0-0.2c-0.1-0.1-0.2-0.2-0.2-0.2l-0.3-0.2l-0.3,0l0,0c0.1,0.1,0.1,0.2,0,0.3
			l-0.2,0.3l-0.4,0.4c-0.1,0.1-0.1,0.1-0.1,0.2V23c0-0.1,0-0.2,0-0.2c0.3-0.5,0.4-1,0.5-1.5c0.1-0.1,0.2-0.1,0.2-0.1
			c-0.1,0-0.1,0.1,0,0.2s0.8,0.5,1.6,0.9c1.4,0.7,3.1,1.6,3.1,1.6c0.2,0,1.5-0.2,2.7-0.4c1.3-0.2,2.6-0.4,2.9-0.3
			c0.1,0,0.2,0.2,0.3,0.4c0.2,0.4,0.4,1.1,0.4,1.4C110.2,25.2,109.9,25.2,109.9,25.2 M106.3,27.1L106.3,27.1
			c-0.1,0.2-0.4,0.5-0.6,0.5s-0.3-0.1-0.3,0c0,0.2,0.2,0.1,0.3,0.2c0.1,0.3-0.2,0.4-0.3,0.5c0.1-0.6-0.5-0.6-0.8-0.6
			c0,0-0.5,0.2-0.5,0s0.5-0.3,0.8-0.4c0,0,0.1,0,0.1-0.1c0.2-0.4,0.7-0.5,1.1-0.7c0.1,0,0.4,0.2,0.7-0.2c-0.1-0.1,0.1-0.2,0.1-0.2
			c0.1,0,0,0.1,0,0.1c0.2,0,0.2-0.2,0.4-0.2c0.1,0,0.1,0,0.1,0.1c0.1,0.1,0.1,0,0.2,0C107.6,26.2,106.8,26.9,106.3,27.1 M100.1,21.2
			c0.1,0.1,0.4,0.2,0.7,0.3c0.2,0,0.4,0.1,0.6,0.1c-0.1,0.2-0.3,0.6-0.3,0.7c-0.1,0-0.2-0.1-0.3-0.1c-0.1-0.1-0.2-0.1-0.3-0.2
			c-0.1,0,0.1-0.1,0-0.2l0.1-0.1c0.2,0.1,0.2,0,0.1-0.1c-0.4-0.2-0.7-0.3-1-0.5C99.8,21.1,99.9,21.2,100.1,21.2 M100.6,20.4
			L100.6,20.4c0.3,0.1,0.4,0.1,0.5,0.2c0,0.1-0.1-0.1-0.2,0s0.3,0.2,0.3,0.4c0,0-0.2-0.2-0.3-0.1s-0.1,0.2-0.1,0.3h-0.1
			c-0.1,0-0.2,0-0.4-0.1C100.3,20.9,100.5,20.6,100.6,20.4 M105.2,22.9c0.1,0,0.3,0.1,0.4,0.2s0.2,0.2,0.2,0.2s-0.6,0.2-0.8,0.2
			c0.1-0.1,0.1-0.3,0.1-0.4C105.2,23,105.2,23,105.2,22.9 M104.6,22.1c-0.1-0.1-0.2-0.1-0.3-0.2c0.1-0.1,0-0.1-0.1-0.1
			c0,0.1-0.1,0.2-0.2,0.2s-0.2,0-0.2-0.1c0.1,0,0.2,0,0.2-0.1s0-0.2-0.1-0.2s-0.1,0.2-0.2,0.2c-0.5-0.2-1.2-1.1-1.2-1.3
			c-0.1-0.1-0.3,0-0.4-0.1c-0.1,0-1.1-0.9-1.3-1.2c-1.9-1.8-2-2.6-2-3.5c0-0.3-0.1-0.5-0.1-0.8c0-0.1,0-0.2,0-0.2
			c0.1-0.1,0.3,0.2,0.4,0.2c0.5,0.5,1,1.7,1.2,2.3c0,0.1,0.1,0.2,0.1,0.3c0.1,0.2,0.1,0.4,0.2,0.6c-0.1-0.1-0.2-0.3-0.3-0.4
			c0-0.1-0.1,0-0.1,0c-0.1,0.1-0.1,0-0.2-0.1c-0.5-0.8-0.8-1.6-1-2.4l-0.1-0.1c-0.1,0,0.1,0.7,0.4,1.4c-0.1,0-0.1-0.1-0.2-0.1
			c0,0.3,0.7,0.8,0.8,1.1v0.2c0.4,0.5,0.7,1.1,1.1,1.6c0.1,0.2,0.3,0.3,0.4,0.5c0.1,0.1,0.2,0,0.2,0.1c0.1,0.2,0.2,0.3,0.4,0.4
			c0.1,0,0.2,0.1,0.2,0s-0.1-0.2-0.1-0.3c0.1,0.1,0.2,0.2,0.3,0.2l0.3-0.1c0.1,0.1-0.1,0.3-0.1,0.4c0.2,0.3,0.8,1,0.9,0.9
			c0.2-0.2,0.3,0.2,0.4,0c0.1-0.1,0-0.2-0.1-0.2c-0.4,0.1-0.4-0.3-0.6-0.5c-0.2-0.3-0.2-0.7-0.5-1c-0.3-0.4-0.5-0.8-0.9-1.1
			c-0.1,0,0-0.2,0.1-0.2c0.2,0,0.1,0.4,0.3,0.4c0.1,0,0.1-0.3,0.2-0.3c-0.1,0.4,0.3,1.2,0.9,1.4c0.1,0.1,0.1,0.1,0.1,0.2
			s-0.1,0-0.1,0c-0.1,0.1,0.1,0.2,0.1,0.2c0,0.6,1.7,2.2,3,2.4c0,0.1,0.1,0.1,0.1,0.1c0.1,0.1,0.3,0,0.3,0.3c0.1,0,0.1,0.1,0.1,0.2
			c-0.2,0.1-0.3,0.1-0.4,0c-0.2,0-0.3-0.1-0.4-0.1C106,23,104.7,22.1,104.6,22.1 M100.5,17.3c0.1,0,0.2,0.2,0.3,0.4
			c0.1,0.1,0.1,0.2,0.2,0.3v0.4h-0.1c-0.1-0.2-0.2-0.5-0.3-0.7C100.7,17.5,100.6,17.4,100.5,17.3 M100.3,12.3c0,0.2,0,0.5-0.1,0.7
			s0,0.4-0.2,0.6C100,13.2,100.1,12.7,100.3,12.3c-0.1,0,0-0.2,0.4-1.3c0.2,0.3-0.1,1-0.3,1C100.3,12.1,100.3,12.2,100.3,12.3
			 M100,14.8c-0.3,0.1-0.4-0.4-0.4-0.4C99,12.8,99,10.8,100,9.3c0,0,0.5-1,0.9-1.4c0.1,0,0.1,0,0.1,0.1c0.1,0.4-0.1,1.2-0.2,1.3
			c-0.1,0.5-0.7,2.5-0.9,3c-0.1,0.2-0.1,0.4-0.1,0.7c-0.1-0.1,0-0.3,0-0.4c-0.1-0.7,0.6-2.9,0.7-3.3c0.1-0.3,0.3-0.6,0.3-1l-0.1,0.1
			c-0.1,0.3-0.2,0.6-0.3,0.9c-0.4,1-0.8,2.1-0.8,3.3c-0.2,0.6-0.1,1.3,0.1,1.9c0.5,0.5,0.3-0.3,0.4-0.5c0-0.2,0.2-0.4,0.2-0.6
			c0-0.3,0.1-0.6,0.3-0.9c-0.1,0-0.1-0.1-0.1-0.1c0-0.1,0-0.1,0-0.2c0.3-0.1,0.4-0.8,0.5-0.8c0-0.1,0.1-0.2,0-0.2s-0.2,0.1-0.2-0.1
			c0.1-0.3,0-0.6,0.3-0.8c0,0,0-0.2,0.4-0.6c0,0.2-0.6,0.9-0.5,1.2c0,0.1,0.1,0,0.1,0c0.1-0.1,0.1-0.3,0.3-0.3
			c0,0.2-0.4,0.3-0.1,0.4c0.5-0.3,0.6-0.7,0.6-0.7c0.1-0.4,0.3-0.7,0.6-1c0.6-0.9,1.3-1.3,1.8-1.6c0.1-0.1,0.2-0.1,0.2,0
			s-0.1,0.3-0.2,0.1c-0.4,0.3-1,1.1-1.3,1.4c0,0-0.2,0.1-1.1,1.4c-0.1,0.2-0.3,0.4-0.6,0.5c0,0-0.1-0.1-0.1,0s-0.4,1-0.7,1.9
			c-0.1,0.5-0.3,0.9-0.3,1.3c0,0.1,0,0.2,0.1,0.3c0.3-0.2,0.4-0.5,0.5-0.7h0.1c-0.1,0.3-0.2,0.9-0.6,0.8c0,0.1,0,0.2,0,0.3
			c0,0.3,0,0.6,0.2,0.9c0.1,0,0.3,1.2,0.6,1.5c0.1,0.1,0,0.1,0,0.2c0,0,0,0.1-0.1,0.1s-0.1-0.1-0.1-0.1c-0.2-0.2-0.3-0.5-0.4-0.7
			c0-0.1,0.1-0.1,0.1-0.2c-0.1-0.1-0.2-0.1-0.2-0.2s0.2-0.1,0.1-0.2c-0.1-0.1-0.4,0-0.3-0.2c0-0.4-0.1-0.7-0.2-1.1
			C100,15,100,14.9,100,14.8 M102.6,6.6c0.4-0.4,0.7-0.7,1-0.8c0,0,0.2-0.1,0.3-0.1v0.1c0,0.3-0.1,0.5-0.3,0.8
			c-0.4,1-1.3,2.1-1.8,2.7c-0.1,0.1-0.2,0.2-0.2,0.2c0-0.1,0-0.2,0.1-0.2c0.2-0.6,1-1.9,1.6-2.7c0.1-0.1,0.2-0.3,0.3-0.4
			c0.1-0.2,0.3-0.4,0.2-0.4c-0.1,0-0.2,0.2-0.3,0.3c-0.1,0.1-0.3,0.3-0.4,0.5c-0.6,0.8-1.3,2.1-1.6,2.7c-0.1,0.1-0.1,0.2-0.1,0.3
			c-0.2,0-0.2,0.1-0.3,0.2c0.1-0.2,0.1-0.4,0.2-0.6C101.7,8,102.2,7.1,102.6,6.6 M104.9,5.8c1.3-1.1,3-1.4,3.1-1.4v0.1
			c-0.4,0.4-0.9,0.8-1.4,1.1c-0.1,0.1-0.2,0.2-0.3,0.2c-0.3,0.2-0.9,0.4-1,0.5c0,0-0.1,0-0.1-0.1c0,0,0.3-0.2,0.6-0.4
			c0.5-0.3,1.8-1,1.8-1.2c-0.7,0.3-1.4,0.7-2.1,1.2c-0.1,0.1-0.3,0.2-0.5,0.3c0,0,0,0-0.1-0.1c-0.1,0-0.4,0.3-0.7,0.6
			c0,0.1,0,0.2-0.1,0.2c0-0.1,0.1-0.2,0.1-0.2S104.5,6.1,104.9,5.8 M104,7.1c0-0.1,0.2-0.3,0.5-0.5s0.5-0.3,0.5-0.3
			c0,0.1-0.1,0.2-0.2,0.3c-0.1,0.1-0.3,0.3-0.4,0.3C104.3,7,104,7.2,104,7.1 M104.2,7.5c0,0-0.6,0.4-0.6,0.3
			C103.7,7.7,104.4,7.2,104.2,7.5 M103.6,7.8c-0.5,0.4-1,1-1.4,1.5c0,0-0.4,0.5-0.6,0.9c0,0,0,0-0.1-0.1c0-0.1,0.3-0.4,0.6-0.8
			c0.5-0.7,1.3-1.7,1.5-1.9c0.1-0.1,0.2-0.1,0.3-0.1C103.8,7.5,103.6,7.6,103.6,7.8C103.5,7.8,103.6,7.8,103.6,7.8 M108.5,5.3
			c-0.1,0.2-0.5,0.5-0.6,0.5c-0.3,0.3-0.9,0.6-1.4,0.9c-0.4,0.2-0.7,0.3-0.8,0.4c-0.1,0-0.4-0.1,0.1-0.3h0.1c0.3-0.1,1-0.5,1.6-0.8
			c0.3-0.2,0.6-0.3,0.8-0.4V5.5c-0.2,0.1-0.6,0.2-1,0.4c-0.5,0.2-1.1,0.5-1.6,0.8s-0.8,0.5-1.1,0.6h-0.1c0,0.1-0.1,0.1-0.2,0
			c0.1-0.1,0.2-0.1,0.3-0.2c0.1-0.2,0.4-0.3,0.6-0.5c0.5-0.3,1-0.6,1.5-0.9C106.9,5.6,108.4,5,108.5,5.3 M104.8,7.4
			c0,0,0-0.1,0.1-0.2c0.2-0.2,0.5-0.4,0.5-0.2c0,0.1-0.1,0.1-0.2,0.1C105,7.3,104.9,7.4,104.8,7.4 M103.7,13.9L103.7,13.9l2.6,0.9
			l0.8,0.3c0,0,0.1,0.1,0,0.1l-0.9,1.3l-1,1.5c0,0,0,0-0.1,0c-0.7-0.9-1.2-1.9-1.4-3C103.7,14.7,103.7,14.3,103.7,13.9 M102,17.8
			c0-0.1,0.1-0.1,0.1-0.2c0.1-0.1,0.1-0.1,0.2-0.2c0,0.1,0,0.1,0,0.2c0,0.2-0.1,0.3-0.1,0.5C102.1,18.3,101.9,18,102,17.8
			 M101.8,17.7c0,0,0-0.2,0.1-0.5l0.3-0.6c0.4,0-0.1,0.9-0.2,1S101.9,17.7,101.8,17.7C101.8,17.8,101.8,17.7,101.8,17.7 M101.3,17.7
			c0.1-0.5,0.3-1,0.5-1.1c-0.1-0.2,0.4-0.9,0.6-1.1l0,0c0.1,0.8-0.6,1.4-0.8,2.1v0.1c-0.1,0.4-0.3,0.9-0.1,1.3
			c0.1,0.1,0.3,0.1,0.4-0.1c0.2,0.2,0.1,0.6,0.1,0.8l0,0c-0.2,0-0.2-0.5-0.2-0.5c-0.1,0-0.1,0.1-0.3,0
			C101.2,18.9,101.2,18.3,101.3,17.7 M101.6,16.2c0,0.1,0,0.2-0.1,0.2s-0.1,0-0.1-0.1C101.2,16.2,101.5,16.2,101.6,16.2 M102,13.1
			l-0.1,0.4l-0.6,0.1v1.1c0,0-0.2,0-0.3-0.1c-0.1-0.4,0-0.6,0-0.6c0.1-0.2,0.3-0.5,0.6-0.7c0.1-0.1,0.2-0.2,0.3-0.3s0.1-0.2,0.2-0.2
			L102,13.1z M103.4,9.3c-0.1,0.3-0.4,0.5-0.7,0.6c0.2-0.3,0.5-0.6,0.5-0.6c0.3-0.4,0.8-1,1.1-1.3l0.1-0.1
			C104.4,8.2,103.9,9,103.4,9.3 M104.1,9.3l-0.2,0.2V9.4c0.1-0.2,0.4-0.4,0.4-0.5l0.1,0.2L104.1,9.3z M101.1,13
			c0.1-1.3,2.3-3.6,2.7-3.6c0.4,0-0.8,2.2-1.5,2.8c-0.2,0.3-0.5,0.5-0.8,0.8c0,0.1-0.1,0.2-0.1,0.3l-0.1,0.1c0-0.1,0-0.2,0.1-0.3
			c0.4-0.8,1.8-2.6,2.3-3.2c0,0,0.1-0.1-0.1-0.1c0,0-1,0.8-2.3,3.3l-0.2,0.4l-0.1,0.1C101,13.3,101,13.2,101.1,13 M100.7,13.1
			c0.2-1,0.7-1.8,1-1.9c0,0.2-0.1,0.3-0.3,0.4c-0.2,0.5-0.4,1-0.5,1.4c-0.1,0.3-0.1,0.5-0.2,0.8l0,0
			C100.6,13.6,100.7,13.3,100.7,13.1 M100.6,15.1c0.1,0,0.1,0,0.2-0.1c0-0.1,0.1-0.1,0.1-0.2c0.3,0,0.6,0,0.7,0.1l0,0
			c0.1,0.2,0.1,0.4,0.1,0.6c0.1,0.3-0.6,0.3-0.7,0.5c0,0.3,0.2,0.5,0.1,0.8c-0.1-0.3-0.3-0.6-0.4-0.9
			C100.5,15.6,100.5,15.3,100.6,15.1 M103.2,15c0-0.2,0-0.3,0-0.4v-0.1C103.2,14.5,103.1,14.7,103.2,15c-0.2,0.9-0.3,2.6-0.2,3.5
			c0,0.1,0,0.5,0,0.5h-0.1c-0.1-0.2,0-0.4-0.1-0.6c-0.1-0.3-0.1-0.5-0.2-0.8v-0.2c-0.3-0.4-0.1-1.6,0.2-2.5c0.1-0.4,0.3-0.7,0.4-0.7
			c0.2,0,0.3,0.3,0.3,0.7c0.1,0.7,0,1.6-0.2,1.8c0,0.3-0.1,0.6-0.1,1c0,0.1,0.1,0.2-0.1,0.2c-0.1,0,0-0.1,0-0.2
			C102.9,17.6,103.2,15.9,103.2,15 M108.3,22.9c0,0,0,0.1-0.1,0.1c0,0-0.1,0-0.6-0.1c-0.3-0.1-0.6-0.4-0.8-0.3c-0.1,0-0.1,0-0.2-0.1
			c-0.3-0.1-0.8-0.4-1-0.5c-0.1,0,0.1-0.4,0.7-0.3c0.1,0,0.3,0.1,0.3,0.1C107,22,107.8,22.3,108.3,22.9 M114.4,21.4
			c-0.3,0-1.2,0.4-1.8,0.6c-0.3,0.1-0.4,0.2-0.5,0.2c-0.3,0.1-0.4,0.4-0.6,0.6c-0.2,0-0.4,0.1-0.6-0.1c-0.1-0.2-0.6-0.1-0.7-0.1
			c-0.1,0.1-0.2,0-0.3,0c-0.1-0.1-0.2-0.1-0.3-0.1c-0.3,0-0.6,0-0.7,0.2c-0.1,0.1-0.5,0.1-0.7-0.2c-0.4-0.4-1.1-0.7-1.6-0.9
			c-0.2-0.1-0.4-0.1-0.4-0.1c-0.2,0-0.5,0-0.7,0.4c-1.5-0.8-1.7-2-1.7-2c-0.3-0.6-0.4-0.7-0.4-0.7L104,19l0.5,0.5l-0.2,0.5l1.2,0.8
			l0.5-0.3l0.6,0.3v0.5l1.4,0.4l0.3-0.5l0.7,0.1l0.1,0.5h1.5l0.1-0.5l0.7-0.1l0.3,0.5l1.4-0.4v-0.5l0.6-0.3l0.5,0.3l1.2-0.8
			l-0.2-0.5l0.5-0.5l0.5,0.2c0,0,0.1,0-0.4,0.6c0,0-0.2,1.1-1.2,2C114.6,21.7,114.5,21.5,114.4,21.4 M111.7,22.8
			c0-0.2,0.2-0.3,0.3-0.4c0.1-0.1,0.6-0.3,1-0.4s1.4-0.6,1.5-0.2c0,0.1,0,0.2-0.1,0.2h-0.1c-0.2,0-0.5,0.2-0.8,0.1
			c-0.2,0.1-0.9,0.6-1.2,0.7c-0.1,0-0.3,0.1-0.2-0.1C112.1,22.6,111.8,22.8,111.7,22.8 M118.6,14.2c0,0.1,0,0.4-0.2,0.4v-0.9
			c0,0,0.3,0,0.1,0.2C118.5,14,118.6,14.2,118.6,14.2 M117.4,17.2c0-0.2,0-0.3,0.1-0.4c0-0.1,0-0.1-0.1-0.1s-0.2,0.3-0.2,0.4
			c-0.1-0.2,0-0.4-0.1-0.6v-0.3c0-0.4,0.1-0.8-0.1-1.1c0-0.1-0.1-0.5-0.1-0.7c-0.1,0-0.1,0-0.1,0c0,0.1,0.1,0.6,0.1,0.7
			c-0.1-0.1-0.3-0.1-0.4-0.1c-0.1-0.1-0.1-0.2-0.1-0.3l-0.1-0.3c0.2-0.1,0.3-0.3,0.4-0.4c0.1,0,0.2,0.2,0.3,0.1c0.1,0,0.2-0.1,0.2,0
			c0.1,0.2-0.1,0.4-0.1,0.5v0.1l0.2-0.1c0.1,0.1,0.1,0.1,0,0.2c-0.1,0.3,0.3,0.6,0.1,0.8c-0.3,0.2-0.1,0.5-0.1,0.5
			c0.2,0,0.2-0.3,0.4-0.2c0.1,0.1,0.3,0.9-0.1,1.1c-0.2,0.2-0.1,0.5-0.4,0.7C117.3,17.6,117.4,17.2,117.4,17.2 M117,15.6
			c0.1,0,0,0.3,0,0.5c0,0.1,0,0.1,0,0.1s-0.1,0-0.1-0.1S116.8,15.6,117,15.6 M116,14.7c-0.1,1.1-0.6,2.2-1.4,3.2c0,0,0,0-0.1,0
			l-1.9-2.7v-0.1l2.2-0.8l1.2-0.4V14C116,14.1,116,14.4,116,14.7 M116.4,15.7c0-0.1,0.1-0.1,0.1-0.1c-0.1-0.1,0-0.1-0.2-0.2
			c-0.2-0.1-0.1-0.3-0.1-0.4c0.1,0.1,0.2,0.1,0.3,0.1c0.2-0.1,0.3,0.2,0.2,0.2c-0.1,0.2,0.1,0.4-0.1,0.5c0,0.1,0,0.2,0,0.2
			c0.1,0.2,0.1,0.3-0.1,0.4c-0.2-0.1,0.1-0.3-0.1-0.4l0,0C116.3,16,116.4,15.8,116.4,15.7 M117.2,17.5c0,0,0,0.1,0,0.2
			c-0.3-0.1-0.2-0.3-0.6-0.3c-0.1,0-0.1,0.1,0,0.1c0.2,0.1,0.5,0.3,0.5,0.5c-0.1,0.1-0.1,0.1-0.2,0.1c-0.2-0.4-0.6-0.2-0.6-0.4
			c0-0.2,0-0.4,0.1-0.6c0.1-0.4,0.5-0.5,0.6-0.7c0.1,0.1,0.1,0.7,0.1,0.8C117.1,17.3,117,17.4,117.2,17.5 M118.8,15.2
			c0,0.1-0.3-0.1-0.4-0.1c-0.3,0.2-0.2,0.5-0.1,0.8c-0.1-0.1-0.4-0.2-0.4-0.2c0-0.3,0.1-0.5,0.2-0.7s0.9,0.2,0.7-0.8v-0.1l0.1,0.1
			C119,14.4,118.9,14.9,118.8,15.2 M105.4,8.1l0.4,0.3l1-0.5V7.4l0.9-0.3l0.4,0.5l1.1-0.2l0.1-0.5h1l0.1,0.5l1.1,0.2l0.3-0.4
			l0.9,0.3V8l1,0.5l0.4-0.3l1,0.4l-0.2,0.5l0.7,0.6c0.1,0.5,0.3,0.8,0.3,0.8s0.2,0.5,0.6,0.4l-0.4,0.1c0.6,1.4,1.3,1.8,1.3,1.8
			l0.1,0.8l0.5,0.1v0.9c0,0-0.3,0.2-0.3,0.9c-0.2-0.7-0.2-0.8-0.2-0.8c-0.1-1.1-0.8-0.9-1.1-0.8c0,0-0.1,0.1-0.1,0.2v-0.3
			c0-0.1,0-0.1-0.1-0.2c-0.1-0.1-0.2-0.1-0.3-0.1l-1.8,0.7l-1.6,0.6c0,0-0.1,0-0.1,0.1c-0.1,0.1-0.1,0.3,0,0.4l1.9,2.8
			c0.1,0.1,0.1,0.1,0.2,0.1s0.2-0.1,0.2-0.1c0.6-0.8,1.1-1.6,1.3-2.5c0,0.1,0.2,0.2,0.1,0.6c0.1,0.2,0.2,0.5,0,0.8
			c0,0.1-0.1,0.2-0.1,0.3c-0.1,0.2-0.1,0.4-0.1,0.5c-0.1,0.3,0.7,0.4,0.8,0.6l-0.5,0.7l-0.5-0.4l-0.8,0.7l0.2,0.5l-0.8,0.5l-0.4-0.3
			l-1,0.5v0.5l-0.9,0.3l-0.3-0.4l-1.1,0.2l-0.1,0.5h-1l-0.1-0.5l-1.3-0.3l-0.3,0.4l-0.9-0.3v-0.5l-1-0.5l-0.4,0.3l-0.8-0.5l0.2-0.5
			l-0.8-0.7l-0.5,0.2l-0.2-0.3c0.2-0.3,0.5-2.4,0.4-2.8c0.3,0.8,0.7,1.6,1.3,2.3c0,0,0.1,0.1,0.2,0.1s0.3,0,0.3-0.1l0.8-1.2l1-1.5
			l0.1-0.1c0-0.2-0.1-0.3-0.2-0.3l-0.9-0.3l-2.6-0.9c-0.1,0-0.2,0-0.2,0.1c-0.1,0-0.1,0.1-0.1,0.2v0.4c-0.1-0.1-0.3-0.2-0.4,0
			c-0.1,0.1-0.3,0.5-0.5,0.8c-0.1,0.2-0.2,0.3-0.3,0.3l-0.1-0.3V15l-0.6-0.3v-0.9l0.5-0.1l0.1-0.7l0.1-0.4l-0.2-0.1
			c0.1-0.2,1.6-1.6,1.7-2.7l0.7-0.6l0.2-0.2l-0.2-0.5L105.4,8.1z M115.4,7.3c0-0.1-0.1-0.1-0.1-0.2c-0.1-0.1-0.2-0.2-0.2-0.3
			c0.3-0.1-0.1-0.4,0.1-0.6c0.6-0.5,0.8-0.3,0.8-0.3c0.1,0.2,0.2,0.3,0.2,0.4c0.1,0.1,0.3-0.2,0.3-0.2c0.1,0.1,0.1,0.2,0.2,0.3
			c0.1,0.1,0.3,0.1,0.3,0.3c-0.1,0.2-0.2,0.2-0.1,0.3c0.1,0.1,0.1,0.2,0.2,0.2c0.1-0.1,0-0.4,0.2-0.3c0,0,0.1,0.1,0.1,0.2
			c0.1,0.1,0.1,0.2,0.3,0.3c0.2,0.1-0.2,0.4-0.1,0.6s0,0.5-0.1,0.6c-0.2,0.1-0.2-0.4-0.1-0.7c0,0,0-0.1-0.1-0.1
			c-0.1,0.1-0.1,0.3-0.2,0.3c-0.5-0.9-0.7-1.4-0.7-1.4c-0.1,0,0,0.2,0,0.3c-0.3-0.3-0.6-0.6-1-0.9c0-0.1,0,0-0.1,0s0.3,0.5,0.7,0.8
			c-0.1,0-0.2-0.1-0.3,0C115.8,7,115.9,7,116,7c0.3,0.2,0.6,0.5,0.8,0.8v0.1c-0.1,0-0.3-0.2-0.4-0.1c0.1,0.1,0.2,0.1,0.3,0.2
			c0.4,0.4,0.6,0.7,0.7,1c-0.1,0.1-0.1,0.1-0.2,0.1c-0.1-0.2-0.3-0.2-0.3-0.4c-0.1-0.1-0.2-0.3-0.4-0.3c-0.1,0.1-0.2,0.1-0.3,0
			c-0.3-0.2,0-0.5-0.4-0.7C115.6,7.6,115.4,7.5,115.4,7.3 M115.7,8.2c-0.2-0.3-0.6-0.4-0.7-0.6c-0.1-0.4-0.3-0.3-0.5-0.3l-0.1-0.1
			c-0.1-0.1-0.2-0.3-0.3-0.4c0-0.1,0.2-0.2,0.1-0.3c-0.2-0.3-0.1-0.9,0.5-0.8c0.2,0,0.3-0.1,0.5-0.1c0.1,0.1,0.4,0.2,0,0.4
			c-0.1,0-0.1-0.1-0.2,0c0,0.1,0.1,0.2,0,0.3c-0.2-0.1-0.3-0.3-0.6-0.4c0,0-0.1,0.1,0,0.1c0.2,0.2,0.5,0.2,0.5,0.5
			c-0.1,0.2-0.3,0-0.3,0.2c0.1,0,0.2,0,0.2,0c0,0.2,0.1,0.3,0.1,0.4c0.1,0.2,0.2,0.3,0.4,0.4C115.4,7.8,115.7,7.9,115.7,8.2
			C115.7,8.3,115.7,8.2,115.7,8.2 M113.1,5.4c-0.5,0-0.9-0.4-1-0.5v0.2c-0.3-0.1-0.9-0.5-0.9-0.3c0,0.1,0.7,0.3,0.9,0.5
			c0.1,0,0.2-0.1,0.3,0c0,0.1-0.3,0-0.2,0.2c0.4,0,0.7,0.1,1.1,0.1c0.2,0.1-0.2,0.2-0.2,0.3c0,0.1,0.2,0,0.3-0.1
			c0.3-0.2,0.3,0,0.5-0.1c0.1,0,0.2,0,0.2,0.1c-0.1,0.2,0,0.4,0,0.6c-0.5,0-0.3-0.3-0.4-0.3c-0.2,0.1-0.4,0.1-0.6,0.1
			c-0.1-0.3-0.5-0.1-0.7-0.3c-0.1-0.2,0.2-0.1,0.3-0.2c-0.3-0.1-1,0-1.1,0c-0.1-0.2-0.1-0.4-0.4-0.4c-0.1,0-0.2-0.1-0.2-0.1
			c-0.1-0.1,0-0.6,0.2-0.5c0.1,0,0.3,0.3,0.4,0c0-0.1,0-0.2,0.1-0.2c0.3-0.2,0.4,0.2,0.7,0.1c0.1,0,0.1,0.3,0.3,0.2
			c0.1-0.1,0.2-0.1,0.4-0.1s0.2,0.2,0.4,0.2c0.1,0.1,0.3,0.1,0.5,0.2c0.1,0,0.1,0.1,0.1,0.2c0.1,0.2,0.5-0.2,0.4,0.2
			c-0.2,0.1-0.1,0.3-0.5,0.2c-0.3,0-0.6-0.4-0.8-0.5C113,5.2,113.1,5.4,113.1,5.4 M119.8,19.2c0.2-0.2,1.1-1.2,1.1-1.7
			c0.1-0.1,0.8-0.7,0.7-1.8c0.1-0.2,0.3-0.4,0.3-0.6c0.1-0.2,0-0.4,0-0.7c0-0.2-0.1-0.2-0.3-0.3c-0.2,0-0.8-0.7-1.3-0.4
			c0.5-1,0.7-1.3,0.7-1.3c0.1-0.3-0.1-0.5-0.2-0.7c0.1-0.4-0.1-1-0.2-1.3c0-0.1,0-0.1,0-0.2c-0.5-0.3-0.3-0.7-0.5-1.1
			c0-0.1-0.5-0.8-0.7-1c-0.2-0.1-0.3-0.3-0.4-0.4c0-0.2-0.3-0.2-0.4-0.2c-0.4-0.1-0.6-0.3-0.6-0.4c-0.4-0.5-1-1.1-1.4-1.3
			c-0.2-0.2-0.5-0.3-1-0.4c-0.6-0.3-1-0.3-1-0.3c-0.3,0-1.5-0.8-2.5-0.9c-1.6-0.1-1.5,0.7-1.5,1c0.4,0.7,0.9,0.8,0.9,0.8
			c0.3,0,0.5,0.4,0.9,0.5c0.3,0.1,1.2,0.4,1.4,0.5c0.2,0.1,0.3,0.2,0.3,0.3c0.1,0.2,0.2,0.3,0.4,0.3c0,0,0.1,0,1.2,1
			c-0.2,0.3-0.1,0.3-0.1,0.3s0.2,0.1,0.2,0.6h-0.1L115.2,9l0.2-0.5l-1.2-0.8L113.7,8l-0.6-0.2V7.3l-1.4-0.4l-0.3,0.5l-0.7-0.1
			l-0.1-0.6h-1.5L109,7.2l-0.7,0.1L108,6.8l-1.4,0.4v0.5L106,8l-0.6-0.3l-0.7,0.4c0,0,0.1-0.3,0.2-0.4c-0.2-0.1,0.1-0.3,0.2-0.3
			c0.3,0,0.5-0.1,0.7-0.2c0.1,0,1.1-0.4,1.4-0.6c0.2-0.1,0.4-0.3,0.5-0.3c0.3-0.1,0.5-0.3,0.7-0.5s0.3-0.4,0.4-0.5
			c0-0.1,0-0.2-0.1-0.2c-0.4-0.1-0.7,0.1-1,0.1l-0.1-0.1c0.2-0.3,0.7-0.7,0.6-0.8c-0.1-0.2-0.4-0.1-0.6-0.1
			c-1.8,0.3-3.1,1.6-3.1,1.6C104.3,6,104,6.2,104,6.3c0,0-0.1,0.1-0.1,0c0.2-0.2,0.2-0.4,0.2-0.5c0,0,0-0.3-0.1-0.3
			c-0.1-0.2-0.5,0.1-0.8,0.3c-0.2,0.1-0.7,0.6-0.8,0.8c-0.4,0.5-0.7,1-0.9,1.5c0,0.1,0,0.2-0.2,0.2c0-0.2,0-0.5-0.1-0.6
			s-0.3-0.1-0.5,0.1c-0.2,0.2-0.6,0.7-1,1.5c-0.4,0.7-0.8,1.7-0.8,3c0,1.4,0.9,2.8,0.9,2.8c0,0.1,0.1,0.2,0,0.2
			c-0.1-0.1-0.1-0.2-0.2-0.2c0,0-0.4-0.5-0.8-0.6c-0.2,0-0.3,0.1-0.3,0.2c0,0.1-0.1,0.3-0.1,0.4c0,1,0.3,2.4,0.7,2.9
			c0.3,0.5,2.1,2.4,2.8,2.7c0.6,0.3,0.9,0.9,1.4,1.4c0.1,0.1,0.5,0.3,1.1,0.4c0.1,0.1,0.5,0.1,0.6,0.4c0,0.1-0.1,0.2-0.1,0.3
			c-0.1,0.2-0.1,0.3-0.2,0.5c-0.6,0-0.9,0-1.3-0.2c-0.5-0.3-1.2-0.6-1.7-0.9c-0.8-0.4-0.5-0.4-0.4-0.6c0.1-0.3,0.4-0.6,0.3-0.9
			c0-0.4-0.8-0.8-0.9-0.9c-0.2-0.1-0.3-0.1-0.3,0c-0.1,0.3-0.2,0.6-0.3,0.8c-0.7-0.4-1.2-0.2-1.4,0.1c0,0.2-0.5,1.4-0.7,1.8
			c-0.1,0.3,0.2,0.7,0.4,1c0.1,0.2,3.5,2.5,5.6,2.5c0.3,0,1.6-0.3,1.9-0.3c0,0,0.1,0,0.1,0.1c-0.3,0.3-0.9,0.3-1.1,0.8
			c-0.1,0.1-0.3,0.2-0.5,0.3c-0.3,0.1-0.5,0.3-0.8,0.3c-0.3,0.1-0.6,0.1-0.6,0.2c0.1,0.4,1.5,0.8,1.7,0.8c0.4,0.1,0.7,0,1-0.3
			c0.1-0.1,0.2-0.5,0.5-0.5c0.1-0.1,0.4-0.3,0.7-0.5c0.3-0.2,1.6-1.1,1.8-1.2c0.2-0.3,0.6-0.5,0.9-0.6l0.2,0.1l0,0
			c0.3,0,0.8,0.1,1.1-0.1c0.3,0.4,0.8,0.7,1.3,0.9c0.3,0.1,0.6,0.5,0.7,0.6s0.2,0.2,0.3,0.3c0.1,0.1,0.1,0.1,0.2,0l0.5,0.4
			c0.1,0,0.1,0,0.2,0s0.5,0.4,0.7,0.5c0.2,0,0.2,0.2,0.3,0.3c0.1,0.2,1.2,0.1,1.6-0.5c0.1,0,0.3,0.1,0.4,0s0.6-0.3,0.3-0.3
			c-0.3-0.1-0.4-0.2-0.7-0.2c-0.1-0.1-0.2-0.2-0.3-0.3c-0.2,0-0.6-0.2-0.7-0.2c-0.7-0.3-1-0.6-1.2-0.7c-0.1-0.1-0.1-0.2,0-0.2
			s1,0,1.7,0.1c0.3,0,0.5,0,0.7,0c1.8-0.4,3.5-1.7,3.9-1.9c0.3-0.3,0.7-0.7,0.7-0.9c0-0.3-0.4-1.2-0.5-1.6c0-0.1-0.1-0.7-0.4-0.7
			c-0.3-0.3-0.9,0.1-1.1,0.1c0,0-0.1-0.1-0.1-0.2c-0.1-0.2-0.1-0.4-0.2-0.6c-0.5-0.2-0.2-0.2-0.1-0.4
			C119.6,19.8,119.3,19.3,119.8,19.2"/>
		<path class="st0" d="M119.8,13.3c0.3-0.1,0.1-0.8,0.2-1.1c0-0.1,0.1-0.2,0-0.3c-0.1,0-0.1,0.2-0.2,0.2c0-0.2-0.1-0.4-0.2-0.6
			c-0.1-0.4,0.3-1.1,0-1.2c0,0.6-0.1,0.6-0.1,0.6c-0.2-0.5-0.5-1.5-0.4-2H119c-0.1,0.1,0,0.2-0.1,0.3c0,0,0,0-0.1,0
			c-0.1-0.1-0.1-0.2-0.2-0.3c-0.1,0-0.1,0.1-0.1,0.1c0.1,0.2,0.4,0.7,0.3,0.8c-0.1-0.1-0.2-0.2-0.3-0.3c0.1,0.3,0.8,1.2,0.7,1.4
			l-0.2-0.2c-0.1-0.1-0.1,0.1,0,0.1c0.3,0.4,0.6,0.7,0.6,1.2v0.1c-0.1-0.1-0.2-0.2-0.3-0.3h-0.1c0,0.2,0.2,0.3,0.4,0.4
			C119.9,12.4,119.9,13.1,119.8,13.3"/>
		<path class="st0" d="M120.1,22.8l0.2,0.2l-0.3,0.2l-0.1-0.3l-0.1-0.2L120.1,22.8z M119.6,22.2l0.2,0.6l0.2,0.5
			c0,0.2,0.1,0.4,0,0.4l0.1,0.1l0.4-0.2l-0.1-0.1c-0.1,0-0.1,0.1-0.2,0l-0.1-0.2l0.3-0.2l0.2,0.2c0.1,0.1,0,0.1-0.1,0.2v0.1l0.5-0.3
			l0.1-0.1H121c-0.1,0-0.1-0.1-0.2-0.1l-0.2-0.2L119.6,22.2L119.6,22.2z"/>
		<path id="SVGID_x5F_1_x5F_" class="st1" d="M114.1,24.3c0-0.2,0-0.4-0.2-0.4c-0.1,0-0.1,0-0.2,0.2l-0.2,0.9
			c-0.1,0.2-0.1,0.3,0.1,0.3v0.1l-0.6-0.1v-0.1c0.2,0.1,0.2-0.1,0.2-0.3l0.2-0.9c0-0.2,0-0.2-0.1-0.2c-0.2-0.1-0.3,0.1-0.3,0.3h-0.1
			l0.1-0.4l1.2,0.2L114.1,24.3L114.1,24.3"/>
		<path class="st0" d="M114.4,24.8l0.1-0.3l0.1-0.2l0.1,0.3v0.2H114.4z M115.1,25.1l-0.1-0.3l-0.2-1h-0.1l-0.3,0.6l-0.2,0.5
			c-0.1,0.1-0.1,0.4-0.3,0.3v0.1h0.4v-0.1c-0.1,0-0.2,0-0.1-0.2l0.1-0.3h0.4V25c0,0.1-0.1,0.1-0.2,0.1v0.1l0.6,0.1v-0.1
			C115.1,25.2,115,25.2,115.1,25.1C115.1,25.3,115.1,25.2,115.1,25.1"/>
		<path class="st0" d="M117.2,25l-0.2-0.8c0-0.2-0.1-0.3,0.1-0.3v-0.1l-0.6,0.1V24c0.2-0.1,0.2,0.1,0.2,0.3l0.2,0.8
			c0.1,0.2,0.1,0.3-0.1,0.3v0.1l0.6-0.1v-0.1C117.3,25.3,117.2,25.2,117.2,25"/>
		<path id="SVGID_x5F_2_x5F_" class="st1" d="M116.2,25.4c-0.2,0-0.2-0.2-0.2-0.4v-0.7c0-0.2,0-0.3,0.2-0.3v-0.1h-0.7V24
			c0.2,0,0.2,0.1,0.2,0.3v0.8c0,0.2,0,0.3-0.2,0.3v0.1h1.1V25h-0.1C116.5,25.3,116.4,25.4,116.2,25.4"/>
	</g>
</g>
</svg>
