<svg width="378" height="129" xmlns="http://www.w3.org/2000/svg" xmlns:xlink="http://www.w3.org/1999/xlink" xml:space="preserve" overflow="hidden"><defs><clipPath id="clip0"><rect x="0" y="0" width="378" height="129"/></clipPath></defs><g clip-path="url(#clip0)"><path d="M142.155 126.849 170.165 2.40092 218.084 2.40092 246.095 126.849 220.785 126.849 215.883 104.34 172.266 104.34 167.364 126.849 142.155 126.849ZM189.773 23.2089 177.168 82.3317 211.181 82.3317 198.576 23.2089 189.773 23.2089Z" fill="#FFFFFF" transform="matrix(1 0 0 1 -142.002 0.025202)"/><path d="M312.82 82.1316 312.82 60.1231 349.034 60.1231 349.034 124.748C331.628 127.549 317.422 128.95 306.518 128.95 287.11 128.95 273.805 123.748 266.503 113.344 259.2 102.94 255.598 86.5333 255.598 63.9246 255.598 41.3159 259.4 25.0096 266.903 15.0058 274.506 5.00192 287.311-1.42163e-14 305.518-1.42163e-14 316.822-1.42163e-14 329.127 1.3005 342.332 3.80146L348.934 5.10196 348.234 24.7095C333.628 23.1089 321.624 22.3086 312.22 22.3086 302.917 22.3086 296.314 23.409 292.513 25.6099 288.711 27.8107 285.91 31.9123 284.209 37.8145 282.409 43.7168 281.508 53.8207 281.508 68.2262 281.508 82.5317 283.309 92.6356 286.81 98.3378 290.312 104.04 297.715 106.941 308.819 106.941L324.125 106.341 324.125 82.1316 312.82 82.1316Z" fill="#FFFFFF" transform="matrix(1 0 0 1 -142.002 0.025202)"/><path d="M372.843 126.849 372.843 2.40092 398.153 2.40092 398.153 126.849 372.843 126.849Z" fill="#FFFFFF" transform="matrix(1 0 0 1 -142.002 0.025202)"/><path d="M467.08 126.849 425.164 126.849 425.164 2.40092 467.08 2.40092C477.784 2.40092 486.687 3.50135 493.59 5.80223 500.593 8.10312 505.995 11.8045 509.796 17.0065 513.598 22.2085 516.299 28.3109 517.799 35.3136 519.3 42.3163 520 51.4198 520 62.7241 520 73.9284 519.3 83.232 517.999 90.6349 516.699 98.0377 514.098 104.64 510.396 110.442 506.695 116.245 501.293 120.446 494.19 123.047 487.087 125.548 478.084 126.849 467.08 126.849ZM493.69 77.4298C493.89 73.5283 494.09 68.1262 494.09 61.2236 494.09 54.3209 493.89 48.8188 493.39 44.6172 492.89 40.5156 491.789 36.7141 489.888 33.3128 488.088 29.9115 485.387 27.5106 481.785 26.3101 478.184 25.0096 473.282 24.4094 467.28 24.4094L450.573 24.4094 450.573 104.94 467.28 104.94C476.383 104.94 483.086 102.639 487.187 97.9377 490.589 94.1362 492.79 87.3336 493.69 77.4298Z" fill="#FFFFFF" transform="matrix(1 0 0 1 -142.002 0.025202)"/><path d="M87.8338 84.7326C88.5341 84.7326 89.4344 85.1327 88.9342 85.4329 88.5341 85.733 88.5341 86.5333 88.1339 87.0335 87.4336 87.0335 87.0335 86.6333 86.5333 85.9331 86.4333 85.4329 86.8334 84.9327 87.4336 84.8326L87.8338 84.8326Z" fill="#FFFFFF" transform="matrix(1 0 0 1 -142.002 0.025202)"/><path d="M37.0142 100.639C37.6145 101.039 38.3147 101.039 38.915 100.639L38.2147 99.9384 37.0142 99.1381C36.314 98.738 35.9138 99.1381 35.4136 99.8384L37.0142 100.639Z" fill="#FFFFFF" transform="matrix(1 0 0 1 -142.002 0.025202)"/><path d="M69.9269 122.647C69.9269 123.047 69.9269 123.347 70.3271 123.347 70.6272 123.648 71.0273 123.748 71.4275 123.748L69.9269 122.647Z" fill="#FFFFFF" transform="matrix(1 0 0 1 -142.002 0.025202)"/><path d="M113.844 60.0231C114.244 57.7222 113.844 56.2216 113.144 55.4213 112.443 54.7211 111.243 55.0212 109.742 56.1216 109.042 55.7214 107.841 56.1216 106.741 57.222 107.141 56.8219 107.141 56.2216 106.741 55.6214 107.841 55.2212 108.642 54.9211 109.042 53.7207 109.442 52.6202 109.742 51.8199 109.442 50.7195 109.842 49.1189 111.043 47.7184 111.743 46.1177 112.843 43.8169 112.143 43.1166 109.842 43.8169 110.743 43.1166 111.543 41.9161 111.743 40.8157 111.743 39.7153 111.343 38.6149 110.643 37.8145 110.242 37.1143 109.942 37.1143 109.042 37.4144 109.342 37.0142 109.442 36.514 109.442 35.8138 109.042 34.2132 108.742 33.1127 108.342 31.7122 108.342 29.0112 107.641 28.0108 106.441 28.3109 106.441 26.7103 105.741 25.6099 104.84 24.2093 103.74 22.6087 102.94 21.9084 102.139 23.1089 100.239 20.4079 98.738 19.3074 97.1374 19.7076 97.1374 18.6072 96.7372 17.5067 96.0369 16.7064 96.3371 15.2058 95.9369 13.7053 94.9365 12.6048 94.2362 12.2047 93.3359 12.6048 93.0358 14.2055 93.0358 13.2051 92.7357 12.0046 92.2355 11.1043 92.0354 10.1039 91.1351 9.20354 89.9346 9.20354L88.8342 9.20354C88.334 8.70335 87.6337 8.50327 86.9334 8.50327 85.3328 6.90266 83.9323 6.60254 82.8319 8.10312L82.8319 6.70258C82.4317 5.10196 81.2312 4.80185 80.1308 5.60215 78.4302 3.9015 76.5294 2.50096 74.4286 1.50058 73.1281 1.00038 72.0277 1.00038 71.6275 1.90073 71.0273 1.3005 70.127 0.900346 69.3267 0.800308 68.4263 0.600231 67.7261 0.400154 67.0258 3.33195e-15 65.9254 3.33195e-15 65.4252 0.400154 65.4252 1.90073 64.3247 2.00077 63.1243 2.20085 62.0239 2.601 61.3236 3.00115 61.3236 3.70142 61.6237 4.50173 62.1239 5.30204 62.7241 6.10235 63.5244 6.80262 63.1243 7.20277 63.1243 7.50289 63.1243 8.40323 63.1243 9.1035 63.8246 9.50366 65.4252 10.0038 66.3255 10.404 67.526 10.404 68.4263 10.0038 68.1262 10.7041 68.4263 11.6045 69.0266 11.9046 69.0266 11.9046 69.1266 11.9046 69.1266 12.0046L69.5267 12.0046C70.6272 13.5052 72.728 14.0054 74.5287 13.105L74.0285 14.5056 76.7295 15.506C76.7295 16.7064 77.4298 17.8068 78.6302 18.207L80.2309 18.6072C79.8307 18.6072 79.1304 19.3074 79.1304 19.3074 78.7303 19.7076 78.7303 20.3078 79.1304 20.908 79.3305 21.1081 79.6306 21.2082 79.8307 21.3082L83.232 21.3082C83.232 21.7084 83.6322 22.0085 83.6322 22.4086 84.0323 23.1089 84.5325 23.7091 85.2328 24.3094 86.2332 25.1097 87.4336 25.8099 88.6341 26.2101 88.2339 26.9104 88.2339 27.3105 87.9338 28.1108 87.5337 29.2112 87.5337 30.4117 87.9338 31.5121 87.5337 31.7122 87.1335 31.9123 86.8334 32.2124 86.1331 33.3128 87.5337 35.2135 87.9338 36.0139 87.6337 36.0139 87.4336 36.2139 87.2336 36.414 86.5333 36.8142 86.8334 39.115 88.8342 39.4152 90.0346 40.1154 91.2351 41.1158 92.2355 42.1162L93.8361 44.4171C94.5364 45.5175 94.5364 46.0177 95.7368 46.0177 96.7372 49.2189 98.3378 52.2201 100.339 55.0212 101.439 56.0215 102.239 57.322 102.639 58.8226 102.639 59.5229 102.239 60.4232 102.639 61.1235 102.439 63.2243 102.039 65.125 101.539 67.1258 99.6383 66.4256 99.2382 67.526 98.838 68.7264 98.4379 68.5264 97.9377 68.7264 97.7376 69.1266 97.6376 68.3263 96.8372 67.8261 96.0369 67.9261 95.9369 67.9261 95.8369 67.9261 95.8369 68.0262 95.4367 68.4263 95.1366 68.4263 94.7364 68.7264 94.1362 68.4263 94.0362 68.0262 94.0362 67.626L94.0362 65.3251C94.4363 64.925 94.4363 64.6249 94.7364 64.2247 95.1366 62.0239 95.0366 59.823 94.3363 57.8222 94.3363 57.222 93.8361 56.7218 93.2359 56.7218 93.2359 56.7218 92.1354 56.7218 91.6352 57.4221 91.6352 57.0219 90.935 56.7218 90.5348 56.7218 88.9342 56.3217 87.5337 59.0227 87.5337 62.0239 86.4333 61.3236 84.8326 61.6237 85.2328 62.7241 85.6329 64.6249 88.6341 68.4263 88.6341 69.9269 87.9338 69.2266 85.6329 69.2266 85.6329 71.0273 85.733 71.8276 85.9331 72.6279 86.3332 73.3282 85.9331 75.6291 88.2339 77.1297 90.4348 79.0304 90.3348 79.5306 90.5348 80.0308 90.8349 80.631 90.4348 81.3313 88.1339 84.7326 88.1339 84.7326 88.1339 84.7326 86.2332 84.0323 85.833 84.3324 85.4329 84.6326 85.1327 85.4329 84.7326 85.9331L85.1327 88.6341C85.2328 89.9346 84.7326 91.2351 83.5321 92.0354 82.5317 93.0358 81.6314 94.2362 80.8311 95.4367 80.3309 96.6372 79.3305 97.6376 78.1301 98.1377L77.0296 96.9373C77.0296 96.9373 76.6295 96.5371 76.6295 96.9373 73.4282 98.1377 70.4271 99.6383 67.526 101.539 65.9254 102.539 64.8249 104.04 64.1247 105.641L61.5237 105.641 59.2228 103.34C58.2224 102.94 57.0219 103.04 56.2216 103.74 54.7211 103.44 53.3205 103.64 52.12 104.44 51.5198 104.74 50.9196 104.84 50.2193 104.84L46.818 101.039C43.2166 99.1381 39.3151 97.9377 35.4136 97.2374 34.7134 97.6376 34.3132 98.3378 33.813 98.838 32.7126 98.1377 31.6122 97.2374 30.8119 96.137L28.9111 93.8361C27.8107 92.6356 27.0104 91.035 27.0104 89.2343L27.3105 87.2336C27.3105 86.8334 27.3105 86.5333 26.9104 86.5333 26.4102 86.0331 25.7099 85.833 25.0096 85.833 25.0096 85.833 24.6095 85.833 24.3094 86.9334 24.3094 87.3336 22.0085 83.9323 22.0085 83.9323 23.1089 82.4317 24.0092 80.8311 24.3094 79.0304 24.7095 76.7295 25.0096 74.9288 25.4098 72.6279 25.4098 72.4279 25.6099 72.2278 25.7099 72.2278 27.3105 69.1266 28.0108 65.5252 27.6106 61.9238 27.4105 61.6237 27.3105 61.2236 27.2105 60.8234L26.8103 60.8234 27.2105 60.1231C27.6106 59.4229 27.6106 59.4229 27.2105 59.0227 26.4102 58.9227 25.6099 59.1227 24.9096 59.4229L23.6091 55.6214 23.2089 55.6214C21.3082 57.5221 20.1077 59.923 19.8076 62.424L19.5075 62.8242C17.0065 65.9254 15.1058 69.5267 14.1054 73.4282 13.7053 72.728 13.4052 71.5275 13.005 70.7272 12.7049 70.0269 12.6048 69.2266 12.6048 68.4263 13.005 67.7261 13.005 66.8257 12.2047 66.5256 11.4044 64.5248 10.7041 62.6241 10.304 60.5233 10.7041 58.9227 11.0042 57.5221 11.4044 56.4217 12.5048 54.1208 13.7053 51.4198 14.8057 49.2189 14.8057 49.2189 15.506 48.5187 15.9061 48.5187 18.207 47.8184 28.9111 34.5133 27.7107 28.1108 29.6114 25.1097 31.112 22.1085 32.7126 19.0073L33.4129 19.0073 34.1131 18.6072C36.414 17.9069 38.2147 16.7064 40.2155 15.9061L42.9165 14.4055C44.9173 13.7053 46.718 12.4048 48.3186 11.0042 49.9192 9.80377 51.0196 8.00308 51.3197 6.00231 50.9196 5.30204 50.2193 5.30204 48.6187 5.30204 49.319 4.50173 49.7191 3.40131 49.7191 2.30088 49.0189 1.60062 47.4182 1.60062 44.317 1.90073 41.3159 2.601 38.5148 3.9015 36.0139 5.60215 31.312 8.60331 27.7107 12.8049 25.3097 17.7068L26.9104 14.7057C27.6106 13.105 28.511 11.3043 29.2112 9.40362 29.6114 8.70335 29.6114 7.803 29.2112 7.10273 28.9111 6.80262 28.511 6.80262 27.7107 6.80262 26.11 7.40285 24.8095 8.40323 23.6091 9.50366 21.3082 11.8045 19.5075 14.5056 18.307 17.5067 17.0065 19.8076 15.8061 22.2085 14.9057 24.7095 15.3059 22.9088 15.3059 21.2082 14.9057 19.4075 14.9057 19.0073 14.2055 18.7072 13.3051 19.0073 12.5048 19.6075 11.8045 20.5079 11.3043 21.3082 10.6041 22.4086 9.70373 23.2089 9.00346 24.3094 8.20316 25.5098 7.30281 26.8103 6.70258 28.0108 5.60215 29.9115 4.70181 31.9123 4.40169 34.0131 3.60139 37.1143 3.10119 40.2155 2.80108 43.4167 2.601 46.1177 2.70104 48.7187 3.20123 51.4198 3.60139 53.6206 4.30165 55.8215 5.10196 57.8222 5.60215 58.7226 6.40246 59.6229 7.40285 60.1231 7.803 61.2236 8.10312 62.8242 9.00346 65.125 9.30358 65.9254 9.50366 66.9257 9.40362 67.8261 9.30358 68.2262 9.50366 68.6264 9.80377 68.9265 10.304 69.2266 10.6041 69.8269 10.6041 70.5271 11.0042 72.828 12.2047 74.6287 12.905 76.5294 12.905 77.6299 12.5048 78.4302 12.5048 79.5306 10.0038 73.4282 8.60331 68.5264 7.00269 65.125 4.30165 59.4229 2.40092 56.8219 0.900346 57.122 0.700269 57.0219 1.01624e-13 57.8222 1.01624e-13 58.9227L1.01624e-13 61.9238C1.01624e-13 63.8246 0.400154 65.3251 0.400154 67.2259 1.40054 72.828 3.80146 78.03 7.20277 82.4317L12.2047 88.1339C13.2051 88.7341 14.3055 89.6345 15.2058 90.4348 16.0062 90.935 17.0065 91.035 17.9069 90.8349 19.1073 92.8357 20.5079 94.6364 22.0085 96.5371 23.1089 98.1377 24.3094 99.2382 25.4098 98.838 25.7099 99.8384 26.6102 100.539 27.7107 100.439L29.0112 100.439C30.1116 101.639 31.5121 102.84 32.8126 103.84L31.7122 107.641C29.7114 107.942 27.7107 108.042 25.6099 108.042 23.7091 106.941 21.5083 105.04 17.9069 102.74L17.9069 98.6379C17.8068 97.5375 18.0069 96.237 18.6072 95.2366 18.5071 94.4363 18.107 93.536 17.5067 92.9358 16.8065 92.2355 15.2058 91.8353 14.8057 92.2355 14.4055 92.6356 14.8057 92.6356 14.8057 92.9358L14.8057 93.636C14.8057 93.2359 14.8057 93.2359 15.2058 93.2359 17.1066 93.636 17.9069 94.3363 17.9069 95.1366 17.3067 96.137 17.1066 97.3374 17.2066 98.5379L17.2066 101.939C14.8057 100.339 12.2047 98.9381 9.50366 97.8376L10.6041 97.8376C11.0042 97.8376 11.3043 97.8376 11.3043 97.4375 11.3043 97.0373 11.3043 97.0373 10.6041 97.0373 9.70373 96.9373 8.70335 97.1374 7.90304 97.4375 7.60292 97.6376 7.50289 98.0377 7.70296 98.3378 7.70296 98.4379 7.803 98.4379 7.90304 98.5379 10.9042 100.139 13.6052 101.539 16.7064 103.54 19.8076 105.441 22.9088 107.341 25.8099 109.542 28.1108 109.542 30.8119 109.142 34.6133 108.842L40.3155 107.741C42.6164 107.341 45.3174 107.041 48.0185 106.641 49.1189 106.341 50.3194 106.241 51.4198 106.241 52.7203 106.341 54.2209 106.141 55.5214 105.841 56.5217 107.641 57.4221 109.442 57.8222 111.543 57.8222 112.243 57.8222 113.144 57.4221 113.144 53.6206 114.744 49.7191 115.845 46.0177 116.945L39.6152 118.546C35.0135 119.246 30.1116 120.146 25.5098 120.446 22.1085 118.846 18.7072 117.045 15.2058 115.144 12.2047 113.544 9.50366 111.343 6.80262 109.442 4.10158 107.541 3.80146 106.441 3.80146 106.041 4.90189 104.44 5.80223 102.639 6.10235 100.739L6.10235 99.1381C5.70219 97.5375 6.10235 96.8372 7.20277 96.8372L13.3051 96.8372C13.7053 96.8372 14.0054 96.8372 14.0054 96.4371L15.1058 94.5364 14.6056 94.0362 13.9053 95.6368 13.9053 96.0369 7.30281 96.0369C6.70258 96.0369 6.20239 96.3371 5.70219 96.7372 5.30204 97.5375 5.30204 98.5379 5.70219 99.4382L5.70219 100.539C5.10196 102.439 4.10158 104.14 3.00115 105.841 3.00115 106.341 3.10119 106.841 3.40131 107.441 4.10158 108.542 5.00192 109.642 6.10235 110.442 6.80262 111.143 8.00308 112.043 8.80339 112.743 10.9042 114.044 13.105 115.444 15.3059 116.545 18.7072 118.446 22.1085 120.346 25.6099 121.847 26.3101 121.847 30.9119 121.147 39.3151 119.946L39.3151 120.646C37.0142 122.547 35.5137 123.347 34.7134 122.947 34.0131 122.547 33.6129 123.648 34.0131 125.248 34.4132 125.948 34.7134 126.349 35.6137 126.349L36.314 127.049 38.6149 128.649C39.4152 129.05 40.5156 129.05 41.3159 128.649 42.1162 128.349 42.6164 127.649 42.9165 126.749L43.3167 126.349 46.0177 123.648 47.9184 122.147C49.0189 122.047 50.2193 121.547 51.0196 120.546 51.0196 119.946 51.3197 119.446 51.7199 118.946L54.0208 117.345C54.0208 116.945 55.1212 117.345 57.0219 118.446 57.7222 118.846 58.6225 118.846 59.3228 118.446L61.2236 117.345C64.4248 118.846 67.2259 120.846 69.6268 123.347 69.6268 123.748 69.6268 124.048 70.3271 124.948 71.0273 125.648 72.0277 126.048 73.0281 126.048L73.7284 127.949 74.4286 128.349C75.9292 128.449 77.2297 127.849 78.2301 126.749L79.8307 126.349C80.531 126.048 80.9311 125.248 80.9311 124.448L80.2309 124.048 79.1304 123.648C77.3298 122.847 75.7291 121.847 74.1285 120.646L73.0281 119.946C79.0304 120.846 85.1327 121.547 91.3351 121.847 92.8357 121.947 94.1362 121.347 95.1366 120.246 96.7372 119.146 101.239 115.644 108.842 110.342 109.942 109.142 110.843 107.741 111.543 106.241 110.743 105.541 110.042 104.54 109.642 103.54 109.242 102.639 108.942 101.539 108.942 100.539L108.942 98.6379C108.942 97.9377 108.942 97.5375 108.242 97.0373 107.841 96.6372 107.341 96.4371 106.641 96.3371L101.639 96.3371C100.939 96.3371 100.038 95.9369 100.038 95.6368L100.038 93.3359C100.038 92.6356 100.038 92.2355 99.3382 92.6356 98.0377 92.9358 96.7372 93.4359 95.5368 94.2362 95.0366 94.6364 94.9365 95.4367 95.4367 96.0369L95.5368 96.137C96.0369 96.4371 96.237 97.0373 96.237 97.7376 96.137 99.8384 95.9369 101.739 95.5368 103.74 93.4359 105.741 91.1351 107.341 88.7341 108.742 86.5333 108.942 84.3324 108.842 82.2316 108.342 81.3313 107.441 80.731 106.241 80.631 104.94 81.8315 104.14 83.132 103.34 84.4325 102.639L86.7334 102.239C87.4336 102.239 87.4336 101.539 87.4336 100.639 88.1339 100.239 88.5341 99.9384 88.5341 99.0381L92.3355 94.4363C93.4359 93.4359 94.9365 92.7357 96.4371 92.5356 99.0381 92.1354 101.539 91.035 103.74 89.5344 104.14 88.9342 104.14 88.2339 103.74 87.6337 105.341 86.5333 106.741 85.0327 107.841 83.5321 108.642 82.5317 108.842 80.9311 108.242 79.7307 109.842 78.2301 110.843 76.5294 111.343 74.4286 111.743 73.2282 111.743 71.8276 111.343 70.6272 112.043 70.227 112.643 69.7268 113.244 69.0266 114.044 68.0262 113.944 66.4256 112.943 65.6252 114.444 64.2247 114.644 61.9238 113.844 60.0231ZM50.4194 5.90227C50.3194 7.00269 49.8192 8.20316 48.8188 8.90342 46.918 10.504 44.9173 11.9046 42.7164 13.005 39.7153 14.1054 36.7141 15.506 33.913 17.1066L33.913 16.7064C37.8145 13.5052 42.0162 10.7041 46.4179 8.40323 47.5183 7.70296 47.1181 7.70296 46.0177 8.00308 44.317 8.70335 42.8165 9.60369 41.4159 10.7041L33.1127 15.706 33.1127 15.0058C36.9142 11.5044 41.3159 8.60331 46.1177 6.30242 47.5183 5.60215 48.9188 5.50212 50.4194 5.90227ZM35.2135 7.50289C37.7145 5.30204 40.7157 3.80146 44.0169 2.90112 45.3174 2.50096 46.718 2.20085 48.1185 2.20085 48.8188 2.20085 48.8188 2.601 48.5187 3.30127L47.0181 5.202C45.0173 5.50212 43.3167 6.30242 41.616 7.50289 39.015 9.20354 36.414 10.9042 33.913 12.8049L33.5129 13.2051C32.6125 13.2051 31.6122 13.5052 30.8119 13.9053 34.1131 10.9042 37.6145 8.30319 41.516 5.90227 42.8165 5.40208 44.0169 4.80185 45.0173 4.00154 43.5167 4.40169 42.1162 5.00192 40.9157 5.90227 37.9146 7.803 34.8134 9.60369 31.8122 11.9046L27.7107 15.606C29.9115 12.7049 32.4125 9.90381 35.0135 7.30281 34.8134 7.40285 35.2135 7.50289 35.2135 7.50289ZM31.0119 15.0058C31.4121 14.6056 31.7122 14.6056 32.6125 14.6056L32.6125 16.5063C32.2124 18.307 31.6122 19.9077 30.7118 21.5083L28.4109 26.5102C26.5102 26.8103 24.9096 27.5106 23.409 28.8111 24.1093 27.2105 25.3097 25.8099 26.4102 23.8092 27.5106 21.9084 29.4113 19.2074 31.7122 15.8061 32.1124 15.1058 32.1124 15.1058 31.7122 15.4059 30.6118 16.5063 29.5114 17.8068 28.711 19.2074 27.1104 21.5083 24.9096 24.9096 21.9084 29.8115 21.2082 30.9119 19.2074 33.6129 16.2062 38.1147L16.6064 37.0142 20.708 29.8115 24.5094 22.6087C26.01 19.7076 28.3109 17.1066 31.0119 15.0058ZM14.5056 31.6122C16.9065 27.6106 19.1073 23.409 21.0081 19.2074 21.8084 17.2066 23.1089 15.506 24.4094 13.9053 24.8095 12.8049 24.4094 12.8049 23.7091 13.9053 20.708 17.8068 18.107 22.2085 16.0062 26.8103L17.1066 23.409C17.8068 21.8084 18.207 20.0077 19.4075 18.4071 20.3078 16.4063 21.5083 14.5056 22.8088 12.7049 23.6091 11.8045 24.4094 10.7041 25.1097 9.70373 25.8099 8.90342 26.8103 8.20316 27.8107 7.803 28.0108 8.00308 28.1108 8.20316 28.2109 8.50327L24.8095 17.2066C22.4086 22.0085 19.4075 26.3101 16.0062 30.5117 14.4055 32.1124 13.7053 33.2128 13.3051 33.5129 12.905 33.813 12.6048 34.2132 12.6048 34.6133L13.005 33.5129C13.105 33.5129 14.5056 31.6122 14.5056 31.6122ZM16.1062 39.2151 13.8053 43.8169 13.4052 43.8169 14.5056 39.2151 16.1062 39.2151ZM11.1043 50.6195 11.4044 48.7187 11.8045 46.818 12.905 46.4179 11.3043 50.1193 10.6041 53.1204C10.7041 53.2205 11.1043 50.6195 11.1043 50.6195ZM10.304 43.5167 11.4044 37.8145 11.8045 38.5148 10.304 43.5167ZM7.70296 56.6218 7.70296 56.2216C7.70296 53.5206 8.20316 50.8195 9.30358 48.2185 8.40323 52.2201 8.00308 54.8211 7.70296 56.6218ZM6.80262 52.9204C6.5025 48.9188 6.70258 45.0173 7.60292 41.2159 8.10312 36.9142 9.1035 32.8126 10.6041 28.8111 11.3043 27.7107 11.3043 27.2105 10.6041 28.1108 7.50289 34.5133 5.70219 41.716 5.60215 48.8188 5.50212 51.0196 5.70219 53.3205 6.00231 55.6214 6.40246 57.222 6.70258 57.9223 7.60292 58.3224 7.803 58.6225 8.30319 58.7226 8.60331 58.4225 8.70335 58.4225 8.70335 58.3224 8.70335 58.3224 8.80339 58.8226 8.60331 59.3228 8.30319 59.923 7.30281 59.3228 6.40246 58.3224 6.00231 57.222 5.30204 55.6214 4.90189 54.0208 4.40169 52.2201 3.80146 49.6191 3.50135 46.918 3.70142 44.217 4.00154 40.9157 4.50173 37.6145 5.30204 34.3132 6.40246 29.3113 9.1035 25.2097 12.1047 21.4082 12.8049 20.708 13.2051 20.3078 13.7053 20.708L13.7053 26.01C13.4052 28.0108 12.905 29.8115 12.1047 31.7122 11.0042 35.5137 9.80377 39.7153 9.1035 43.4167 8.40323 46.0177 7.70296 49.519 6.80262 52.9204ZM8.80339 59.723 8.80339 58.6225C9.90381 57.0219 10.8042 55.2212 11.1043 53.3205L13.4052 47.3182 16.1062 40.9157C17.9069 37.4144 20.0077 34.1131 22.6087 31.0119 23.409 29.4113 25.0096 28.3109 26.7103 28.0108 27.1104 28.4109 27.1104 29.1112 26.7103 30.7118 26.3101 32.3124 25.6099 33.713 25.1097 35.3136 22.9088 39.6152 20.0077 43.6168 16.7064 47.0181L21.4082 39.4152 23.7091 35.3136C24.4094 33.713 24.4094 33.0127 23.7091 33.4129 19.1073 40.6156 16.4063 44.8172 15.706 46.718 15.0058 48.6187 13.8053 50.1193 13.005 51.7199 12.2047 52.7203 11.5044 53.9207 11.1043 55.1212 10.7041 56.5217 10.0038 58.3224 8.80339 59.723ZM27.1104 62.324C26.8103 64.925 26.3101 67.4259 25.5098 69.9269 25.6099 68.2262 25.4098 66.6256 25.1097 64.925L25.8099 62.9242C25.8099 62.2239 25.8099 62.2239 25.4098 62.9242L25.2097 63.7245 25.2097 62.2239 26.3101 61.1235C27.1104 60.5233 27.1104 60.9234 27.1104 62.324ZM25.91 58.6225C26.6102 58.6225 26.6102 58.6225 26.3101 59.3228L25.2097 61.2236C25.2097 60.5233 24.8095 60.1231 24.8095 59.3228 25.2097 58.9227 25.6099 58.9227 25.91 58.6225ZM20.6079 61.6237C21.3082 57.8222 22.5087 55.9215 23.309 55.6214 24.0092 57.9223 24.4094 60.4232 24.4094 62.8242 24.8095 65.9254 24.8095 69.1266 24.4094 72.2278 24.4094 74.7287 23.7091 77.2297 22.5087 79.4306L21.7084 81.4313 21.7084 67.4259C21.7084 64.4248 22.1085 61.4236 22.4086 57.5221L22.4086 57.0219C21.7084 61.8238 21.3082 66.5256 21.3082 71.4275L21.3082 80.531 20.6079 79.3305C20.0077 76.1293 19.7076 72.828 19.9077 69.4267 20.0077 66.9257 20.2078 64.2247 20.6079 61.6237ZM14.8057 73.0281C15.8061 69.3267 17.6068 65.7253 20.1077 62.7241 19.6075 64.0246 19.2074 65.4252 19.0073 66.8257 17.1066 70.127 15.606 73.6283 14.4055 77.4298 14.0054 78.5302 14.0054 80.1308 13.7053 81.2312 13.8053 78.5302 14.2055 75.7291 14.8057 73.0281ZM19.0073 78.7303 17.4067 76.8296 18.5071 74.1285C18.6072 75.6291 18.8072 77.2297 19.0073 78.7303ZM32.8126 106.741 33.5129 104.04 36.514 105.941C36.514 105.941 32.8126 106.741 32.8126 106.741ZM40.3155 105.641 35.0135 102.539 30.4117 99.5383 29.7114 98.4379C29.4113 98.1377 29.0112 98.0377 28.611 98.0377 28.2109 98.4379 27.9107 98.0377 27.5106 97.3374 26.3101 98.0377 24.6095 97.7376 23.7091 96.6372L21.4082 93.9361 19.5075 90.5348 18.4071 89.8346C17.9069 90.0346 17.6068 90.0346 16.8065 90.0346 15.606 89.8346 14.5056 89.1343 13.8053 88.1339 12.3047 85.9331 11.1043 83.6322 10.0038 81.3313 8.00308 77.5298 6.20239 73.3282 4.20162 69.6268 3.50135 67.3259 3.10119 65.8253 2.601 65.5252 2.10081 65.2251 2.20085 64.8249 2.20085 65.5252 2.601 66.6256 2.601 68.2262 3.30127 69.3267 4.40169 72.3278 5.60215 75.0289 6.70258 77.6299 8.30319 80.631 9.70373 83.3321 11.3043 85.9331 8.40323 83.0319 6.00231 79.6306 4.00154 76.0292 2.50096 73.2282 1.60062 70.3271 1.00038 67.3259 0.700269 66.0254 0.600231 64.5248 0.600231 63.2243L0.600231 59.923C1.00038 59.0227 1.00038 59.0227 1.50058 59.0227 2.00077 59.0227 2.20085 59.723 3.40131 60.9234 5.10196 63.6245 6.30242 66.6256 7.20277 69.6268 8.80339 74.2285 9.90381 77.2297 10.2039 78.3301 10.504 79.4306 10.9042 81.0312 11.3043 82.1316 11.6045 83.132 12.1047 84.2324 12.905 85.1327 13.5052 86.3332 14.2055 87.5337 15.2058 88.5341 16.3063 89.2343 17.1066 89.2343 17.5067 88.9342L15.2058 84.3324 14.6056 84.3324 14.6056 82.7318C14.8057 81.4313 15.0058 79.9307 15.3059 78.6302 16.4063 75.2289 17.8068 72.0277 19.4075 68.7264 19.1073 69.9269 19.0073 71.2274 19.0073 72.5279 17.4067 76.3294 16.0062 79.3305 15.2058 81.6314 14.8057 83.232 14.8057 83.9323 15.2058 83.9323L15.606 83.5321 15.3059 82.3317 15.706 81.6314 16.4063 83.232 16.8065 82.8319 17.2066 83.5321 16.8065 84.2324 19.5075 88.0339 20.2078 87.3336 20.6079 88.0339C20.0077 88.5341 19.6075 89.2343 19.5075 90.0346 20.2078 91.1351 21.1081 92.7357 21.8084 93.8361 23.409 95.7368 24.5094 96.5371 25.2097 95.4367 25.6099 95.0366 25.91 95.4367 26.3101 95.8369 26.9104 96.3371 27.4105 96.9373 27.9107 97.7376L27.9107 96.137 25.6099 93.4359 24.0092 90.4348C23.309 89.3344 22.1085 87.7337 21.3082 86.6333L19.4075 83.232C18.7072 82.1316 17.8068 80.531 16.7064 79.1304L16.7064 78.3301 19.0073 81.3313C20.6079 83.132 21.9084 85.0327 23.1089 87.0335 23.8092 88.1339 24.2093 88.6341 24.7095 87.7337L25.1097 86.6333 25.91 86.9334 25.2097 89.6345 25.2097 90.3348C25.2097 91.035 25.2097 91.4352 25.6099 91.4352 26.01 91.4352 26.01 91.8353 26.3101 92.5356 27.0104 93.636 27.9107 94.4363 28.611 95.5368 29.8115 97.0373 31.212 98.2378 32.7126 99.3382 34.3132 100.038 35.4136 101.239 36.1139 101.639 36.8142 102.039 37.7145 102.74 37.2143 103.54L38.3147 103.94 38.0146 102.439 39.015 102.439C39.5152 102.84 39.8153 103.34 40.1154 104.04 41.2159 104.74 42.0162 105.641 43.1166 106.341L40.3155 105.641ZM17.9069 83.6322 18.307 83.232 20.2078 86.2332 20.2078 86.6333 17.9069 83.6322ZM21.4082 90.0346 22.1085 89.3344 24.0092 92.0354 25.1097 93.9361 25.5098 95.0366C24.8095 94.6364 24.4094 93.9361 23.9092 93.4359L22.8088 91.8353 21.4082 90.0346ZM45.0173 104.74 42.0162 102.439C41.2159 101.439 40.3155 100.339 39.3151 99.4382 38.915 99.0381 38.6149 98.3378 37.7145 97.8376 37.1143 97.5375 36.514 97.3374 35.8138 97.4375 35.4136 97.4375 35.1135 97.8376 34.7134 99.0381L34.3132 98.6379C34.3132 98.0377 34.6133 97.5375 35.0135 97.0373 35.4136 96.6372 36.0139 96.6372 36.6141 97.0373L40.0154 98.6379 45.7176 100.539C46.718 101.339 47.7184 102.439 48.4186 103.54 47.4182 104.14 46.3178 104.54 45.0173 104.74ZM46.6179 118.746C44.6172 120.746 42.5164 122.447 40.1154 124.048L39.7153 123.648C41.8161 122.447 43.8169 121.047 45.8176 119.546L46.918 118.446 46.2178 118.446C45.3174 119.246 44.217 120.046 43.2166 120.746 42.0162 121.547 40.7157 122.347 39.4152 123.047L37.5144 123.748 37.9146 124.148 39.5152 124.148C40.1154 124.448 40.5156 124.948 40.6156 125.748 40.6156 126.149 39.5152 126.449 38.3147 126.149L36.7141 125.448C36.2139 124.848 35.6137 124.448 34.8134 124.348L34.1131 123.948 34.5133 123.247 36.414 123.948 37.1143 123.948 36.7141 122.847 39.015 121.047C39.7153 120.646 39.7153 120.346 39.7153 119.946L39.7153 118.846C40.8157 119.046 42.1162 118.946 43.1166 118.446 44.217 118.045 45.4175 117.745 46.5179 117.745 47.6183 117.745 47.7184 118.045 46.6179 118.746ZM75.2289 13.5052 75.2289 11.9046 74.0285 12.3047C72.728 12.7049 71.1274 12.3047 70.227 11.2043 69.5267 11.2043 69.1266 10.8042 69.1266 10.504 69.1266 10.1039 69.5267 9.40362 68.7264 9.40362L66.8257 9.80377C65.9254 9.80377 65.025 9.40362 64.5248 8.70335 64.1247 8.30319 64.5248 7.60292 64.925 6.80262 64.1247 6.40246 63.2243 6.00231 62.6241 5.202 62.2239 4.80185 62.6241 4.10158 63.0242 3.60139 64.2247 3.20123 65.6252 3.20123 66.8257 3.60139 66.5256 3.20123 66.4256 2.70104 66.4256 2.10081 66.4256 1.70065 67.526 1.70065 69.8269 2.80108L71.4275 3.50135C71.8276 2.80108 72.2278 2.80108 73.4282 2.80108 74.5287 3.30127 75.5291 3.9015 76.4294 4.70181 77.6299 5.50212 78.7303 6.60254 79.4306 7.70296 79.8307 7.20277 80.4309 7.20277 81.0312 7.50289 81.2312 7.60292 81.3313 7.803 81.3313 8.00308L81.3313 9.60369C80.4309 8.60331 78.7303 8.50327 77.7299 9.40362L77.5298 9.60369 76.8296 9.30358C75.8292 8.40323 75.0289 7.20277 74.5287 5.90227 74.0285 4.80185 74.0285 4.80185 74.0285 5.50212 74.3286 6.70258 74.8288 7.90304 75.6291 8.90342 73.9284 8.30319 72.4279 7.40285 71.0273 6.20239 70.227 5.40208 69.3267 4.50173 68.7264 3.50135 68.3263 2.80108 68.0262 2.80108 68.0262 3.50135 68.4263 4.60177 69.2266 5.60215 70.3271 6.20239L68.7264 5.80223C67.626 5.40208 66.0254 5.10196 64.925 4.70181 64.5248 4.70181 64.5248 4.70181 64.925 5.10196 66.0254 5.50212 67.626 5.80223 68.7264 6.20239 69.4267 6.20239 69.8269 6.60254 70.6272 7.30281 69.4267 7.70296 68.1262 8.00308 66.8257 8.00308L65.7253 8.00308C66.1254 8.00308 66.1254 8.40323 66.4256 8.40323 68.1262 8.50327 69.7268 8.30319 71.4275 8.00308 73.0281 8.70335 74.1285 9.1035 75.5291 9.90381 74.5287 9.60369 73.2282 9.80377 72.5279 10.6041 72.1277 11.0042 72.5279 11.0042 72.9281 10.6041L76.3294 9.50366 77.4298 9.90381C77.5298 11.1043 77.7299 12.5048 78.1301 13.6052L77.4298 14.0054 75.2289 13.5052ZM82.9319 20.708C80.631 20.708 79.9307 20.708 79.9307 20.3078 79.9307 19.9077 79.9307 19.6075 80.631 19.2074L80.9311 18.5071C79.3305 17.8068 78.2301 16.9065 77.93 15.1058L79.0304 14.7057C79.4306 14.0054 79.4306 13.6052 79.0304 13.105 78.4302 12.4048 78.2301 11.4044 78.3301 10.404 78.7303 9.30358 80.2309 9.30358 82.1316 10.404 82.8319 8.80339 84.0323 8.10312 85.1327 8.80339 84.0323 8.80339 82.8319 9.50366 82.8319 10.404L82.8319 13.105C82.4317 12.4048 81.7314 12.0046 81.2312 11.5044 80.1308 11.1043 79.6306 11.1043 80.531 11.5044 81.2312 12.1047 81.8315 13.005 82.4317 13.8053 81.5314 14.6056 80.2309 15.0058 79.0304 14.9057 78.6302 14.9057 78.6302 15.3059 79.0304 15.3059 79.6306 15.3059 80.3309 15.2058 80.9311 14.9057 80.531 16.6064 81.2312 18.307 82.8319 19.0073 83.6322 19.9077 83.232 20.3078 82.9319 20.708ZM84.3324 21.9084C84.3324 21.5083 84.7326 21.2082 85.9331 21.2082 87.1335 21.2082 87.0335 20.808 86.3332 20.5079 85.2328 19.9077 84.1324 18.9073 83.3321 17.8068 82.6318 17.1066 82.6318 16.7064 83.3321 16.2062L84.0323 15.8061 84.4325 15.1058 84.0323 12.8049C83.6322 11.7045 84.0323 10.9042 85.1327 10.1039 86.4333 10.1039 87.8338 10.504 88.9342 11.2043 88.9342 10.504 89.3344 10.504 90.0346 10.504 90.7349 10.504 91.6352 12.4048 92.3355 15.506L93.4359 15.9061C93.636 15.506 93.8361 15.1058 94.1362 14.8057 94.6364 15.4059 95.0366 16.3063 95.2366 17.1066 96.3371 18.107 96.8372 19.8076 96.3371 21.2082 95.5368 21.9084 95.2366 23.2089 95.6368 24.2093L95.4367 23.0089C95.1366 21.7084 95.0366 20.2078 95.0366 18.9073L95.0366 22.3086C94.0362 20.708 92.6356 19.4075 91.2351 18.207 90.935 17.1066 90.8349 15.9061 90.8349 14.8057 90.8349 13.7053 90.4348 13.2051 90.4348 14.1054 90.0346 15.3059 90.0346 16.7064 90.4348 17.8068 89.1343 16.3063 87.7337 14.9057 86.6333 13.2051 86.2332 12.5048 86.2332 12.5048 86.2332 12.8049 86.8334 14.1054 87.5337 15.4059 88.5341 16.5063 89.2343 17.6068 90.4348 18.4071 90.8349 19.2074 89.7345 18.8072 88.9342 18.8072 87.8338 18.5071 87.0335 18.4071 86.2332 18.207 85.5329 17.8068 84.8326 17.8068 84.8326 17.8068 85.5329 18.207 86.3332 18.7072 87.3336 18.9073 88.2339 18.9073L91.6352 20.0077C92.6356 20.6079 93.536 21.6083 93.9361 22.6087L94.6364 24.5094C93.4359 23.8092 91.9354 23.309 90.5348 22.9088 89.6345 22.9088 88.6341 22.6087 87.8338 22.2085 86.7334 21.8084 86.7334 21.8084 87.4336 22.6087 88.334 23.1089 89.4344 23.309 90.4348 23.309 92.1354 23.7091 93.7361 24.3094 95.3367 25.2097L95.3367 25.6099C94.9365 26.01 94.9365 26.3101 94.9365 27.2105L95.3367 28.711C94.9365 28.3109 94.6364 28.3109 93.4359 29.4113 93.8361 29.0112 93.8361 28.4109 93.4359 27.8107 92.5356 26.5102 90.935 25.4098 89.0342 24.9096L88.6341 25.3097C86.7334 25.2097 85.1327 23.7091 84.3324 21.9084ZM100.839 55.5214C100.439 54.8211 99.7384 53.6206 98.9381 52.12 98.2378 50.5194 97.3374 49.419 97.0373 48.7187 96.6372 47.9184 96.6372 46.918 97.0373 46.0177 97.4375 45.3174 97.4375 44.4171 97.7376 43.7168L97.7376 43.3167C97.3374 44.0169 97.0373 45.2174 96.6372 46.0177L95.0366 42.3163C95.3367 40.1154 96.137 38.0146 97.3374 36.314 97.7376 35.6137 97.7376 35.6137 97.3374 35.9138 96.137 37.5144 95.1366 39.2151 94.6364 41.2159L92.3355 36.6141C92.6356 34.9134 93.1358 33.3128 93.9361 31.6122 94.6364 30.5117 94.3363 30.5117 93.536 31.6122 92.9358 32.7126 92.4356 34.1131 91.9354 35.4136 91.2351 32.7126 90.8349 30.4117 90.0346 29.0112L89.6345 28.611 90.0346 29.3113C90.3348 31.4121 90.8349 33.3128 91.6352 35.3136 90.8349 34.5133 89.7345 33.813 88.6341 33.4129 89.6345 34.0131 90.7349 34.9134 91.6352 35.7137 92.0354 36.8142 92.7357 38.0146 93.2359 39.115 91.9354 38.3147 90.5348 37.5144 89.1343 36.8142 88.434 36.8142 88.434 36.8142 89.1343 37.2143 91.035 37.6145 92.6356 38.7149 93.7361 40.2155L95.3367 44.0169C94.9365 44.0169 94.2362 43.3167 93.4359 41.716 92.2355 39.9154 90.4348 38.6149 88.334 37.9146 87.8338 37.6145 87.6337 37.0142 87.6337 36.314 87.6337 35.9138 88.0339 35.6137 89.2343 35.6137 88.8342 34.9134 88.8342 34.5133 88.5341 33.713L88.1339 33.0127C87.4336 31.4121 87.8338 30.7118 89.2343 30.7118 88.1339 31.112 88.1339 30.3117 88.1339 30.0115 88.0339 29.1112 88.334 28.1108 88.8342 27.3105 89.2343 26.9104 89.2343 26.2101 89.5344 25.7099L91.8353 26.8103C92.5356 27.1104 92.9358 27.9107 92.9358 28.711L92.5356 30.6118C92.5356 31.0119 92.9358 31.0119 93.636 30.2116 93.9361 29.5114 94.4363 29.0112 95.2366 28.611 95.6368 29.0112 96.3371 29.3113 96.8372 29.7114 97.2374 31.312 97.1374 32.8126 96.4371 34.3132L95.6368 36.514C97.2374 34.6133 98.3378 33.5129 99.4382 33.5129L99.4382 37.6145C99.4382 38.3147 99.2382 38.915 98.738 39.5152 98.0377 40.1154 97.5375 41.2159 97.6376 42.2162 99.2382 41.1158 99.5383 41.516 99.5383 42.6164L98.838 45.6175C98.4379 47.2182 98.838 47.9184 99.5383 47.5183 100.239 47.1181 100.639 47.5183 100.639 47.9184L100.639 49.519C100.339 50.0192 100.139 50.7195 100.239 51.4198 100.239 51.8199 100.639 51.8199 100.639 52.12L101.739 52.12C102.139 52.12 102.84 52.12 102.84 52.8203L102.84 54.7211C102.84 55.4213 103.14 56.0215 103.54 56.6218 103.94 57.0219 104.24 57.322 104.64 57.322L105.341 56.6218C104.64 56.6218 104.24 56.2216 104.24 54.7211L104.24 51.7199C103.84 51.0196 103.54 50.1193 103.14 50.1193 102.139 47.9184 101.139 45.6175 100.439 43.3167L102.039 43.3167C103.14 47.1181 103.94 49.0189 104.34 49.319 104.74 49.6191 105.04 50.0192 105.04 50.4194 105.04 51.3197 105.14 52.2201 105.441 53.1204 106.941 52.3201 107.441 50.4194 106.541 49.0189 106.541 48.6187 106.141 48.6187 105.841 48.3186 105.14 48.0185 104.64 47.5183 104.24 46.718 103.84 46.0177 104.24 45.6175 104.94 45.1174 105.641 44.7172 104.24 43.5167 101.139 41.716 99.5383 40.6156 99.2382 39.8153 99.5383 39.015 99.8384 38.2147 100.239 38.6149 100.639 39.015 100.939 39.2151 101.339 39.4152 101.739 39.4152 101.739 39.4152 101.739 38.3147 101.039 38.3147 100.339 38.3147 99.9384 37.9146 99.9384 37.6145L99.9384 32.6125C99.5383 31.9123 98.3378 31.9123 97.2374 32.6125 97.5375 31.9123 97.6376 31.112 97.6376 30.3117 97.6376 29.5114 97.2374 28.711 96.5371 28.4109L95.7368 26.5102C95.7368 25.8099 96.137 25.4098 96.8372 24.9096 96.4371 24.0092 96.4371 22.8088 96.8372 21.9084 97.2374 21.5083 97.2374 20.808 97.5375 20.3078 97.5375 19.9077 97.9377 19.9077 98.6379 20.3078 99.9384 21.3082 101.139 22.7087 102.039 24.1093 102.74 23.409 103.64 23.7091 103.94 24.8095 104.74 26.11 104.94 27.8107 104.64 29.4113 106.541 29.0112 106.941 29.8115 106.541 31.7122 107.241 32.7126 107.641 33.913 107.641 35.1135 107.741 35.8138 107.541 36.7141 107.241 37.4144 106.841 37.8145 106.841 38.5148 106.541 39.015 106.541 39.4152 106.541 39.4152 106.941 39.015 107.341 38.3147 108.042 37.9146 108.842 37.9146 109.342 38.7149 109.542 39.7153 109.542 40.6156 109.542 41.2159 109.242 41.716 108.842 42.2162 108.442 42.8165 108.042 43.4167 107.741 44.117 107.741 44.5171 107.741 44.8172 108.442 44.8172L109.542 44.4171C110.242 44.4171 110.242 44.8172 109.542 46.0177 109.142 47.1181 108.442 47.9184 107.942 49.0189 107.641 49.6191 107.541 50.2193 107.541 50.9196 107.541 51.5198 107.341 52.12 107.141 52.8203L107.141 48.7187C106.741 47.1181 106.741 45.3174 106.441 43.7168 107.041 42.8165 107.541 41.716 108.042 40.7157 108.442 40.0154 108.442 39.6152 108.042 40.3155 107.741 41.3159 107.241 42.2162 106.441 43.0165 106.041 41.4159 105.341 39.2151 104.84 37.0142 105.541 35.8138 105.941 34.3132 105.941 32.9127 105.941 31.312 105.941 31.312 105.541 32.5125 105.541 34.1131 104.84 35.2135 103.94 36.6141 103.54 34.7134 102.94 33.0127 102.039 31.212 102.339 30.1116 102.439 28.9111 102.439 27.8107 102.439 26.7103 102.439 26.7103 102.039 27.4105 102.139 28.1108 101.939 29.0112 101.639 29.7114L100.038 26.01 99.3382 23.7091C98.9381 23.0089 98.9381 23.0089 98.9381 23.7091L99.6383 26.4102C99.2382 25.7099 98.5379 25.2097 97.7376 24.8095 97.0373 24.4094 97.0373 24.4094 97.3374 24.8095 98.2378 25.6099 99.2382 26.5102 100.038 27.5106L101.939 32.1124C100.939 31.0119 99.5383 30.2116 98.1377 29.8115 97.4375 29.4113 97.4375 29.8115 98.1377 30.2116 99.7384 31.312 101.139 32.8126 102.239 34.3132L103.84 38.915C102.639 38.1147 101.539 37.0142 100.839 35.9138 100.439 35.5137 100.139 35.5137 100.839 36.314 101.839 37.6145 103.04 38.915 104.24 40.1154L105.341 44.217C104.14 43.0165 102.74 41.9161 101.239 41.2159 100.539 40.8157 100.539 40.8157 101.239 41.616 103.04 42.9165 104.44 44.4171 105.841 46.2178 106.241 48.5187 106.541 50.8195 106.541 53.0204 106.541 53.7207 105.841 54.621 104.64 54.9211L104.24 58.3224 102.339 58.3224C102.539 57.122 101.639 56.3217 100.839 55.5214ZM103.14 58.9227 104.74 58.9227C104.04 62.324 103.14 66.1254 102.84 68.3263L102.139 67.9261C102.74 65.025 103.14 62.0239 103.14 58.9227ZM91.3351 78.3301C90.935 78.3301 90.2347 77.6299 89.0342 76.4294 87.9338 75.329 87.4336 74.5287 87.9338 73.4282 87.4336 73.1281 87.2336 72.5279 87.2336 71.8276 86.8334 71.4275 86.8334 70.8272 87.2336 70.227 87.6337 69.8269 88.334 69.8269 89.9346 70.9273 90.3348 70.227 90.3348 69.3267 89.9346 68.6264L88.7341 66.7257C88.334 65.7253 87.7337 64.7249 86.8334 64.0246 86.4333 62.9242 86.1331 62.424 86.4333 62.1239 86.7334 61.8238 87.1335 62.1239 87.5337 62.5241 88.6341 61.4236 89.4344 60.9234 89.8346 61.4236 90.3348 62.2239 90.5348 63.2243 90.5348 64.1247 90.935 65.3251 90.935 66.7257 90.5348 67.8261L90.0346 68.4263 90.4348 68.8265C90.5348 69.8269 90.4348 70.9273 90.0346 71.8276 89.9346 72.2278 90.1347 72.6279 90.4348 72.9281L90.4348 71.8276C90.4348 71.3274 90.5348 70.8272 90.8349 70.3271 90.8349 69.9269 91.2351 69.2266 91.2351 68.7264L90.8349 68.3263C91.2351 68.3263 91.2351 67.9261 91.5352 67.9261L91.5352 64.925C91.6352 64.0246 91.5352 63.1243 91.2351 62.2239 91.2351 61.8238 90.8349 61.1235 90.8349 60.6233 90.8349 60.2232 90.5348 59.923 90.1347 59.923 89.7345 59.923 89.0342 60.3232 88.2339 61.5237 88.6341 60.4232 88.9342 58.8226 89.3344 57.7222 89.7345 57.0219 90.0346 57.0219 90.4348 57.0219 90.8349 57.0219 91.1351 57.322 91.1351 57.7222 91.1351 58.1224 91.5352 58.1224 91.8353 57.322 92.1354 56.5217 92.2355 56.6218 92.5356 56.9219L93.2359 57.6222C93.2359 58.0223 93.636 58.3224 93.636 58.7226 93.636 59.4229 94.0362 60.3232 94.0362 61.4236 94.1362 62.1239 93.9361 63.0242 93.636 63.7245 93.2359 64.1247 93.2359 64.4248 93.2359 65.3251 93.2359 66.4256 93.3359 67.626 93.636 68.7264 93.9361 68.7264 94.1362 68.5264 94.3363 68.3263 94.6364 68.0262 95.0366 67.9261 95.4367 67.9261 95.8369 67.9261 95.8369 68.6264 95.8369 69.8269 95.8369 70.9273 95.8369 71.4275 96.237 70.227 96.6372 69.1266 96.6372 68.6264 97.3374 68.6264 98.0377 68.6264 98.0377 69.7268 97.7376 72.4279 96.237 73.4282 95.0366 74.8288 93.9361 76.2293 93.536 75.5291 93.536 74.6287 93.9361 73.9284 94.3363 73.5283 94.3363 72.828 94.6364 72.3278 94.6364 71.9277 95.0366 71.2274 95.0366 70.7272 95.4367 69.6268 95.4367 69.6268 95.0366 70.3271 94.6364 70.7272 94.6364 71.0273 94.3363 71.9277 93.9361 72.3278 93.9361 72.6279 93.636 73.0281 93.2359 71.9277 93.2359 70.3271 92.9358 69.2266 92.6356 68.1262 92.5356 68.1262 92.5356 69.2266 92.9358 71.2274 93.2359 73.2282 93.2359 75.2289 92.6356 74.5287 91.7353 73.9284 90.935 73.3282 90.2347 72.6279 89.3344 72.2278 89.0342 71.4275 88.6341 71.0273 88.334 71.0273 88.6341 71.8276 88.9342 72.6279 90.2347 73.4282 90.935 74.5287 91.6352 75.6291 92.8357 76.1293 92.8357 76.4294 93.2359 76.8296 93.2359 76.8296 93.2359 77.1297 92.8357 77.5298 92.5356 78.2301 91.6352 78.7303 91.2351 78.3301 91.2351 78.3301 91.2351 78.03 91.6352 78.6302 91.6352 78.3301 91.3351 78.3301ZM66.8257 102.94C67.3259 102.339 67.9261 101.839 68.7264 101.339 71.0273 100.239 73.7284 99.0381 76.4294 97.9377L77.0296 97.9377 77.4298 98.6379 76.7295 99.0381C76.1293 99.3382 75.5291 99.5383 74.8288 99.4382 74.0285 99.5383 73.2282 99.7384 72.5279 100.139 71.6275 100.339 70.9273 101.139 70.9273 102.039 70.9273 102.439 70.5271 102.74 70.227 103.14L67.526 104.74 65.6252 104.74 66.8257 102.94ZM72.5279 105.24 71.4275 105.24 69.1266 104.84 71.4275 103.74 72.5279 105.24 72.5279 104.84 72.1277 103.74C71.8276 103.04 72.1277 102.139 72.728 101.839 72.728 101.839 72.828 101.839 72.828 101.739 73.5283 101.339 74.3286 101.039 75.1289 101.039 75.5291 101.039 75.5291 101.739 75.1289 102.94 74.5287 103.84 73.5283 104.54 72.5279 105.24ZM62.6241 113.944 62.2239 112.843 60.3232 115.144 58.7226 116.245C58.2224 116.745 57.5221 116.945 56.8219 116.945L54.521 115.845 55.6214 115.144 56.0215 115.544C55.6214 116.245 56.0215 116.245 56.7218 115.144L58.6225 113.244C58.6225 111.643 58.3224 110.142 57.9223 108.642 57.6222 107.341 57.122 106.041 56.3217 104.84 56.3217 104.44 55.2212 104.44 53.3205 104.44 54.621 104.04 56.1216 104.04 57.4221 104.44L59.0227 105.14 59.723 104.74 58.1224 104.04 58.8226 104.04 59.5229 104.74 59.923 105.14C61.4236 106.641 62.7241 108.242 63.7245 110.142 64.1247 110.943 64.1247 111.943 63.7245 112.843 63.8246 113.944 62.9242 114.244 62.6241 113.944ZM78.6302 123.347 79.3305 123.748 78.9304 124.148 77.0296 124.548C76.2293 125.148 75.329 125.648 74.3286 126.149L73.2282 125.748 72.828 125.048C73.2282 124.648 73.5283 124.348 73.9284 124.348 74.3286 124.048 74.9288 123.948 75.5291 123.948L77.1297 124.348C77.0296 124.248 78.6302 123.347 78.6302 123.347ZM76.3294 123.347C75.2289 123.347 74.4286 124.048 74.0285 124.048L73.3282 124.048C72.4279 122.947 71.3274 121.947 70.3271 121.047L67.3259 118.346C68.0262 117.945 69.2266 118.346 71.1274 118.746L76.3294 123.347ZM85.9331 109.042 88.9342 109.042C91.7353 107.441 94.3363 105.641 96.6372 103.34 99.5383 101.039 102.74 99.2382 106.141 97.6376 106.841 97.2374 106.841 96.9373 106.141 96.9373 105.14 96.6372 104.14 96.5371 103.14 96.5371 102.74 96.9373 102.74 97.2374 103.14 97.2374L104.74 97.2374C102.039 98.838 99.3382 100.239 97.0373 101.839 97.0373 100.739 97.4375 98.838 97.4375 96.5371 97.3374 95.7368 97.1374 94.9365 96.7372 94.2362 96.3371 93.8361 96.7372 93.536 97.8376 93.1358L98.5379 92.7357 98.5379 94.3363 97.4375 93.9361 97.4375 94.6364C97.8376 95.1366 98.3378 95.4367 99.0381 95.7368L104.44 95.7368C106.341 95.7368 107.441 96.137 107.141 97.3374L107.141 100.038C107.541 102.039 108.342 103.94 109.442 105.741 108.942 106.841 108.342 107.841 107.541 108.742L104.14 110.943C101.139 113.244 96.8372 115.945 91.4352 119.246 82.6318 119.346 73.9284 118.045 65.5252 115.444L64.4248 115.044 64.8249 114.644C65.2251 113.944 65.9254 113.544 65.9254 112.743 65.9254 110.242 64.925 107.841 62.9242 106.341L62.9242 105.941 64.0246 105.541C66.6256 105.541 69.2266 105.941 71.7276 106.641 74.0285 107.041 76.7295 107.741 79.7307 108.242 81.5314 108.542 83.7322 108.842 85.9331 109.042ZM80.9311 107.441C79.8307 107.041 77.93 107.041 75.2289 106.341L77.5298 105.641C78.3301 106.041 79.4306 105.741 79.8307 104.94 80.2309 105.541 80.631 106.641 80.9311 107.441ZM95.4367 87.3336C94.6364 88.0339 94.3363 89.3344 94.7364 90.3348 93.2359 91.1351 92.0354 92.2355 90.935 93.3359 89.9346 94.3363 89.0342 95.5368 88.2339 96.7372 87.9338 97.5375 87.2336 98.0377 86.3332 98.3378 85.4329 98.5379 84.4325 98.4379 83.6322 97.9377L83.232 99.5383 78.6302 102.239 76.3294 103.34C76.6295 102.639 76.7295 101.839 76.7295 101.039L77.4298 100.339C80.4309 98.738 82.4317 97.3374 82.8319 95.7368 83.232 94.7364 83.8323 93.7361 84.7326 93.0358 85.3328 92.2355 85.833 91.3351 86.3332 90.3348L86.3332 87.3336C87.0335 88.0339 87.9338 88.434 88.2339 87.7337 89.0342 85.9331 90.1347 84.3324 91.3351 82.7318 92.3355 81.2312 93.536 79.9307 94.7364 78.6302L97.7376 75.2289 97.7376 76.8296C95.9369 79.0304 94.3363 81.3313 92.7357 83.6322 90.8349 86.2332 89.3344 88.9342 88.1339 91.9354 87.7337 93.0358 86.9334 94.0362 85.833 94.6364 85.2328 94.9365 84.7326 95.2366 84.2324 95.7368 83.8323 96.4371 84.2324 96.4371 84.6326 96.137 85.0327 95.7368 85.5329 95.3367 86.2332 95.0366 88.7341 92.9358 90.935 90.4348 92.7357 87.8338L92.7357 85.6329 93.4359 84.5325C93.4359 85.6329 93.4359 86.8334 93.8361 86.8334 94.2362 86.8334 94.5364 86.4333 94.9365 85.733 95.3367 85.0327 96.5371 82.3317 98.3378 78.5302 97.9377 79.4306 97.9377 80.631 98.3378 81.5314 97.2374 82.2316 96.7372 83.4321 97.6376 85.3328L95.4367 87.3336ZM110.643 72.2278C110.643 73.3282 110.242 74.4286 109.542 75.2289 107.641 77.5298 106.841 78.6302 107.241 79.0304 107.641 80.0308 107.541 81.2312 106.841 82.0316 105.741 83.5321 104.34 84.9327 103.04 86.1331 103.44 86.8334 103.04 87.7337 101.939 88.434 100.439 89.2343 98.9381 89.9346 97.3374 90.3348 100.038 88.7341 102.039 86.2332 102.74 83.132 103.34 82.5317 104.24 82.0316 105.04 81.5314 105.741 81.1312 105.741 80.8311 105.441 81.1312 104.54 81.4313 103.54 81.9315 102.74 82.6318 103.54 80.731 104.24 78.9304 104.64 76.9296 105.841 75.6291 107.041 74.2285 108.042 72.828 108.742 72.1277 108.742 71.7276 108.042 72.4279 107.241 73.9284 106.141 75.1289 105.04 76.2293 105.741 74.3286 106.141 72.1277 106.941 69.8269 107.341 68.2262 106.941 68.2262 106.941 69.1266L106.541 70.7272 105.441 68.4263 106.141 71.4275C105.741 73.0281 105.441 74.8288 105.04 76.4294 104.44 74.6287 103.44 73.0281 102.339 71.4275 101.639 70.3271 101.239 70.3271 101.939 71.4275 103.04 73.3282 103.94 75.329 104.64 77.4298 104.24 79.3305 103.64 81.0312 102.74 82.7318 102.339 82.0316 101.639 81.5314 100.839 81.1312 100.439 80.731 100.439 81.1312 100.839 81.5314 101.439 82.0316 101.939 82.7318 102.439 83.4321 101.939 84.6326 101.239 85.9331 100.139 86.8334 99.3382 87.7337 98.4379 88.7341 97.4375 89.5344 98.5379 87.8338 99.0381 85.9331 98.5379 83.9323 98.5379 83.5321 98.838 83.232 99.2382 83.232 99.6383 83.232 99.9384 82.9319 99.9384 82.5317 99.5383 81.8315 99.2382 81.0312 99.2382 80.2309L100.839 80.2309C101.539 79.8307 101.239 79.5306 100.839 78.6302 100.038 77.7299 99.6383 76.4294 99.7384 75.2289 99.7384 74.5287 100.139 74.1285 101.339 74.5287 101.739 74.5287 101.739 74.1285 101.339 72.6279L100.339 71.0273C99.6383 69.1266 99.9384 68.7264 101.439 69.1266L103.34 70.227C104.44 70.6272 105.24 69.8269 105.24 67.9261 105.24 67.526 105.641 67.526 106.341 67.526 107.241 67.526 108.042 66.9257 108.342 66.0254 109.042 65.3251 109.442 66.0254 109.942 67.9261 110.342 69.8269 110.342 71.3274 111.843 71.3274 110.643 71.0273 110.643 71.4275 110.643 72.2278ZM112.643 66.2255C112.643 66.6256 112.543 67.0258 112.243 67.3259 111.843 67.7261 111.343 67.9261 110.643 68.0262L109.942 66.9257C109.942 65.8253 109.542 64.7249 108.842 63.9246 109.242 63.4244 109.742 63.2243 110.442 63.2243 110.843 62.8242 110.843 63.2243 110.042 63.2243 109.242 63.2243 108.942 63.9246 108.142 63.9246 108.542 62.424 109.142 61.0235 110.042 59.823 110.442 59.1227 110.042 59.1227 109.642 59.823 108.942 60.8234 108.142 62.0239 107.741 63.1243 107.341 62.7241 107.341 62.0239 107.041 61.5237 107.041 60.8234 106.641 60.8234 106.641 61.5237 106.741 62.324 106.941 63.1243 107.341 63.8246 106.241 65.4252 105.441 66.1254 105.04 65.7253 105.341 63.4244 105.841 61.1235 106.641 58.9227 107.741 57.8222 108.542 57.322 109.342 57.8222 110.442 57.122 111.243 56.7218 112.043 57.4221 112.443 58.1224 112.743 58.5225 112.443 59.3228 112.343 60.1231 112.143 60.9234 111.743 61.6237 112.443 61.6237 112.843 62.0239 113.344 62.7241 113.043 64.2247 112.243 65.4252 111.043 66.1254 112.243 65.7253 112.643 66.2255 112.643 66.2255Z" fill="#FFFFFF" transform="matrix(1 0 0 1 -142.002 0.025202)"/><path d="M16.8065 109.742C17.5067 110.142 18.4071 110.142 18.7072 109.342 19.1073 108.942 19.1073 108.342 18.7072 107.741L18.307 107.341C17.9069 106.941 17.9069 106.941 17.6068 107.741 17.5067 107.741 16.8065 109.742 16.8065 109.742ZM8.00308 103.74C8.70335 104.44 9.1035 104.84 10.304 103.74 10.7041 103.34 10.7041 102.74 10.304 102.139L9.90381 101.739 9.50366 101.739 8.00308 103.74ZM20.908 110.142C20.908 109.442 21.3082 109.042 20.5079 108.542 20.908 108.542 21.2082 108.842 21.2082 109.242 21.5083 109.542 21.9084 109.642 22.3086 109.642 22.3086 109.642 21.6083 109.242 21.6083 109.642 21.5083 110.442 21.3082 111.243 20.908 111.943L20.5079 114.644 22.8088 113.043C23.2089 112.643 24.4094 111.443 24.4094 111.143 24.4094 110.843 24.4094 110.442 24.0092 110.442L24.0092 110.042 24.7095 110.442C25.1097 110.442 25.1097 110.843 25.4098 110.843 24.7095 110.442 24.3094 111.243 23.509 111.543L19.7076 115.344 19.3074 114.944 20.908 110.142ZM15.706 110.943C15.706 111.343 15.3059 112.043 15.3059 112.543 15.3059 112.943 15.3059 112.943 15.706 113.244L15.706 113.644 14.6056 112.543C14.3055 112.543 14.1054 112.343 13.9053 112.143L13.9053 111.743C14.3055 111.743 14.6056 112.143 14.6056 111.743 15.0058 111.343 15.3059 111.043 15.3059 110.643L16.9065 108.342C16.9065 107.942 17.6068 107.641 17.6068 107.241 17.6068 106.841 17.6068 106.541 17.2066 106.541 17.6068 106.941 17.9069 106.941 18.307 107.241 18.7072 107.541 19.0073 107.641 19.4075 107.942 20.2078 108.342 20.5079 109.442 20.2078 110.242L20.2078 110.643C19.7076 111.443 18.7072 111.743 17.9069 111.343 17.7068 111.343 17.5067 111.143 17.5067 111.043 17.1066 111.043 17.1066 111.043 17.1066 110.643 17.1066 110.442 15.706 110.943 15.706 110.943ZM12.2047 105.641C12.2047 105.24 12.905 104.94 12.905 104.54 12.905 104.14 12.905 103.84 12.5048 103.84L13.005 103.84 16.4063 106.141 15.3059 107.241C16.0062 106.541 15.706 106.141 14.9057 105.341L14.5056 104.94C14.5056 104.54 14.5056 104.54 14.1054 104.94L13.005 106.841C13.4052 107.341 14.0054 107.341 14.6056 107.041 14.8057 106.941 14.9057 106.741 14.9057 106.541 14.5056 106.941 14.2055 107.241 14.2055 107.641 14.2055 108.042 13.8053 108.342 13.5052 108.742L13.5052 108.342C14.2055 107.641 13.9053 107.241 13.105 106.741L11.5044 108.742C11.5044 109.142 11.1043 109.142 11.1043 109.442 11.1043 109.842 11.4044 110.142 11.8045 110.142 12.4048 110.543 13.105 110.543 13.7053 110.142L13.005 111.743 8.90342 109.042 8.90342 108.642 9.60369 108.642C10.0038 108.242 10.304 107.942 10.304 107.541L12.2047 105.641ZM8.40323 107.741C8.30319 108.142 8.50327 108.542 8.80339 108.842L8.40323 108.442C8.10312 108.442 7.90304 108.242 7.70296 108.042L7.70296 104.64C7.70296 104.24 7.70296 104.24 7.30281 103.94L6.90266 104.64C6.5025 105.04 6.5025 105.341 6.20239 105.741 6.20239 106.141 6.20239 106.141 6.60254 106.441 6.30242 106.441 6.10235 106.241 5.90227 106.041 5.50212 105.641 5.202 105.641 4.80185 105.341 5.202 105.341 5.202 105.741 5.50212 105.341 5.80223 104.94 6.20239 104.64 6.20239 104.24L7.803 101.939C8.20316 101.539 8.20316 101.239 8.50327 100.839 8.50327 100.439 8.50327 100.439 8.10312 100.139 8.50327 100.539 8.80339 100.839 9.20354 100.839 9.60369 100.839 9.90381 101.139 9.90381 101.539 10.6041 102.239 11.5044 102.639 10.6041 103.84 10.6041 104.54 9.50366 104.94 8.70335 104.54L8.40323 104.54 8.40323 107.741ZM53.1204 109.742 52.02 107.441 51.6199 110.142 53.1204 109.742ZM33.2128 114.244C33.1127 114.644 33.3128 115.044 33.6129 115.344 34.0131 115.745 34.0131 115.745 34.3132 115.745 35.0135 115.344 35.0135 115.044 35.0135 114.144 35.0135 113.744 34.6133 113.444 34.3132 113.043 34.0131 112.643 33.6129 113.043 33.2128 113.043L33.2128 114.244ZM33.2128 112.743C33.4129 112.543 33.713 112.443 33.913 112.343 34.3132 111.943 34.3132 111.643 34.3132 110.743 34.3132 110.142 33.913 109.742 33.4129 109.642L32.8126 109.642 32.8126 110.042 33.2128 112.743ZM28.2109 115.044C28.1108 115.444 28.3109 115.845 28.611 116.145 28.611 116.545 29.0112 116.545 29.3113 116.145 29.6114 115.745 30.4117 115.745 30.4117 114.544 30.4117 113.844 30.0115 113.844 29.7114 113.444L28.611 113.444 28.611 115.044 28.2109 115.044ZM27.8107 113.444C28.511 113.444 28.511 113.043 28.9111 113.043 28.9111 112.643 29.3113 112.343 29.3113 111.943 29.4113 111.443 29.0112 110.943 28.4109 110.843L28.2109 110.843C28.0108 110.843 27.8107 111.043 27.8107 111.143L27.8107 113.444ZM51.5198 110.943C51.5198 111.343 51.1197 112.043 51.5198 112.543 51.92 112.943 51.92 112.943 52.2201 112.943L52.2201 113.344 50.7195 113.344C51.1197 113.344 51.4198 113.043 51.4198 112.643 51.3197 112.043 51.5198 111.343 51.8199 110.743L52.5202 106.641 52.9204 106.641 55.2212 111.243C55.2212 111.643 55.6214 111.943 55.9215 112.343 56.2216 112.743 56.3217 112.743 56.6218 112.743L56.6218 113.144 55.5214 113.144C55.1212 113.144 54.8211 113.544 54.4209 113.544L54.4209 113.043C54.4209 113.043 55.1212 113.043 54.8211 112.343 54.521 111.643 54.8211 111.943 54.8211 111.643L54.1208 110.543 52.2201 110.943 51.5198 110.943ZM48.4186 107.041 48.8188 108.942C48.4186 107.841 47.7184 107.041 46.918 107.341 45.3174 107.341 45.3174 109.242 45.3174 110.743 45.3174 112.343 46.0177 113.744 48.0185 113.444 50.0192 113.144 49.1189 112.343 49.1189 111.143L49.519 113.444 49.1189 113.043C48.7187 113.444 48.2185 113.744 47.5183 113.844 45.9177 114.244 44.5171 113.144 44.117 111.143 43.7168 109.142 44.8172 107.341 46.4179 107.341 47.0181 107.241 47.7184 107.441 48.3186 107.741L48.3186 107.041 48.4186 107.041ZM42.4163 109.742C42.4163 109.342 42.0162 109.042 42.0162 108.642 41.616 108.642 41.616 108.242 41.3159 108.242L40.9157 108.242C41.3159 108.242 41.616 107.841 42.0162 107.841 42.4163 107.841 42.7164 107.441 43.1166 107.441L43.1166 107.041C42.7164 107.041 42.7164 107.441 42.4163 107.441 42.3163 107.841 42.5164 108.242 42.8165 108.542L43.2166 111.543C43.1166 111.943 43.3167 112.343 43.6168 112.643 43.6168 113.043 44.0169 113.043 44.317 113.043L44.317 113.444 43.2166 113.444C42.8165 113.444 42.5164 113.844 42.1162 113.844L42.1162 113.544C42.5164 113.544 42.8165 113.544 42.8165 113.144L42.8165 112.043 42.4163 109.742ZM37.0142 110.943 37.0142 109.342C36.6141 108.942 36.6141 108.942 36.314 109.342L36.314 108.942C36.7141 108.942 37.1143 108.842 37.4144 108.542L38.5148 108.542 38.5148 108.942C38.1147 108.942 37.8145 108.942 37.8145 109.342 37.8145 109.742 38.2147 110.442 38.2147 110.943L38.6149 113.944C38.6149 115.044 39.015 115.544 40.2155 115.044 40.6156 115.044 41.0158 114.944 41.3159 114.644 41.616 114.344 41.716 113.944 41.716 113.544L42.1162 113.144 42.5164 115.044 42.1162 115.044C40.6156 115.044 39.3151 115.344 38.0146 115.745 38.2147 115.544 38.5148 115.444 38.7149 115.344L38.7149 113.744 38.0146 111.043 37.0142 110.943ZM32.0123 111.643C32.1124 111.243 31.9123 110.843 31.6122 110.543 31.212 110.142 31.212 110.142 30.9119 110.142 31.312 110.142 31.6122 109.742 32.0123 109.742L32.7126 109.742C33.5129 109.442 34.6133 109.842 34.9134 110.643 34.9134 110.743 35.0135 110.743 35.0135 110.843 35.0135 111.643 34.6133 112.443 33.913 112.743 34.3132 112.743 34.7134 112.843 35.0135 113.144 35.4136 113.544 35.7137 113.844 35.7137 114.244 35.7137 114.844 35.4136 115.344 35.0135 115.845 35.4136 116.245 34.6133 116.545 34.3132 116.545 34.3132 116.945 33.6129 116.945 33.6129 116.945 33.1127 116.945 32.6125 117.045 32.0123 117.345L32.0123 116.945C32.0123 116.945 32.7126 116.945 32.7126 116.545L32.7126 115.444C32.8126 115.344 32.0123 111.643 32.0123 111.643ZM27.1104 112.743C27.1104 112.343 26.7103 111.643 26.7103 111.143 26.7103 110.743 26.3101 110.743 26.01 111.143L26.01 110.743 28.3109 110.743C29.0112 110.743 30.2116 110.743 30.6118 111.843 31.0119 112.543 30.6118 113.444 29.9115 113.444 30.3117 113.444 30.7118 113.544 31.0119 113.844 31.4121 114.244 31.7122 114.544 31.7122 114.944 31.7122 115.644 31.7122 116.045 31.0119 116.545 30.6118 116.845 30.0115 116.945 29.4113 116.945L28.3109 116.945C27.6106 116.945 27.6106 117.345 26.7103 117.345L26.7103 117.045C27.1104 117.045 27.4105 117.045 27.4105 116.645 27.4105 116.245 27.0104 115.544 27.0104 115.044L27.1104 112.743ZM78.6302 113.644 78.2301 110.943 77.1297 113.644 78.6302 113.644ZM89.0342 112.743 89.0342 111.643C88.8342 111.443 88.5341 111.343 88.334 111.243L88.334 110.843 90.6349 110.843 90.6349 111.243C90.2347 111.243 90.2347 111.243 89.9346 111.643L89.9346 113.244 90.3348 115.945 90.3348 117.545C90.3348 117.945 90.7349 117.945 91.035 117.945L88.7341 117.945C88.7341 117.945 89.4344 117.945 89.4344 117.545L89.4344 116.445 89.0342 112.743ZM82.9319 112.443 82.9319 110.843C82.9319 110.442 82.5317 110.442 82.2316 110.442L82.2316 110.042C82.6318 110.042 82.9319 110.442 83.3321 110.442L84.9327 110.442 84.9327 110.843C84.9327 110.843 84.2324 110.843 84.2324 111.243 84.3324 111.743 84.1324 112.243 83.8323 112.843L83.4321 115.845C83.4321 116.945 83.4321 117.445 84.1324 117.445 84.8326 117.445 84.8326 117.845 85.2328 117.445 85.6329 117.045 85.9331 116.745 85.9331 116.345L86.3332 116.345 86.0331 118.245 85.6329 118.245C84.0323 117.845 82.6318 117.845 81.0312 117.545 81.4313 117.545 81.7314 117.545 81.7314 117.145 81.6314 116.745 81.8315 116.345 82.1316 116.045L82.9319 112.443ZM76.3294 113.944C76.2293 114.544 75.9292 115.044 75.6291 115.544 75.2289 115.945 76.0292 115.945 76.3294 116.245L75.6291 116.245C75.329 116.045 74.9288 115.945 74.5287 115.845 74.9288 115.845 75.2289 115.544 75.2289 115.144 75.2289 114.744 75.9292 114.044 75.9292 113.244L77.8299 109.442 78.2301 109.442 78.9304 114.744C78.9304 115.144 78.9304 115.845 79.3305 115.845 79.7307 115.845 79.7307 116.245 80.0308 116.245L78.9304 116.245C78.5302 116.245 78.2301 115.845 77.8299 115.845L77.8299 115.444 78.5302 115.444 78.5302 113.043 76.2293 113.043 76.3294 113.944ZM75.9292 110.442C75.9292 109.742 75.9292 109.342 74.8288 108.842 73.7284 108.442 74.1285 108.842 74.1285 108.842L73.4282 113.444C73.4282 114.144 73.4282 114.144 74.1285 114.544L74.1285 114.944C73.6283 115.044 73.1281 114.844 72.5279 114.544L70.9273 114.544 70.9273 114.144C71.6275 114.144 72.0277 114.144 72.0277 113.444L72.728 108.842C72.5279 108.642 72.2278 108.542 72.0277 108.442 71.3274 108.442 70.9273 108.442 70.4271 109.542L70.0269 109.542 70.4271 107.942 75.8292 108.642C75.9292 108.842 75.9292 110.442 75.9292 110.442ZM67.9261 109.742 67.9261 108.642C67.9261 108.242 67.526 108.242 67.2259 108.242L67.2259 107.841C67.626 107.841 67.9261 108.242 68.3263 108.242L69.9269 108.242C69.9269 108.242 69.2266 108.242 69.2266 108.642 69.3267 109.042 69.1266 109.442 68.8265 109.742L68.4263 112.443C68.4263 112.843 68.0262 113.144 68.4263 113.544 68.4263 113.944 68.8265 113.944 69.1266 113.944L69.1266 114.344C68.7264 114.344 68.4263 113.944 68.0262 113.944 67.626 113.944 67.2259 113.844 66.9257 113.544L66.9257 113.144C67.3259 113.144 67.626 113.144 67.626 112.743 67.9261 112.443 68.0262 112.043 68.0262 111.643 67.9261 111.643 67.9261 109.742 67.9261 109.742ZM105.441 104.84 103.14 103.24 103.84 105.941 105.441 104.84ZM94.7364 112.443 92.8357 110.543 93.2359 113.244 94.7364 112.443ZM104.24 106.741C104.24 107.141 104.64 107.841 104.64 108.342 105.04 108.742 105.341 108.342 105.341 107.942L105.341 108.642C104.94 109.042 104.94 109.042 104.64 109.042 104.34 109.042 104.24 109.442 103.94 109.442L103.94 109.042C104.34 108.642 104.34 108.642 104.34 108.342 103.94 107.641 103.94 107.241 103.64 106.441L102.539 102.339 107.141 105.341C107.341 105.541 107.641 105.641 107.841 105.741 108.042 105.941 108.342 105.941 108.542 105.741L108.542 106.141C108.142 106.141 107.841 106.441 107.841 106.841 107.441 107.241 107.141 107.241 107.141 107.541L106.741 107.141C106.741 106.741 107.141 106.741 107.141 106.441 107.141 106.141 106.741 106.041 106.441 106.041L105.741 105.341 103.84 106.441 104.24 106.741ZM96.5371 107.841C96.3371 107.541 95.8369 107.441 95.5368 107.741 95.4367 107.741 95.4367 107.841 95.4367 107.841L95.4367 107.441C95.8369 107.441 95.8369 107.441 96.137 107.041 96.5371 107.041 96.5371 107.041 96.8372 106.641L102.94 108.542 101.039 106.241C100.639 105.841 100.339 105.541 100.339 105.14 100.339 104.74 99.6383 105.14 99.2382 105.14 99.4382 104.94 99.7384 104.84 99.9384 104.74 99.9384 104.34 99.9384 104.04 100.339 104.04L100.339 104.44C100.339 104.84 99.9384 104.84 99.9384 105.14 99.9384 105.441 100.639 106.241 101.039 106.741L103.34 110.142 103.34 110.543C102.94 110.543 102.639 110.543 102.639 110.142L96.5371 107.841 98.5379 110.442C98.9381 110.843 99.2382 111.143 99.2382 111.543 99.6383 111.943 99.9384 111.543 100.339 111.543 100.339 111.943 99.9384 111.943 99.6383 112.243 99.2382 112.243 99.2382 112.643 98.9381 112.943L98.9381 112.543C99.2382 112.243 99.3382 111.843 99.3382 111.443 99.3382 111.043 98.9381 110.743 98.6379 110.342L96.5371 107.841ZM93.536 113.944C93.4359 114.444 93.636 114.944 93.9361 115.544 93.9361 115.945 94.6364 115.544 94.6364 115.544 94.2362 115.544 94.2362 115.945 93.9361 115.945 93.636 115.945 93.536 116.345 93.2359 116.345 93.636 115.945 93.636 115.945 93.636 115.244 93.7361 114.644 93.636 113.944 93.2359 113.344L92.5356 109.242 96.3371 112.643 97.0373 113.344 97.7376 113.344C97.3374 113.344 97.0373 113.744 96.6372 114.044 96.237 114.044 95.9369 114.444 95.5368 114.744L95.5368 114.344C95.9369 114.344 96.237 113.944 95.9369 113.644 95.9369 113.244 95.5368 113.244 95.2366 112.943L94.5364 112.243 92.6356 112.943 92.6356 113.344C92.6356 113.244 93.536 113.944 93.536 113.944Z" fill="#FFFFFF" transform="matrix(1 0 0 1 -142.002 0.025202)"/><path d="M14.9057 69.9269C14.7057 68.9265 14.3055 67.8261 13.8053 66.9257L13.8053 66.5256 17.2066 64.6249C16.8065 62.9242 16.6064 61.4236 16.5063 59.6229L12.7049 58.8226 12.7049 52.8203 16.5063 52.12C16.6064 50.4194 16.8065 48.8188 17.2066 47.1181L15.3059 46.0177 16.4063 46.0177 18.0069 46.718 18.0069 47.2182C17.6068 49.0189 17.3067 50.7195 17.3067 52.5202L17.3067 52.9204 13.5052 53.6206 13.5052 58.2224 17.3067 58.9227 17.3067 59.3228C17.3067 61.1235 17.6068 62.8242 18.0069 64.6249L18.0069 65.025 14.5056 66.9257 15.2058 69.2266 14.9057 69.9269ZM21.8084 81.3313 22.9088 82.4317 26.3101 80.8311 26.7103 80.8311C27.8107 82.1316 29.2112 83.4321 30.5117 84.6326L29.0112 88.5341C30.0115 89.5344 31.212 90.4348 32.4125 91.2351L35.4136 88.5341 35.8138 88.5341C37.4144 89.6345 39.015 90.5348 40.8157 91.2351L41.2159 91.2351 40.8157 95.3367C41.9161 95.7368 44.217 96.4371 44.9173 96.9373L46.818 93.536 47.2182 93.536C49.0189 93.9361 50.7195 94.2362 52.6202 94.3363L53.0204 94.3363 53.7207 98.1377 58.3224 98.1377 59.0227 94.3363 59.4229 94.3363C61.2236 94.2362 63.0242 94.0362 64.8249 93.636L66.7257 97.0373 70.8272 95.4367 70.4271 91.6352 70.8272 91.6352C72.6279 90.935 74.2285 89.9346 75.8292 88.9342L76.2293 88.5341 79.2305 91.2351 83.0319 88.5341 81.4313 84.7326 82.0316 84.7326C83.5321 83.7322 84.7326 82.3317 85.833 80.9311L85.833 80.531 89.6345 82.4317C90.6349 81.2312 91.5352 79.9307 92.3355 78.6302L89.6345 75.6291 89.6345 75.429C90.3348 73.8284 91.5352 72.4279 92.3355 70.4271L92.3355 70.0269 96.137 70.4271C96.5371 69.3267 97.2374 67.0258 97.7376 66.3255L94.3363 64.4248 94.3363 64.0246C94.7364 62.2239 95.0366 60.5233 95.0366 58.7226L95.0366 58.3224 98.838 57.6222 98.838 53.0204 95.0366 52.3201 95.0366 51.92C94.9365 50.1193 94.7364 48.4186 94.3363 46.6179L94.3363 46.2178 97.7376 44.317C97.3374 43.2166 96.6372 40.9157 96.137 40.2155L92.3355 40.6156 92.3355 40.2155C91.7353 38.4148 90.7349 36.8142 89.6345 35.2135L89.6345 35.6137 92.3355 32.6125C91.6352 31.9123 90.4348 29.6114 89.6345 28.9111L85.833 30.5117C84.8326 29.0112 83.4321 27.8107 82.0316 26.8103L81.6314 26.01 83.232 22.3086 79.4306 19.6075 76.4294 22.3086 76.0292 22.3086C74.4286 21.6083 72.6279 20.708 71.0273 20.0077L70.6272 20.0077 71.0273 16.3063C70.3271 15.9061 67.626 15.2058 66.9257 14.7057L65.025 18.107 64.6249 18.107C62.8242 17.7068 61.1235 17.4067 59.2228 17.4067L58.8226 17.4067 58.2224 13.5052 54.1208 13.5052 53.4206 17.2066 52.9204 17.2066C51.1197 17.3067 49.319 17.5067 47.5183 17.9069L47.1181 17.9069 45.0173 14.5056C44.317 14.9057 41.616 15.606 40.9157 16.1062L41.3159 19.8076 40.9157 19.8076 36.314 22.2085 35.9138 22.2085 32.9127 19.5075C32.2124 19.9077 31.8122 20.6079 31.312 21.1081L31.312 20.0077 32.9127 18.9073 33.2128 18.9073 35.9138 21.6083 40.5156 19.3074 39.7153 15.0058 40.1154 15.0058C41.716 14.3055 43.3167 13.9053 45.1174 13.4052L45.5175 13.4052 47.4182 16.8065C49.1189 16.4063 50.7195 16.1062 52.4202 16.1062L53.1204 12.4048 58.8226 12.4048 59.5229 16.1062C61.2236 16.2062 62.8242 16.4063 64.5248 16.8065L66.4256 13.4052 66.8257 13.4052C67.526 13.8053 70.9273 14.5056 71.8276 15.0058L72.2278 15.0058 72.2278 18.8072 76.9296 21.1081 79.9307 18.5071 80.3309 18.5071C81.5314 19.6075 82.8319 20.6079 84.1324 21.5083L82.5317 25.2097 85.9331 28.611 89.7345 27.0104 89.7345 27.4105C90.1347 28.1108 92.4356 30.8119 92.7357 31.5121L92.7357 31.9123 90.0346 34.9134 92.3355 39.5152 96.137 39.115 96.137 39.5152C96.8372 41.1158 97.2374 42.7164 97.7376 44.5171L97.7376 44.217 94.3363 46.1177C94.7364 47.8184 95.0366 49.319 95.0366 51.1197L98.838 51.8199 98.838 58.4225 95.3367 59.1227C95.2366 60.8234 95.0366 62.424 94.6364 64.1247L98.0377 66.0254 98.0377 66.4256C97.7376 68.1262 97.2374 69.7268 96.4371 71.4275L96.4371 72.0277 92.3355 71.6275 90.0346 76.2293 92.7357 79.2305 92.7357 79.9307C92.3355 80.631 90.0346 83.3321 89.7345 84.0323L89.7345 84.4325 86.0331 82.9319 82.6318 86.3332 84.5325 90.1347 84.0323 90.1347C83.3321 90.5348 80.631 92.8357 79.9307 93.1358L79.5306 93.536 76.4294 90.1347 71.8276 92.4356 72.2278 96.5371 71.8276 96.5371 66.8257 98.1377 66.4256 98.1377 64.5248 94.7364C62.8242 95.1366 61.2236 95.4367 59.5229 95.4367L58.8226 99.2382 52.8203 99.2382 52.12 95.4367C50.5194 95.0366 48.7187 95.0366 47.1181 94.7364L45.2174 98.1377 44.8172 98.1377C43.2166 97.4375 41.616 97.0373 39.8153 96.5371L39.4152 96.5371 39.8153 92.4356 35.2135 90.1347 32.2124 92.8357 33.0127 92.8357C32.3124 92.4356 29.6114 90.1347 28.9111 89.8346L28.511 89.8346 30.0115 86.1331 26.5102 82.5317 22.5087 84.0323 22.5087 83.6322 21.8084 82.0316 21.8084 81.3313Z" fill="#FFFFFF" transform="matrix(1 0 0 1 -142.002 0.025202)"/><path d="M56.1216 87.7337C51.4198 87.6337 47.0181 86.6333 42.7164 84.7326L42.0162 84.7326 56.1216 67.3259 69.8269 84.7326 69.1266 85.1327C65.025 86.9334 60.6233 87.7337 56.1216 87.7337ZM43.6168 84.3324C51.5198 87.7337 60.5233 87.7337 68.4263 84.3324L56.1216 68.8265 43.6168 84.3324ZM79.4306 77.93 66.8257 59.3228 87.7337 51.7199 87.7337 52.4202C88.8342 61.5237 85.733 70.8272 79.3305 77.4298 79.3305 77.5298 79.4306 77.93 79.4306 77.93ZM68.3263 59.723 79.4306 76.4294C85.0327 70.0269 87.8338 61.7237 87.0335 53.3205L68.3263 59.723ZM32.8126 77.93 32.4125 77.5298C26.3101 70.8272 23.309 61.6237 24.4094 52.5202L24.4094 51.8199 45.3174 59.823C45.3174 59.723 32.8126 77.93 32.8126 77.93ZM25.2097 52.9204C24.4094 61.3236 27.2105 69.7268 32.9127 76.0292L44.317 59.723 25.2097 52.9204ZM62.6241 46.918 61.9238 24.6095 62.6241 24.6095C71.6275 26.5102 79.4306 32.1124 84.0323 40.2155L84.4325 40.6156 62.6241 46.918ZM62.9242 26.01 63.6245 45.7176 83.132 40.4155C78.6302 33.1127 71.3274 28.0108 62.9242 26.01ZM49.319 46.918 27.9107 40.5156 28.3109 40.1154C32.9127 32.1124 40.6156 26.6102 49.7191 25.0096L50.4194 25.0096C50.4194 24.9096 49.319 46.918 49.319 46.918ZM29.3113 40.0154 48.4186 45.7176 49.2189 26.01C40.9157 27.5106 34.0131 32.8126 29.3113 40.0154Z" fill="#FFFFFF" transform="matrix(1 0 0 1 -142.002 0.025202)"/><path d="M56.1216 27.2105 49.319 46.5179 49.319 46.918 48.9188 46.918 28.3109 47.2182 44.7172 59.6229 45.0173 60.0231 45.0173 60.4232 39.3151 79.7307 56.1216 68.3263 56.5217 67.9261 56.9219 68.3263 73.7284 79.7307 68.0262 60.5233 68.0262 59.4229 68.4263 59.0227 84.8326 46.6179 64.2247 46.0177 63.8246 46.0177 63.8246 45.6175 56.1216 27.2105ZM48.5187 45.7176 55.8215 25.3097 56.2216 24.2093 56.6218 25.3097 63.9246 45.4175 85.3328 45.8176 86.9334 45.8176 85.833 46.5179 68.3263 59.3228 74.4286 79.7307 74.8288 80.8311 73.6283 80.1308 56.1216 68.0262 38.6149 80.2309 37.5144 80.9311 37.9146 79.3305 44.0169 58.8226 26.8103 46.918 25.7099 46.2178 26.8103 46.2178 48.5187 45.7176Z" fill="#FFFFFF" transform="matrix(1 0 0 1 -142.002 0.025202)"/><path d="M16.4063 84.7326 18.307 88.1339 16.4063 84.7326Z" fill="#FFFFFF" transform="matrix(1 0 0 1 -142.002 0.025202)"/></g></svg>